<?xml version="1.0" standalone="no"?>
<!DOCTYPE svg PUBLIC "-//W3C//DTD SVG 20010904//EN"
 "http://www.w3.org/TR/2001/REC-SVG-20010904/DTD/svg10.dtd">
<svg version="1.0" xmlns="http://www.w3.org/2000/svg"
 width="1000.000000pt" height="1000.000000pt" viewBox="0 0 1000.000000 1000.000000"
 preserveAspectRatio="xMidYMid meet">
<metadata>
Created by potrace 1.14, written by Peter Selinger 2001-2017
</metadata>
<g transform="translate(0.000000,1000.000000) scale(0.100000,-0.100000)"
fill="#000000" stroke="none">
<path d="M4779 8936 c-2 -2 -44 -6 -94 -10 -93 -6 -155 -13 -215 -22 -19 -2
-51 -7 -70 -10 -19 -3 -80 -14 -135 -25 -55 -10 -110 -21 -122 -23 -234 -45
-713 -217 -933 -335 -96 -51 -239 -134 -306 -177 -100 -63 -209 -136 -214
-143 -3 -3 -23 -19 -45 -35 -172 -125 -376 -310 -540 -488 -89 -96 -109 -120
-229 -269 -41 -51 -256 -364 -256 -372 0 -2 -23 -44 -51 -93 -97 -168 -210
-415 -284 -624 -26 -72 -83 -254 -90 -288 -3 -12 -7 -30 -10 -39 -21 -85 -46
-192 -50 -217 -2 -17 -7 -42 -10 -56 -3 -14 -8 -41 -11 -60 -3 -19 -6 -44 -8
-55 -2 -11 -7 -45 -11 -75 -3 -30 -8 -68 -10 -85 -26 -186 -27 -719 -1 -875 2
-14 8 -52 12 -85 4 -33 8 -62 9 -65 0 -3 5 -32 10 -65 5 -33 9 -62 10 -65 3
-13 18 -88 21 -110 8 -41 73 -290 95 -360 151 -476 405 -946 708 -1310 25 -30
55 -65 66 -79 80 -99 308 -325 429 -426 26 -22 53 -45 59 -50 7 -6 32 -26 57
-45 25 -19 47 -37 50 -41 7 -8 104 -76 225 -158 275 -184 614 -348 940 -455
163 -53 411 -116 520 -131 29 -5 86 -14 118 -21 15 -3 44 -7 65 -9 20 -2 66
-7 102 -10 36 -4 92 -10 125 -15 62 -8 605 -6 640 3 11 2 52 8 90 11 39 4 81
9 95 11 14 3 41 7 60 9 64 8 114 17 230 42 63 14 125 27 137 30 121 25 462
140 628 212 332 144 748 407 1000 632 149 133 288 270 369 365 28 33 54 62 57
65 26 22 199 252 274 365 203 305 337 576 455 920 53 152 111 369 134 500 3
17 8 41 11 55 2 13 7 42 10 65 3 22 8 48 11 58 3 10 7 42 9 73 3 30 6 58 9 62
10 18 21 247 21 462 0 264 -7 362 -39 580 -19 121 -25 159 -31 180 -2 8 -7 31
-10 50 -3 19 -8 43 -11 52 -3 9 -6 25 -8 35 -4 18 -32 125 -61 231 -7 28 -17
57 -21 63 -4 7 -565 -547 -1363 -1343 -1336 -1336 -1357 -1355 -1413 -1372
-67 -21 -136 -17 -198 11 -35 16 -253 228 -960 934 -1016 1014 -961 952 -956
1081 3 104 55 181 156 233 53 28 162 26 221 -3 34 -16 256 -232 849 -823 l802
-801 587 585 c322 322 916 915 1320 1318 l734 732 -39 76 c-114 221 -333 548
-479 716 -240 275 -483 500 -730 673 -232 164 -548 340 -755 421 -47 19 -98
40 -115 47 -42 19 -256 92 -302 103 -21 5 -100 25 -176 45 -75 20 -165 40
-200 46 -116 20 -242 38 -307 45 -36 4 -74 9 -85 12 -23 5 -570 14 -576 9z"/>
</g>
</svg>
