<svg xmlns="http://www.w3.org/2000/svg" viewBox="0 0 1600 1200"><style>.st1{display:inline}.st2{fill:#e8e8e8}.st3{fill:#161616}.st4{display:inline;fill:#fff;stroke:#161616;stroke-width:3;stroke-miterlimit:10}.st5{opacity:.4;fill:#666}.st5,.st6,.st7{display:inline}.st6{opacity:.5;fill:#666}.st7{fill:#161616;stroke:#161616;stroke-width:2;stroke-miterlimit:10}.st8{fill:#fff}.st9{display:inline;opacity:.41;fill:#666}.st10,.st11,.st16{display:inline;fill:#5222d0}.st11,.st16{fill:#ec615b}.st16{opacity:.48;fill:#666}.st18{fill:#161616;stroke:#161616;stroke-width:3;stroke-miterlimit:10}.st20{fill:#281472}.st23{fill:#fff;stroke:#161616;stroke-width:3;stroke-miterlimit:10}</style><g id="backfround"><path class="st2" d="M209.4 795.4c2.7 8-.2 16-1.4 23.9-1 6.7-.2 12.6 3.5 18.4 2 3.1 4.8 6.3 5.6 10 1 4.6-2.4 7.8-3.9 11.8-1.5 4-.5 9.7 4.5 10.4-.2-.8-.4-1.7-.7-2.5-2.3 2.5-3 6.2-.9 9.1 1.6 2.2 5 2.4 5.9 5.3.9 2.9-.6 6.6-1.1 9.4-1.9 11.7 5.2 21.9 13.6 29.2 9.8 8.6 20.6 15.6 29.4 25.3 9.2 10.1 16.8 21.7 22.5 34.1.8 1.7 3.4.2 2.6-1.5-9.6-20.7-24.1-38.3-42.3-52.1-10.1-7.6-22.7-16.6-23.2-30.6-.1-4.5 2.1-9 1.5-13.5-.2-1.4-.6-2.8-1.6-3.9-2.2-2.6-8.7-4.2-4.4-8.8.7-.7.5-2.3-.7-2.5-6.8-1-.6-9.6.5-12.3.9-2 1.4-4 1.2-6.2-.5-5.7-5.1-10-7.6-14.9-6.4-12.4 4.1-26.2-.3-39.1-.4-1.6-3.3-.8-2.7 1z"/><path class="st2" d="M211.5 798.3c68.9 30.5 85.8 111.4 97.8 178 .3 1.9 3.2 1.1 2.9-.8-9.9-55.3-21.4-114.9-63.5-155.6-10.4-10.1-22.4-18.4-35.7-24.2-1.7-.8-3.3 1.8-1.5 2.6z"/><path class="st2" d="M216.5 805.3c36.8 46.7 63 101.4 76.4 159.3.4 1.9 3.3 1.1 2.9-.8-13.5-58.5-40-113.5-77.1-160.7-1.3-1.5-3.4.7-2.2 2.2z"/><path class="st2" d="M224.6 855.4c21.7 9.9 39.1 27.3 49.1 49 .8 1.8 3.4.2 2.6-1.5-10.1-22.1-28-40-50.1-50.1-1.9-.8-3.4 1.8-1.6 2.6zM299.3 910.2c-6.6-28.5 16-51.5 30-73.5 6.8-10.7 12.5-22.2 16.8-34.1 2.1-5.8 3.6-11.8 5.4-17.7 1.7-5.6 4-11.9 10.1-13.6-.6-.2-1.1-.5-1.7-.7 2.3 4.5 3.5 9.4 3 14.5-.3 3.2-2.7 6.7-2.4 9.7.2 1.8 1.8 4.6 2.4 6.4.7 2.3 1.2 4.6 1.5 6.9.4 2.8.6 5.6.6 8.4 0 2.1-1.4 7.8-.7 9.4-.8-1.7-3-.4-2.7 1.2 2.8 17 6.8 34.3 7.8 51.4 1 17.2-5.9 31.8-14.6 46.2-15.4 25.5-31.8 52.7-28.7 83.8.2 1.9 3.2 1.9 3 0-3.4-34.1 17-61.5 32.7-89.7 7.4-13.3 11.7-26.9 10.5-42.2-1.3-16.8-5.1-33.6-7.8-50.3l-2.7 1.2.3.6c.2.5.8.7 1.3.7 3.7.1 4.1-4.1 4.4-6.9.8-6.9.2-13.9-1.6-20.5-.7-2.5-2.4-5.3-2.1-7.9.3-2.4 1.6-4.9 1.9-7.5.7-5.9-.6-11.6-3.3-16.8-.3-.6-1.1-.9-1.7-.7-10.3 3-11.9 15.2-14.5 24-4.5 15.1-11.1 29.5-19.6 42.8-14.6 22.9-37.2 46.2-30.3 75.8.3 1.8 3.2 1 2.7-.9z"/><path class="st2" d="M354.9 795.7c-1.7 30.2-13.9 58.1-23.8 86.2-10 28.5-16.3 57.9-18.5 88-.1 1.9 2.9 1.9 3 0 2.3-31.1 9.2-61.3 19.6-90.6 9.7-27.3 21-54.4 22.7-83.6.1-1.9-2.9-1.9-3 0z"/><path class="st2" d="M312.5 864.4c1.4 13.7 5.1 26.9 11.2 39.3.9 1.7 3.4.2 2.6-1.5-5.8-11.9-9.5-24.6-10.8-37.7-.2-2-3.2-2-3-.1zM336 878.7c10.4-6.3 19.2-14.5 26.2-24.4 1.1-1.6-1.5-3.1-2.6-1.5-6.7 9.5-15.2 17.3-25.2 23.3-1.6 1-.1 3.6 1.6 2.6zM282.6 971.8c6.4 11.9 10.4 24.7 11.9 38.1.2 1.9 3.2 1.9 3 0-1.6-13.9-5.7-27.2-12.3-39.6-.9-1.7-3.5-.2-2.6 1.5zM307.7 969.9c2.5 12.3 3.9 24.8 4.1 37.4 0 1.9 3 1.9 3 0-.2-12.9-1.6-25.6-4.2-38.2-.4-1.9-3.3-1.1-2.9.8zM1312.3 885.3c-1.2 4-3.1 8.3-3.7 12.5-.3 1.7-.4 3.3.7 4.7 1.4 1.7 3.8 1.9 5.8 2.2 4.5.8 9 1.5 13.5 2.1 16.2 2.2 32.6 3.1 48.9 3.4 16.9.3 33.8-.2 50.8-.8 4.4-.2 9.4.3 13.6-.5 1.2-.2 2.5-.2 3.3-1.3 1.8-2.3-.7-4.3-3-3.1-.5.3-.9 1.1-.7 1.7.1.1.1.3.2.4.7 1.8 3.6 1 2.9-.8-.1-.1-.1-.3-.2-.4-.2.6-.5 1.1-.7 1.7l-1.8-1.2c-1 0-1.9.1-2.9.1-1.6.1-3.2.1-4.9.2-2.9.1-5.9.2-8.8.3-5.9.2-11.7.4-17.6.5-12.4.3-24.7.4-37.1 0-12-.3-24-1.1-35.9-2.5-6.3-.7-12.6-1.6-18.9-2.7-4.1-.7-4.6-2.5-3.5-6.4.9-3.1 1.9-6.3 2.8-9.4.6-1.8-2.3-2.6-2.8-.7z"/><path class="st2" d="M1315.1 886.9c1.6-4.9 12.6-3.7 16.5-3.8 5.5-.2 11.1-.4 16.6-.5 11.7-.2 23.4-.2 35.2.2 11.4.3 22.8.9 34.1 1.8 5.4.4 11.3.3 16.5 1.5 5.4 1.3 5.4 3.9 6.2 8.2l1.8 9.3c.4 1.9 3.3 1.1 2.9-.8-.7-3.7-1.5-7.5-2.2-11.2-.4-2.2-.7-4.7-2.4-6.4-3.2-3.2-10.1-2.4-14.2-2.8-14.6-1.3-29.2-2.2-43.9-2.6-14.3-.4-28.7-.4-43 .1-6.3.2-12.8.1-19.1.9-3.6.5-6.9 1.7-8.1 5.4-.4 1.8 2.5 2.5 3.1.7zM1318 903.5c4.4 24.2 7.5 48.6 9.4 73.1.1.9.6 1.4 1.5 1.5 29.4 2.7 58.9 3.4 88.3 2.1 1.9-.1 1.9-3.1 0-3-29.5 1.3-59 .6-88.3-2.1l1.5 1.5c-1.9-24.8-5-49.4-9.5-73.9-.4-1.9-3.3-1.1-2.9.8z"/><path class="st2" d="M1433.5 909.5c-4 22.8-8.9 45.5-14.8 67.9-.5 1.9 2.4 2.7 2.9.8 5.8-22.4 10.8-45.1 14.8-67.9.3-1.9-2.6-2.7-2.9-.8zM1250.6 723.6c6.6 17.9 11.4 36.3 14.5 55 .1.5.6.9 1 1 3.2.9 6.4 1.8 9.5 2.7-.3-.6-.7-1.2-1-1.8-1.8 8.2-2.6 17.1 5.1 22.3 2.5 1.7 5.1 2.7 5.7 6 .4 2.4.2 4.8.7 7.2 1 5.1 3.1 10 6.1 14.2 6.7 9.3 17.2 13.3 26.6 19.2 10.4 6.6 18.5 16.1 23.9 27.1.8 1.7 3.4.2 2.6-1.5-4.4-9-10.6-17.1-18.4-23.4-8.6-7-19.7-10.6-27.8-18.1-4.3-3.9-7.4-9.1-9.2-14.6-.9-2.8-1.4-5.7-1.5-8.6-.1-1.6.2-2.9-.5-4.3-1.7-3.8-6.6-4.9-9.2-7.9-3.9-4.5-2.4-11.5-1.3-16.8.2-.8-.2-1.6-1-1.8-2-.6-6-.9-7.6-2.1-2-1.5-1.9-5.5-2.3-7.9-1-5.3-2.2-10.5-3.5-15.8-2.6-10.5-5.8-20.7-9.5-30.8-.6-1.9-3.5-1.1-2.9.7z"/><path class="st2" d="M1253.8 723.7c34.4 10.1 63.9 33.6 81.5 64.8.9 1.7 3.5.2 2.6-1.5-17.9-31.9-48.1-55.9-83.3-66.2-1.9-.6-2.7 2.3-.8 2.9z"/><path class="st2" d="M1331.7 784.2c18.5 27.5 30.9 58.6 36.5 91.3.3 1.9 3.2 1.1 2.9-.8-5.6-32.9-18.2-64.3-36.8-92-1.1-1.6-3.7-.1-2.6 1.5zM1260.4 732.1c38.5 39 70.5 83.9 95 132.9.9 1.7 3.5.2 2.6-1.5-24.5-49.2-56.8-94.3-95.4-133.5-1.5-1.3-3.6.8-2.2 2.1z"/><path class="st2" d="M1267.5 767.1c25.5 15.4 47.9 35.4 66 59.1 1.2 1.5 3.8 0 2.6-1.5-18.4-24.2-41.1-44.6-67.1-60.2-1.6-1-3.1 1.6-1.5 2.6zM1292.9 740.7c6.5 14.1 10.6 29.1 12.4 44.6.2 1.9 3.2 1.9 3 0-1.8-16-6.1-31.4-12.8-46.1-.9-1.8-3.4-.3-2.6 1.5zM1362.7 835.9c-2.8-66.6 60.5-109.2 89.3-162.7-.9-.3-1.9-.5-2.8-.8 0 8.4-.1 16.8-.1 25.2 0 3.9 0 7.8-.1 11.6 0 4 1.5 17.6-6.5 15.1-1.2-.4-2.4 1.1-1.7 2.2 4.2 6.4 5.2 14.3 2.5 21.6-1.3 3.5-2.7 4.8-3.1 8.6-.4 4.2-.8 8.5-1.2 12.7-.8 8.5-1.7 16.9-2.5 25.4-.8 8-.7 16.8-3 24.5-2.2 7.6-8.5 11.9-15.1 15.6-5.8 3.4-11.6 6.7-16.9 10.8-10 7.9-17.7 19-17.4 32.1 0 1.9 3 1.9 3 0-.4-17.4 13.6-29.1 27.3-37.2 5.5-3.3 11.5-6.1 16.1-10.7 4.5-4.5 6.2-10 7-16.2 2.2-17.4 3.4-34.9 5.1-52.3.4-4.1 1.1-7.2 2.8-10.9 1.1-2.5 1.8-5.2 2.2-7.9.7-6.3-.8-12.4-4.3-17.7-.6.7-1.1 1.5-1.7 2.2 9.8 3.2 10.2-9.9 10.2-16 .1-12.9.1-25.8.2-38.8 0-1.5-2.1-2.1-2.8-.8-29.1 54-92.6 96.8-89.7 164.2.2 2.1 3.2 2.1 3.2.2z"/><path class="st2" d="M1443.5 700.2c-15.2 25.6-30.4 51.2-43.6 77.9-6.4 12.9-12.2 26-17.4 39.4-5.1 13.4-9.1 27.3-8.3 41.7.1 1.9 3.1 1.9 3 0-.9-14.8 3.5-29 8.8-42.7 5.3-13.7 11.4-27.2 18-40.3 12.8-25.5 27.4-50.1 41.9-74.6 1.2-1.6-1.4-3.1-2.4-1.4zM1384.8 774.3c-2.4 10.5-2.9 21.1-1.4 31.7.3 1.9 3.2 1.1 2.9-.8-1.4-10.1-.9-20.2 1.4-30.1.4-1.9-2.5-2.7-2.9-.8z"/><path class="st2" d="M1414.3 723c-1.5 8.6-1.3 17.2.6 25.7.4 1.9 3.3 1.1 2.9-.8-1.8-8-2-16-.6-24.1.3-1.9-2.5-2.7-2.9-.8zM1440.9 794.2c16.3-19.2 30.3-40.1 41.8-62.5-.9-.1-1.8-.2-2.7-.4 5.4 18.7 4.3 38 .2 56.8-2 9.1-4.6 18.1-7.4 27-1.3 4.1-2.7 8.2-4.1 12.4-1.5 4.5-2.9 10.9-8.4 11.9-.7.1-1.1.8-1.1 1.4-.2 5.1-.5 10.6-2.8 15.3-2.9 6-8.7 7.6-14.7 9.3-9 2.5-18.2 5.1-24.5 12.4-1.3 1.4.9 3.6 2.1 2.1 4.4-5.1 10.2-7.7 16.5-9.7 5.3-1.7 11.3-2.4 16.2-5.2 8.6-4.8 9.7-15.4 10.1-24.2-.4.5-.7 1-1.1 1.4 7.8-1.3 9.6-11.3 11.7-17.5 3.6-10.6 7-21.3 9.5-32.2 4.8-20.4 6.5-41.7.6-62.1-.3-1.2-2.1-1.5-2.7-.4-11.3 22.2-25.1 42.9-41.3 61.9-1.3 1.7.8 3.8 2.1 2.3z"/><path class="st2" d="M1474.1 762.5c-7.7 24.5-20.6 47.3-37.7 66.4-13.9 15.4-35.2 28.8-37.5 51.3-.2 1.9 2.8 1.9 3 0 1.2-12.3 9.2-21.8 17.6-30.2 8.3-8.3 16.9-16.1 24.3-25.2 14.9-18.2 26.1-39.1 33.1-61.5.7-1.8-2.2-2.6-2.8-.8zM1135.6 264.2c-6.1 50.6-24.7 99.2-53.8 141.1-1.1 1.6 1.5 3.1 2.6 1.5 29.4-42.3 48-91.5 54.2-142.6.2-2-2.8-1.9-3 0z"/><path class="st2" d="M1136.1 265c44 5.6 88.5 5.8 132.5.7 1.9-.2 1.9-3.2 0-3-44 5.1-88.5 4.9-132.5-.7-1.9-.2-1.9 2.8 0 3z"/><path class="st2" d="M1268.7 267.5c11.3 52.8 4.3 108.6-19.5 157.1-.9 1.7 1.7 3.2 2.6 1.5 24.2-49.2 31.3-105.7 19.8-159.4-.4-1.9-3.3-1.1-2.9.8z"/><path class="st2" d="M1083.7 408c52.9 19.6 110.1 18.7 165.7 17.6 1.9 0 1.9-3 0-3-55.3 1.1-112.2 2-164.9-17.5-1.8-.7-2.6 2.2-.8 2.9zM1276.9 328.7c25.2-10.2 51.8-16.8 78.9-19.4l-1.5-1.5c.8 38.6 16.5 76 43.4 103.7 1.3 1.4 3.5-.7 2.1-2.1-26.4-27.1-41.7-63.7-42.5-101.6 0-.8-.7-1.6-1.5-1.5-27.4 2.7-54.2 9.2-79.7 19.5-1.8.8-1 3.7.8 2.9z"/><path class="st2" d="M1222.2 427.7c4 13.7 8.3 27.4 13.4 40.7 4.1 10.7 9.4 21.1 18.3 28.6 1.5 1.2 3.6-.9 2.1-2.1-9.3-7.9-14.5-18.9-18.6-30.2-4.5-12.4-8.5-25-12.3-37.7-.6-1.9-3.4-1.1-2.9.7z"/><path class="st2" d="M1257.2 497.2c45.2-31.3 93.3-58.3 143.4-80.9 1.8-.8.2-3.4-1.5-2.6-50.2 22.5-98.2 49.6-143.4 80.9-1.6 1.1-.1 3.7 1.5 2.6zM1145.1 278c37 4.6 74.2 7.9 111.4 9.8 1.9.1 1.9-2.9 0-3-37.3-1.9-74.4-5.2-111.4-9.8-1.9-.2-1.9 2.8 0 3zM1144.3 292.8c5.1 3.1 12 2.6 17.7 3l24.6 1.8c1.9.1 1.9-2.9 0-3l-20.7-1.5c-6.2-.5-14.7.4-20.1-2.9-1.6-1-3.1 1.6-1.5 2.6zM1139.1 307.7c18.6 1.3 37.2 2.6 55.7 3.9 17.8 1.2 36.3 4 54.1 2.2 1.9-.2 1.9-3.2 0-3-17.8 1.8-36.3-.9-54.1-2.2-18.6-1.3-37.2-2.6-55.7-3.9-1.9-.1-1.9 2.9 0 3zM1135.8 332.9c16.2 5.4 33.3 5.7 50.3 5.5 18.7-.1 37.3-.3 56-.5 1.9 0 1.9-3 0-3-18.1.1-36.1.3-54.2.4-17.3.1-34.7.1-51.3-5.4-1.9-.5-2.7 2.4-.8 3zM1115.2 378.2c0 3.2-.3 6.6 0 9.9.2 1.6.9 3.2 2.8 3.3 2.3.1 4.1-2.5 5.5-3.9 2.3-2.4 4.4-4.9 6.5-7.4 1.2-1.5-.9-3.6-2.1-2.1-2.5 3.2-5.2 6.2-8.1 9-.3.3-.6.6-1 .9-.6.6-.8.5-.6-.4-.3-.7 0-2.1 0-2.8v-6.5c0-1.9-3-1.9-3 0zM1139.4 355.2c32.2 6.9 65.2 9.3 98 7.2 1.9-.1 1.9-3.1 0-3-32.6 2.1-65.3-.3-97.2-7.1-1.9-.4-2.7 2.5-.8 2.9zM1257.9 460.8c40.3-14.7 78.8-33.9 114.7-57.4 1.6-1.1.1-3.7-1.5-2.6-35.7 23.4-73.9 42.6-114 57.1-1.8.7-1 3.6.8 2.9zM1248.6 442.1c30-8.7 59.3-19.3 88-31.6 1.8-.8.2-3.3-1.5-2.6-28.4 12.3-57.6 22.7-87.3 31.3-1.8.6-1.1 3.5.8 2.9zM1261.6 418.1c17.1-7.1 34.2-14.3 51.3-21.4 15-6.3 30.4-12 43.7-21.6 1.5-1.1.1-3.7-1.5-2.6-13.6 9.8-29.5 15.7-44.8 22.1l-49.5 20.7c-1.7.7-.9 3.6.8 2.8zM1275.5 387.5c7.4-3.1 14.9-6.1 22.3-9.2 1.8-.7 1-3.6-.8-2.9-7.4 3.1-14.9 6.1-22.3 9.2-1.8.7-1 3.6.8 2.9zM1279.6 348.7c9.9.3 19.9-4.5 29-8.1 9.5-3.8 18.8-8 27.9-12.6 1.7-.9.2-3.5-1.5-2.6-8.9 4.5-17.9 8.6-27.2 12.3-8.7 3.5-18.6 8.3-28.2 8-2-.1-2 2.9 0 3zM1155.4 424.9c-11.3 34.9-30.2 67-55.1 94-.9 1-.3 2.5 1.1 2.6 46.2 1.5 89 20.9 130.1 40.5 1.7.8 3.3-1.8 1.5-2.6-41.6-19.8-84.8-39.3-131.6-40.9.4.9.7 1.7 1.1 2.6 25.3-27.3 44.4-59.9 55.9-95.3.5-1.9-2.4-2.7-3-.9z"/><path class="st2" d="M1234.9 561c13.5-26.2 28.1-51.8 43.7-76.9 1-1.6-1.6-3.2-2.6-1.5-15.6 25-30.2 50.7-43.7 76.9-.9 1.7 1.7 3.3 2.6 1.5zM1230.5 526.4c1.9 0 1.9-3 0-3-2 0-2 3 0 3zM1126.8 504.9c15.6-1.1 28.8 8.3 43.1 13 7.8 2.5 15.9 3.8 23.7 6.4 7.9 2.5 15.2 6.3 22.1 11 1.6 1.1 3.1-1.5 1.5-2.6-6.3-4.3-13.1-7.9-20.3-10.4-8.5-3-17.6-4.4-26.2-7.2-14.6-4.8-27.9-14.3-43.9-13.1-2 0-2 3 0 2.9zM1142.6 492.1c23.4 6 45.8 15.3 66.5 27.7 1.7 1 3.2-1.6 1.5-2.6-20.9-12.6-43.5-22-67.2-28-1.9-.4-2.7 2.4-.8 2.9zM1150.2 474.6c10.4 2.2 20 6.4 28.8 12.4 1.6 1.1 3.1-1.5 1.5-2.6-9-6.1-18.9-10.4-29.5-12.7-1.9-.4-2.7 2.5-.8 2.9zM1156.4 458.6c16.9 6.3 33.6 13 50.2 20.1 1.8.8 3.3-1.8 1.5-2.6-16.8-7.2-33.8-14.1-50.9-20.4-1.9-.6-2.6 2.3-.8 2.9zM305.9 303.9c-1.6 23.8-2 47.8-9.6 70.7-7.1 21.3-19 40.8-34.6 56.9-1.3 1.4.8 3.5 2.1 2.1 15.6-16.1 27.6-35.5 34.9-56.7 8.1-23.5 8.5-48.4 10.2-73 .1-1.9-2.9-1.9-3 0z"/><path class="st2" d="M308 304.8c39.2-.5 78.5-.4 117.7.4 10 .2 20 .5 29.9.8 5.1.2 12.9-1.3 15.6 4.1 1.9 3.8 1.8 9.9 2.4 14.1 2.6 18.4 3.1 37.1 1.7 55.6-1.6 21-5.8 41.7-12.3 61.7-.6 1.8 2.3 2.6 2.9.8 12.2-37.5 16.1-77.5 10.9-116.6-.5-4.1-1.2-8.2-1.9-12.2-.5-2.9-.8-6.6-3.4-8.5-2.5-1.9-6-1.6-8.9-1.7-5.7-.2-11.3-.4-17-.5-21.6-.6-43.2-1-64.8-1.1-24.3-.2-48.6-.1-72.8.2-1.9 0-1.9 3 0 2.9zM262.4 435.2c50.8 14.2 104.5 15.7 156.1 4.6 1.9-.4 1.1-3.3-.8-2.9-51 11.1-104.2 9.5-154.5-4.6-1.9-.5-2.7 2.3-.8 2.9z"/><path class="st2" d="M465.9 312c-2.3 43.7-14.3 86.4-35.1 124.8-.9 1.7 1.7 3.2 2.6 1.5 21-38.9 33.2-82.1 35.5-126.3.1-1.9-2.9-1.9-3 0z"/><path class="st2" d="M465.9 320.3c2.8 13.3 1.6 26.7-.7 39.9-2 11.5-4.3 23-6.9 34.5-5.1 22.5-12 44.7-25.2 63.8-1.1 1.6 1.5 3.1 2.6 1.5 13.7-19.8 20.7-42.9 25.9-66.2 5.3-23.8 12.4-49.9 7.2-74.3-.4-1.9-3.3-1.1-2.9.8z"/><path class="st2" d="M468.1 329.9c3.5 45.4-3.9 91.1-21.6 133.1-.7 1.8 2.2 2.6 2.9.8 17.7-42.2 25.2-88.2 21.7-133.9-.1-1.9-3.1-1.9-3 0zM281.5 460c50.1 8.6 101.3 8.3 151.3-.8 1.9-.3 1.1-3.2-.8-2.9-49.4 9-100.2 9.3-149.7.8-1.9-.3-2.7 2.6-.8 2.9zM288.1 443c-2.3 3.8-5.3 7-8.9 9.6-1.6 1.1-.1 3.7 1.5 2.6 4-2.9 7.4-6.4 9.9-10.6 1.1-1.7-1.5-3.2-2.5-1.6zM295.1 464.9c-1.3 2.5-2.8 4.9-4.6 7.1-1.2 1.5.9 3.6 2.1 2.1 2-2.4 3.7-4.9 5-7.7.9-1.7-1.6-3.3-2.5-1.5z"/><path class="st2" d="M292.2 476.1c50.3 5.9 101.4 2.7 150.6-9.5 1.9-.5 1.1-3.4-.8-2.9-48.9 12.1-99.7 15.2-149.8 9.3-1.9-.1-1.9 2.9 0 3.1zM316.7 344.1c43.2-5.9 86.8-3.1 130.1-.1 1.9.1 1.9-2.9 0-3-43.6-3-87.4-5.8-130.9.2-1.9.2-1.1 3.1.8 2.9zM304.3 388.9c40.5.6 80.9 2.5 121.2 5.7 1.9.2 1.9-2.8 0-3-40.3-3.3-80.7-5.2-121.2-5.7-2 0-2 3 0 3zM292.2 412.1c44.8 2.1 89.6 4.3 134.4 6.4 1.9.1 1.9-2.9 0-3-44.8-2.1-89.6-4.3-134.4-6.4-1.9-.1-1.9 2.9 0 3z"/><path class="st2" d="M329.2 371.3c-8.5 20.2-16.6 40.5-24.1 61.1-.7 1.8 2.2 2.6 2.9.8 7.5-20.3 15.4-40.4 23.8-60.3.7-1.8-1.9-3.4-2.6-1.6zM363.1 374.8c-9.9 20-18.1 40.6-25.2 61.6-.6 1.8 2.3 2.6 2.9.8 7-20.8 15.1-41.2 24.9-60.9.9-1.7-1.7-3.2-2.6-1.5zM401.1 377.2a212.33 212.33 0 00-25.2 59.7c-.5 1.9 2.4 2.7 2.9.8 5.2-20.9 13.6-40.7 24.9-59 1-1.6-1.6-3.1-2.6-1.5zM431.1 378.6c-9.4 18.2-17.4 37.1-24 56.6-.6 1.8 2.3 2.6 2.9.8 6.5-19.2 14.4-37.8 23.7-55.8.8-1.8-1.7-3.3-2.6-1.6zM300.1 396.2c4.4 2 8.1 4.7 11.4 8.2 1.3 1.4 3.4-.7 2.1-2.1-3.4-3.7-7.4-6.6-12-8.7-1.8-.7-3.3 1.8-1.5 2.6z"/><path class="st2" d="M313.7 391.1c-6.4 3.8-12 8.6-16.7 14.3-1.2 1.5.9 3.6 2.1 2.1 4.6-5.6 9.9-10.2 16.1-13.8 1.7-1 .2-3.6-1.5-2.6zM353.8 422.5c5.6 3.3 10.4 7.4 14.6 12.3 1.2 1.5 3.4-.7 2.1-2.1-4.3-5.1-9.4-9.4-15.2-12.8-1.6-1-3.1 1.6-1.5 2.6z"/><path class="st2" d="M370.8 418.3c-6.4 4.8-12.3 10.2-17.7 16.1-1.3 1.4.8 3.6 2.1 2.1 5.2-5.8 10.9-11 17.1-15.7 1.5-1 0-3.6-1.5-2.5zM325.9 391.7c5.2 4.8 10.4 9.5 15.6 14.3 1.4 1.3 3.5-.8 2.1-2.1-5.2-4.8-10.4-9.5-15.6-14.3-1.4-1.4-3.5.7-2.1 2.1z"/><path class="st2" d="M343 389.3c-7.3 4.2-13.7 9.6-18.9 16.2-1.2 1.5.9 3.6 2.1 2.1 5.1-6.4 11.2-11.6 18.3-15.7 1.7-1 .1-3.6-1.5-2.6zM363.7 411.7c-7.2-3.9-8.2-13.6-1.3-18.6 5.2-3.7 15.8-6.8 19.8 0 3.5 6.1-.7 13.5-5.7 17.2-7.8 5.7-13.3-.6-16.9-7.1-.9-1.7-3.5-.2-2.6 1.5 4.6 8.3 12 14.8 21.2 8.1 6.8-4.9 11.5-15.3 5.7-22.7-6-7.6-19.7-3.6-25.5 2.4-6.5 6.8-4.1 17.3 3.8 21.6 1.7 1.1 3.2-1.5 1.5-2.4zM321.3 311.8c-1.9 6.9-2.5 13.9-1.5 21.1.2 1.9 3.3 1.9 3 0-.9-6.9-.5-13.6 1.4-20.3.5-1.8-2.4-2.6-2.9-.8z"/><path class="st2" d="M323.2 313.6c37.6-4.2 75.5-5.2 113.3-2.9l-1.5-1.5c.5 5.9.4 11.7-.6 17.5-.3 1.9 2.6 2.7 2.9.8 1-6.1 1.3-12.1.7-18.3-.1-.8-.6-1.4-1.5-1.5-37.8-2.3-75.7-1.3-113.3 2.9-1.9.2-1.9 3.2 0 3z"/><path class="st2" d="M326.1 331.9l108-2.4c1.9 0 1.9-3 0-3l-108 2.4c-1.9.1-1.9 3.1 0 3z"/><path class="st3" d="M929.3 922.7h168.5c5.8 0 5.8-9 0-9H929.3c-5.8 0-5.8 9 0 9zM1118.2 922.7h36.2c5.8 0 5.8-9 0-9h-36.2c-5.8 0-5.8 9 0 9zM1190.7 916.4h22c5.8 0 5.8-9 0-9h-22c-5.8 0-5.8 9 0 9zM1119.8 998.3h201.6c5.8 0 5.8-9 0-9h-201.6c-5.8 0-5.8 9 0 9zM1334 998.3h50.4c5.8 0 5.8-9 0-9H1334c-5.8 0-5.8 9 0 9zM1415.9 996.8h74c5.8 0 5.8-9 0-9h-74c-5.8 0-5.8 9 0 9zM1519.8 992h15.7c5.8 0 5.8-9 0-9h-15.7c-5.8 0-5.8 9 0 9zM152.2 1017.5c81-2 162-3.5 243-4.4 23.2-.3 46.5-.5 69.7-.7 1.9 0 1.9-3 0-3-81 .6-162 1.8-243 3.5-23.2.5-46.5 1-69.7 1.6-2 .1-2 3.1 0 3zM370.9 1034.2c61.4-2.6 122.9-2.2 184.2 1.2 1.9.1 1.9-2.9 0-3-61.3-3.4-122.8-3.8-184.2-1.2-2 .1-2 3.1 0 3z"/><path class="st2" d="M1341.7 909.3c-3.9 9.2-9 17.7-15.3 25.5-1.2 1.5.9 3.6 2.1 2.1 6.7-8.2 12-17.1 16.1-26.8.7-1.8-2.2-2.6-2.9-.8zM1360.6 907.1c-7.9 17.5-19.2 33.2-33.3 46.3-1.4 1.3.7 3.4 2.1 2.1 14.3-13.2 25.7-29.1 33.8-46.9.8-1.7-1.8-3.2-2.6-1.5zM1380.2 908.1c-12.5 25.4-30.4 47.6-52.7 65.1-1.5 1.2.6 3.3 2.1 2.1 22.4-17.7 40.5-40.2 53.1-65.8.9-1.6-1.7-3.1-2.5-1.4zM1398.5 908.9c-13.6 24.7-30.5 47.2-50.5 67.1-1.4 1.4.8 3.5 2.1 2.1 20.1-20 37.3-42.8 50.9-67.7 1.1-1.7-1.5-3.2-2.5-1.5zM1414.8 908.2c-13 25.2-29.1 48.6-48.2 69.6-1.3 1.4.8 3.6 2.1 2.1 19.2-21.2 35.6-44.7 48.7-70.2.9-1.7-1.7-3.2-2.6-1.5zM1428 908.3c-11.9 25.4-27.4 49-46.1 69.9-1.3 1.4.8 3.6 2.1 2.1 18.9-21.2 34.6-44.9 46.6-70.6.9-1.6-1.7-3.2-2.6-1.4zM1429.6 927.7c-9.3 18.6-20.7 36-34 52-1.2 1.5.9 3.6 2.1 2.1 13.5-16.2 25.1-33.8 34.5-52.6.9-1.7-1.7-3.2-2.6-1.5zM555.8 68.7v50.9c0 1.9 3 1.9 3 0V68.7c0-2-3-2-3 0z"/><path class="st2" d="M501.2 122.4h150.2c1.9 0 1.9-3 0-3H501.2c-2 0-2 3 0 3zM606.8 126.1v47c0 1.9 3 1.9 3 0v-47c0-1.9-3-1.9-3 0zM528.6 178.6h146.3c1.9 0 1.9-3 0-3H528.6c-1.9 0-1.9 3 0 3z"/><path class="st2" d="M525.8 179.7V215c0 1.9 3 1.9 3 0v-35.3c0-1.9-3-2-3 0zM1251.4 596.1h90.8c1.9 0 1.9-3 0-3h-90.8c-2 0-2 3 0 3z"/><path class="st2" d="M1299.4 597.3v35.8c0 1.9 3 1.9 3 0v-35.8c0-1.9-3-1.9-3 0z"/><path class="st2" d="M1244.5 634.6h104.6c1.9 0 1.9-3 0-3h-104.6c-1.9 0-1.9 3 0 3z"/><path class="st2" d="M1271.9 634.5v30.3c0 1.9 3 1.9 3 0v-30.3c0-2-3-2-3 0zM1337.9 635.8v30.3c0 1.9 3 1.9 3 0v-30.3c0-1.9-3-1.9-3 0zM361.3 923.9h136.2c1.9 0 1.9-3 0-3H361.3c-2 0-2 3 0 3zM152.2 925.8H238c1.9 0 1.9-3 0-3h-85.8c-2 0-2 3 0 3zM332.7 688.4h136.2c1.9 0 1.9-3 0-3H332.7c-2 0-2 3 0 3z"/><path class="st2" d="M408.8 689.6v31.3c0 1.9 3 1.9 3 0v-31.3c0-1.9-3-1.9-3 0z"/><path class="st2" d="M383.1 722.4h106.2c1.9 0 1.9-3 0-3H383.1c-2 0-2 3 0 3z"/><path class="st2" d="M463.3 723.6v34c0 1.9 3 1.9 3 0v-34c0-1.9-3-1.9-3 0zM1198 934.6h115.4c1.9 0 1.9-3 0-3H1198c-2 0-2 3 0 3zM1445 923.7h122.6c1.9 0 1.9-3 0-3H1445c-1.9 0-1.9 3 0 3zM1052.2 639.2v57.7c0 1.9 3 1.9 3 0v-57.7c0-2-3-2-3 0z"/><path class="st2" d="M1055.5 667.7h54.1c1.9 0 1.9-3 0-3h-54.1c-1.9 0-1.9 3 0 3z"/><path class="st2" d="M1106.3 646.4v54.1c0 1.9 3 1.9 3 0v-54.1c0-2-3-2-3 0zM1071.8 705.6h84.7c1.9 0 1.9-3 0-3h-84.7c-2 0-2 3 0 3zM1129.8 709.5V751c0 1.9 3 1.9 3 0v-41.5c0-2-3-2-3 0zM901.6 144.8v93.9c0 1.9 3 1.9 3 0v-93.9c0-1.9-3-1.9-3 0z"/><path class="st2" d="M904.7 144.6h147.5c1.9 0 1.9-3 0-3H904.7c-1.9 0-1.9 3 0 3z"/><path class="st2" d="M1050.9 144.3v92.9c0 1.9 3 1.9 3 0v-92.9c0-1.9-3-1.9-3 0z"/><path class="st2" d="M904.4 241.2h149.2c1.9 0 1.9-3 0-3H904.4c-1.9 0-1.9 3 0 3zM968.5 141.5c-.5-2.7-.6-5.4-.1-8.1.5-2.4 1.7-7.2 4.5-4.2 1.4 1.5 1.5 4.8 1.9 6.7.5 2.5 1 5.1 1.5 7.6.4 1.9 3.3 1.1 2.9-.8-.9-4.4-1.3-9.3-3-13.5-.9-2.2-2.6-4.8-5.3-4.7-3 .1-4.2 3.3-4.9 5.8-1.2 3.9-1.2 7.9-.4 11.8.3 2.1 3.2 1.3 2.9-.6zM910.3 155.6v72.9c0 1.9 3 1.9 3 0v-72.9c0-2-3-2-3 0z"/><path class="st2" d="M912.6 155.4h129.5c1.9 0 1.9-3 0-3H912.6c-1.9 0-1.9 3 0 3z"/><path class="st2" d="M1042.3 153.1v77.7c0 1.9 3 1.9 3 0v-77.7c0-1.9-3-1.9-3 0z"/><path class="st2" d="M914.2 230.7h128.7c1.9 0 1.9-3 0-3H914.2c-1.9 0-1.9 3 0 3zM912.5 204.6c19.6-5.3 39.2-9.9 59.3-4.2 16.6 4.8 31.8 13.7 49 16.6 1.9.3 2.7-2.6.8-2.9-18.3-3.1-34.3-13-52.2-17.4-19.5-4.8-38.8-.1-57.6 5-2 .5-1.2 3.4.7 2.9z"/><path class="st2" d="M981.3 204.4c18.5-2.1 36.9-9.4 55.6-5.5 1.9.4 2.7-2.5.8-2.9-19.1-4-37.6 3.2-56.4 5.3-1.9.3-1.9 3.4 0 3.1zM984.5 183.1c-2.3-2.2-2.5-6.1-.1-8.3 2.6-2.5 7.3-1.8 9.3 1.1 2.1 2.9 1.6 7.3-1.1 9.6-3.3 2.8-7.7.6-10-2.3-1.1-1.5-3.8 0-2.6 1.5 3.2 4.3 9.1 7.1 13.9 3.6 4.5-3.3 5.2-10.2 1.8-14.5-3-3.8-9.2-4.6-13-1.5-4 3.2-4.1 9.6-.4 13.1 1.5 1.1 3.6-1 2.2-2.3z"/></g><g id="feet"><path class="st18" d="M1103.6 850.3c3.2-6.6 8.5-14.7 17.1-17.1 13.2-3.7 22.6 9.5 42.3 19.1 35.6 17.4 66.6 4.4 69.5 14.1 2.3 7.7-16.2 20.2-28.2 26.2-24.1 12-69.6 21.7-90.6-4-3.1-3.8-11.7-15.7-10.1-38.3z"/><path class="st18" d="M1076.4 863.3c-4.3-4.1-6.2-9.3-7-13.1 7.5-25.1 23.1-44.2 41.3-46.3 11.7-1.3 23.2 4.5 32.2 9.1 14.7 7.4 15 12.3 29.2 21.1 23.9 14.9 40.9 12.2 42.3 20.1 1.3 7.4-12.1 17.6-25.2 22.2-26.3 9.2-34.6-9.9-75.5-8.1-14.5.7-28 3.8-37.3-5z"/></g><g id="legs"><path d="M896 700.1c2 12.4 5.1 32.5 8.3 57.3 12.2 93.2 7.3 106.8 21.9 126.2 33.7 44.8 108.8 37.2 114.7 36.5 42.8-4.9 71.8-27.4 83.4-37.5-6.6-11.5-13.2-22.9-19.8-34.4-33 .3-66 .7-99.1 1 7.1-25.6 15.4-68.6 8.3-120.9-5.4-40-17.8-71.6-28.2-92.8-27.2 2-58.6 6.5-92.8 15.6-16.5 4.4-31.8 9.4-45.9 14.6-.7 18.9-1.6 45.8-2.1 78.2-1.7 122.6 5.3 147.8 22.9 160.6 8.6 6.2 23.6 6.7 53.2 7.3 51.5 1.1 95.1-12.4 146-28.2 11.5-3.6 20.8-6.7 26.5-8.6-2.9-22.9-5.9-45.7-8.8-68.6-20.3 5.5-41.5 10.7-63.5 15.7-21.1 4.7-41.6 8.9-61.5 12.5" fill="#5222d0"/><path class="st20" d="M885.1 715.9c10.4 3.9 12.2 17 13.2 26.6 1.4 12.9 2.2 25.8 3 38.8 1.6 25.3 3.3 50.7 9.6 75.3.5 1.9 3.4 1.1 2.9-.8-7.2-28.1-8.3-57.1-10.2-85.8-.8-12.3-1.1-25-3.7-37.1-1.8-8.4-5.5-16.6-14-19.8-1.8-.7-2.6 2.2-.8 2.8zM932.6 888.9c7.7 6.7 15.2 14.5 23.8 20.2 8.3 5.5 18.3 7.5 28 9.3 1.9.4 2.7-2.5.8-2.9-9.4-1.8-19.1-3.6-27.3-9-8.3-5.5-15.6-13.1-23.2-19.7-1.4-1.3-3.6.9-2.1 2.1zM1007.1 838.9c10.9.2 21.5 2.2 31.7 5.9 1.8.7 2.6-2.2.8-2.9-10.5-3.8-21.4-5.8-32.5-6-2-.1-2 2.9 0 3z"/><path d="M846.1 734.2c.6-9.3 7-17.6 15.6-21.4 9-3.9 20.2-1.3 27.1 4.2 12 9.4 11 27.1 11.5 48.5.9 39.1 2 86 25 117.3 5.3 7.2 14.9 17.9 32.3 27.1-9 4.3-25.1 10.5-45.4 9.4-8.8-.5-32.5-2-49.5-19.3-8.3-8.4-15.5-21.2-17.7-82.9-.7-21.1-.9-49.4 1.1-82.9z" opacity=".58" fill="#474747"/><path d="M1009.7 825.4l74.7-19.2c1.5 13.8 2.9 27.7 4.4 41.5-11.3-3.1-24.1-6-38-8.3-16.1-2.6-30.9-3.9-44.1-4.4l3-9.6z" opacity=".59" fill="#474747"/></g><g id="torso"><path class="st23" d="M853 418c-.3-7 .5-14.7 5.1-17.3 16.5-9.2 76.8 50.1 106.4 115.8 11.6 25.8 25.8 68.9 22.7 128-45.8 8.4-91.5 16.9-137.3 25.3-7.8-13.1-21-33-41.3-54-20.3-21-28-22.6-36.7-37.9-18.6-32.8-8.6-70.1-6.1-79.5 3.3-12.2 10.5-38.4 35.5-58.7 20.1-16.4 41.7-20.5 51.7-21.7z"/><path d="M851.3 434c11.9 8.2 53.4 38.7 70.2 97 18.3 63.8-6 115.9-12 127.8 26.2-4.4 52.5-8.7 78.7-13.1 1.6-25.4 1-70.2-18.8-120.9-24.8-63.4-66.4-101.3-87-117.8-10.4 9-20.7 18-31.1 27z" opacity=".36" fill="#828181"/><path d="M956.3 502.8c1.7 9.7 3.7 23.9 4.5 41.3 1.4 30.7 2.5 52.6-8.3 75-4.2 8.8-13.5 24.4-33.7 38.6 22.9-4.2 45.7-8.3 68.6-12.5 1.1-20.9.2-50.1-8.3-83.4-6.3-23.9-14.8-43.8-22.8-59z" opacity=".4" fill="#828181"/></g><g id="head"><path class="st8" d="M658.7 409.7c7 10.2 13.3 18.6 18.4 25 12.5 15.9 17.3 20 24 21.4 5.7 1.2 11.1.2 14.3-.5 8.9-1.8 12.5-5.4 18.4-8.2 7.8-3.6 10.9-1.8 36.2-1.5 18.3.2 16.3-.8 32.7-.5 14.4.3 26.3 1.2 34.7 2-2.4-1.9-4.8-3.7-7.1-5.6-3.3-.9-12.9-3.9-20.4-13.3-6.2-7.8-7.7-15.8-8.2-19.4 2.1-.6 5.8-2.1 8.2-5.6 5-7.4-.2-17.5-2-20.9-2.2-4.2-6.2-11.8-11.7-11.2-4.1.4-8 5.2-9.2 11.7-9.4 3-23.6 5.8-38.3 1-27.7-9.1-33.4-37.9-48.5-38.3-9.8-.1-23.7 11.3-41.5 63.9z"/><path class="st3" d="M656 405.1c7.9 18.1 19.9 34.1 35 46.8 1.5 1.2 3.6-.9 2.1-2.1-15-12.6-26.7-28.3-34.6-46.2-.7-1.7-3.3-.2-2.5 1.5zM704 426.7c.9 5.1 2 10.1 3.3 15.1 1.2 4.3 2.1 9.5 4.3 13.4 3.1 5.5 13-1.3 16.2-3.8 1.5-1.2-.6-3.3-2.1-2.1-2.2 1.7-6.6 5.1-9.6 4.7-3.3-.4-4.1-6.9-4.9-9.4-1.8-6.1-3.2-12.3-4.3-18.6-.4-2-3.3-1.2-2.9.7zM690.3 427.3c-3.8-3.2-8.7-7.3-6.9-12.9-.8.2-1.7.4-2.5.7 3.9 3.8 6.9 8.3 8.8 13.4.3-.6.7-1.2 1-1.8-.6-.5-1.3-1-1.9-1.4-.5-1.9-3.4-1.1-2.9.8.7 2.7 2.9 3.9 5.6 3.5.8-.1 1.3-1.2 1-1.8-2.1-5.6-5.3-10.5-9.6-14.7-.8-.8-2.2-.4-2.5.7-2.1 6.7 2.9 11.9 7.7 15.8 1.5 1 3.7-1.1 2.2-2.3z"/><path class="st3" d="M680.9 416.2l7.2 11.1c1 1.6 3.6.1 2.6-1.5l-7.2-11.1c-1-1.7-3.6-.2-2.6 1.5zM726.1 412c-1.8-2.1-3.7-4.5-4.6-7.2-.3-.8-.4-1.7-.4-2.5.2-1.3.5-1.4 1.1-.4 1 .4 1.9 2.3 2.5 3.2 1.4 2.1 2.7 4.4 3.4 6.7.4 1.3.9 1.5-.5.9-1.3-.6-2.5-2-3.4-3-1.3-1.5-3.4.7-2.1 2.1 1.6 1.8 6.8 7.1 8.9 3 1.9-3.7-2.8-10.2-4.9-12.9-1.8-2.3-6.1-6.9-7.8-1.8-1.7 5.1 2.6 10.4 5.6 13.9 1.3 1.6 3.4-.5 2.2-2z"/><path class="st3" d="M719.5 402.4l6.9 11.1c1 1.6 3.6.1 2.6-1.5-2.1-3.4-3.9-6.8-5.6-10.4l-2.4 1.8c2.3 2.2 4 4.8 5.1 7.8.7 1.8 3.6 1 2.9-.8-1.3-3.5-3.2-6.5-5.9-9.1-1.3-1.2-3.1.3-2.4 1.8 1.7 3.6 3.5 7.1 5.6 10.4.9-.5 1.7-1 2.6-1.5l-6.9-11.1c-.9-1.6-3.5-.1-2.5 1.5zM799.6 418.3c3.1 8.2 2.8 16.8-1.2 24.6-.9 1.7 1.7 3.2 2.6 1.5 4.3-8.5 4.9-18 1.5-26.9-.7-1.7-3.6-1-2.9.8z"/><path d="M644 345.1c-1.6 2.2-16.1 22.5-8.4 48 7.6 25.2 30.3 34.2 32.9 35.2-1.1-6.2-2.9-21.5 4.5-38.5 8.8-20.5 25-30.1 30.2-32.9 3.3 4.8 15.8 21.8 39.6 28.5 21.3 5.9 38.9 0 44.7-2.2 1.1-1.8 5.3-8 10.6-7.8 7.6.3 15.1 14.1 10.6 23.5-2.8 5.9-9.4 7.9-11.2 8.4 1.1 4.3 3.4 10.8 8.4 17.3 8.4 11.1 19.4 15.4 25.7 17.9 6.2 2.4 56.9 21.7 87.1-10.1 16.3-17.1 24.1-46.4 13.4-66.5-8.7-16.2-24-16.3-65.3-34.6-49.5-22-42.7-28.7-72-38-15.3-4.9-71.6-22.8-115.6 7.8-20.1 13.9-30.3 32.7-35.2 44z" fill="#ec615b"/></g><g id="hand_l"><path class="st23" d="M622.2 514.9c-.4-5.8-.6-22.5 10.3-37.8 16.7-23.4 45.5-23.9 50.4-24 8.7-.2 20.2 1.3 46.8 15.9 17.3 9.5 41 24.4 66.3 47.7 6.4.4 17 1.8 27.9 8.1 11.6 6.6 33.1 24 28.5 42.7-2.6 10.6-13.3 20.9-23.5 20.4-16.4-.8-27-29-30.4-27.3-2.7 1.3 5.5 18.1 1.9 20.4-3.3 2.1-16.3-8-22.3-21.7-4.9-11-4.1-21.4-3.1-27.3-24-11.3-63.6-25.5-112.6-23-15 .9-28.4 3.1-40.2 5.9z"/><path d="M622.4 512.9c3.6-19.4 12.1-28.3 17-32.2 30.7-24.8 88.9 5.1 106.2 13.9 20.4 10.4 35.7 23.1 43.1 29.6 14.8 13.1 11.1 13.9 31.3 33.1 13.9 13.2 23.8 20.7 21.8 26.1-1.7 4.4-10.1 4.8-10.9 4.8-19.5.7-32.9-29.5-33.5-30.9 4.8 17.5 3.9 22.8 1.7 23.9-4.2 2.2-16.6-9.4-21.8-23.1-4.1-10.8-2.9-20.9-1.7-26.6-14.9-6.7-33.8-13.4-56.1-17.8-40.1-7.8-74.3-4.8-97.1-.8z" opacity=".34" fill="#828181"/></g><g id="sand_clock"><path class="st23" d="M540 523.1c-3.2 17.1-7.2 53.2 9.1 92.6 30.6 74.1 106.5 95.9 116.7 98.6.3 11.7.7 23.5 1 35.2-18.6 8.8-46.1 24.2-73.5 50.3-20.3 19.4-55.7 54-69.4 110.7-8.4 34.7-5.9 66-1 89.6l362.3 6c3.9-22.8 8.2-68.2-11.1-118.7-34.5-90.3-117-125.4-132.8-131.8-.3-15.8-.7-31.5-1-47.3 15.5-3.4 51.4-13.4 81.5-45.3 50.2-53.1 42.6-122.6 41.3-132.8-107.8-2.4-215.5-4.7-323.1-7.1z"/><path class="st3" d="M559.3 634.2c9.9 5.4 20.5 9.5 31.8 11.1 8.2 1.1 16 .4 24.2-.5 10.4-1.2 20.7-2.1 31-3.9 10.5-1.8 20.5-4.9 30.9-7.2 2.8-.6 5.4-.9 8.2-.3 5.5 1.1 8.7 4.5 12.9 7.7 5.8 4.4 13.3 4.1 19.3.5 3.2-2 6.1-4.5 9.3-6.4 4.7-2.8 9.9-4.2 15.4-4.6 5.9-.4 11.9 0 17.7 1.1 6.9 1.3 13 4.1 19.6 6.2 13 4.2 17-9.7 27.1-14.4 12.1-5.7 28.8-5.1 41.5-2.4 1.9.4 2.7-2.5.8-2.9-11-2.4-21.8-2.3-32.9-.4-4.7.8-9.2 1.9-13.3 4.4-4.7 2.9-7.4 7.3-11.4 10.9-5.8 5.2-12.5 1.2-18.6-1.1-5.5-2-11.3-3.3-17.2-4-9.8-1.2-20.2-.8-29.1 4-7.3 4-13.6 12-22.8 8.6-4-1.5-6.5-5.2-10.1-7.3-2.9-1.8-6.4-2.9-9.8-3.2-6.5-.5-13.2 2.3-19.5 3.9-11.9 3-24.1 5-36.4 6.3-9.6 1-19.5 2.8-29.2 2.5-13.4-.4-26.2-4.9-37.8-11.3-1.8-.9-3.3 1.7-1.6 2.7zM667.3 737.5c1.6 3.8 3.2 7.8 5.9 11 1.7 2.1 4.3 3.7 5.4 6.4 1.1 2.8 1.1 6.5 1.5 9.5 1.3 10.3 2.7 20.6 7 30.2.8 1.8 3.4.2 2.6-1.5-4.7-10.3-5.6-21.5-7.1-32.6-.5-3.6-.7-7.3-3.3-10.1-4-4.4-6.7-8-9.1-13.7-.7-1.8-3.6-1-2.9.8zM732.7 746.2c-4.4-3.4-7.8 2.9-9.4 6.3-1.6 3.2-2.8 6.5-3.6 9.9-.9 3.9-.7 8.4-2.5 12-1.7 3.7-4.5 6.8-6.1 10.6-1.5 3.4-2.6 7-3.6 10.6-2.3 9-3.6 18.3-5.2 27.4-.3 1.9 2.6 2.7 2.9.8 2.4-13.7 3.6-29 10.5-41.3 1.6-2.8 3.7-5.2 4.8-8.2.8-2.1.9-4.3 1.2-6.4.3-2.2 5.9-21.9 8.9-19.6 1.4 1.2 3.6-.9 2.1-2.1zM700.6 864c-.9-1.6-1.8-3.5-1.4-5.3.6-2.8 3.7-3.2 4.7-.5 1.2 3.2-.7 6.9-2.9 9 .6-.1 1.2-.2 1.8-.2-1.2-.9-2.4-1.8-3.5-2.6-1.6-1.2-3 1.5-1.5 2.6 1.2.9 2.4 1.8 3.5 2.6.5.4 1.4.2 1.8-.2 3.6-3.5 6.9-12.9.6-15.7-2.5-1.1-5.3.2-6.7 2.5-1.8 3-.6 6.6 1 9.4.9 1.6 3.5.1 2.6-1.6zM692.7 898.4c-.7-1.4-1.8-3.3-1.5-5 .2-1 1.5-2.4 2.5-1.5 1 .8 1.1 3.2.8 4.3-.3 1-2 2.7-2.9 1.4-1.1-1.5-3.7 0-2.6 1.5 1.6 2.3 4.9 2.5 7 .5 2.3-2.2 2.1-6.6.4-9.1-1.7-2.5-5-2.1-6.8 0-2.6 2.8-1 6.7.5 9.6.9 1.5 3.5 0 2.6-1.7zM707.2 910.3c-1.3-1 0-4.3 1.8-3.3.8.4 1.3 1.6 1.1 2.5-.3 1.3-2 1.1-2.7.4-1.4-1.4-3.5.8-2.1 2.1 2.1 2 6 2 7.4-.8 1.1-2.3.1-5.2-1.9-6.6-2.2-1.5-5-.6-6.3 1.7-1.3 2.3-.9 5.1 1.3 6.6 1.4 1.1 2.9-1.5 1.4-2.6zM608.9 1001.8l24.9-20.1c4-3.2 7.8-6.6 12.1-9.4 4.3-2.8 9-4.1 13.8-5.9 15-5.8 28.2-30.7 45.4-15.1 5.6 5 10.2 9.4 17.5 11.8 8.3 2.7 16.5 4.3 24.4 8.2 15.2 7.5 27.6 19.6 35.9 34.3.9 1.7 3.5.2 2.6-1.5a86.78 86.78 0 00-26-28.9c-5.2-3.7-10.9-6.8-16.8-9.2-6.8-2.8-13.9-3.9-20.8-6.4-12.4-4.5-18.8-20.3-33.9-15.7-6.1 1.9-11 6-15.7 10.2-2.8 2.5-5.6 5-8.8 7-4.1 2.6-8.8 3.5-13.2 5.4-7 3-12.8 8.3-18.7 13l-24.9 20.1c-1.4 1.3.7 3.4 2.2 2.2z"/><path class="st3" d="M738.5 730.8c-1.1 8.1-2.3 16.1-3.4 24.2-1 7.3-1.1 15.9-4.4 22.7.7-.2 1.4-.4 2.1-.5-2.8-1.9-.9-11.3-.9-14.1l.3-14.6c0-1.9-3-1.9-3 0-.2 7.1-.3 14.2-.5 21.4-.1 3.6-.8 7.6 2.5 9.9.6.4 1.7.2 2.1-.5 3.2-6.6 3.5-14.3 4.5-21.5 1.2-8.7 2.5-17.4 3.7-26.1.1-2-2.8-2.8-3-.9zM665.9 718.1c-1.6 8.5-.4 16.7 3.4 24.4.9 1.7 3.4.2 2.6-1.5-3.4-7-4.5-14.5-3.1-22.1.3-1.9-2.6-2.7-2.9-.8zM610.9 675.7c18.2 13.3 40.7 18.4 59.7 30.1 1.6 1 3.2-1.6 1.5-2.6-19.1-11.7-41.6-16.8-59.7-30.1-1.6-1.2-3.1 1.4-1.5 2.6zM669.2 691.2c9 5.5 15.3 13.9 18 24.2.5 1.9 3.4 1.1 2.9-.8-2.8-11-9.6-20.1-19.3-26-1.7-1-3.2 1.6-1.6 2.6zM721.1 729c4.8-13.2 11.1-26.5 22.8-34.9 1.6-1.1.1-3.7-1.5-2.6-12.4 9-19.1 22.6-24.2 36.7-.6 1.9 2.3 2.6 2.9.8zM630.9 994.8c10.2-11.2 23.3-18.9 38-22.5 1.9-.4 1.1-3.3-.8-2.9-15.2 3.6-28.8 11.7-39.3 23.2-1.3 1.6.8 3.7 2.1 2.2zM653.9 985.4l21.6-9.6c1.8-.8.2-3.4-1.5-2.6l-21.6 9.6c-1.7.8-.2 3.4 1.5 2.6zM713.6 948.1c8.8 8.1 23 5.3 31.1 14.1 1.3 1.4 3.4-.7 2.1-2.1-8.3-9-22.3-6.1-31.1-14.1-1.4-1.4-3.5.8-2.1 2.1z"/><path class="st3" d="M523 1010.7h363.5c11.6 0 11.6-18 0-18H523c-11.6 0-11.6 18 0 18zM537.2 529.3h327.5c11.6 0 11.6-18 0-18H537.2c-11.6 0-11.6 18 0 18zM512.8 511.3h-21c-11.6 0-11.6 18 0 18h21c11.6 0 11.6-18 0-18zM452.5 527.3h8.1c4.7 0 9.2-4.1 9-9-.2-4.9-4-9-9-9h-8.1c-4.7 0-9.2 4.1-9 9 .2 4.8 3.9 9 9 9z"/><path class="st3" d="M907.4 1009.4h42.7c11.6 0 11.6-18 0-18h-42.7c-11.6 0-11.6 18 0 18zM980.7 1011.4h7.5c4.7 0 9.2-4.1 9-9-.2-4.9-4-9-9-9h-7.5c-4.7 0-9.2 4.1-9 9 .2 4.9 3.9 9 9 9zM665.8 715c-.7 6.9-1.3 13.9.1 20.7 1.5 7.2 6 12.3 9.3 18.7 3.8 7.2 4.9 15.9 6.7 23.7l5.7 24.9c.9 3.8 6.6 2.2 5.8-1.6-1.8-8-3.7-16-5.5-24-1.7-7.4-2.9-15.2-5.7-22.2-2.5-6.3-7.6-11.4-9.7-17.9-2.3-7.2-1.4-15-.7-22.3.4-3.8-5.6-3.8-6 0z"/><path class="st3" d="M652.2 712c5.5 2.6 11.1 3.4 17.1 2.4 3.8-.6 2.2-6.4-1.6-5.8-4.3.7-8.6.1-12.5-1.8-3.5-1.7-6.5 3.5-3 5.2zM726.3 746.5c-4.8 3.4-7.2 8.3-8.3 13.9-.8 3.8-1 7.7-2.1 11.5s-2.9 7.3-4.7 10.9c-6.7 13.5-13.4 27.8-11.5 43.2.5 3.8 6.5 3.8 6 0-1.8-14.5 4.4-27.6 10.7-40.2 2.7-5.4 5.2-10.7 6.2-16.6 1.1-6.1 1.2-13.6 6.7-17.5 3.2-2.3.2-7.5-3-5.2zM667.9 880.5c3.9 0 3.9-6 0-6-3.8 0-3.8 6 0 6zM657.1 930c3.9 0 3.9-6 0-6s-3.9 6 0 6zM688 815.3c.3 2 .6 4.1.9 6.1.2 1.6 2.3 2.5 3.7 2.1 1.7-.5 2.3-2.1 2.1-3.7-.3-2-.6-4.1-.9-6.1-.2-1.6-2.3-2.5-3.7-2.1-1.7.5-2.3 2.1-2.1 3.7zM703.6 840.9v.7c0 1.6 1.4 3.1 3 3 1.6-.1 3-1.3 3-3v-.7c0-1.6-1.4-3.1-3-3-1.6.1-3 1.3-3 3zM786.1 639.8c9.6-3.6 17.2-10.6 26.4-14.9 11.3-5.2 23.2 1.1 34.4-3.2 3.6-1.4 2-7.2-1.6-5.8-6.1 2.3-12.3 1-18.7.6-5.3-.4-10.3.3-15.2 2.3-9.6 3.9-17.3 11.5-27 15.2-3.4 1.4-1.9 7.2 1.7 5.8zM804.4 816.9c-9.1 3.9-1.4 13.5 2.8 17.7 8.6 8.6 16.3 18.1 23 28.2 13.1 19.7 22.2 41.8 27.1 64.9.4 1.9 3.3 1.1 2.9-.8-4.2-19.6-11.4-38.5-21.4-55.9-4.8-8.4-10.3-16.4-16.4-23.9-3.1-3.8-6.3-7.5-9.7-11.1-3-3.1-15-13-6.8-16.5 1.8-.8.2-3.4-1.5-2.6zM815.5 824.6c30.3 25.2 42.6 63.7 53.7 100.1.6 1.8 3.5 1.1 2.9-.8-11.3-36.9-23.8-75.9-54.5-101.5-1.5-1.2-3.6.9-2.1 2.2zM858.6 937.7c1.9 2.7 4.2 5.9 7.8 6.2 2.8.2 5.8-1.4 6.2-4.4.3-1.9-2.6-2.7-2.9-.8-.3 1.9-2.3 2.6-4 2-2-.7-3.4-2.8-4.5-4.5-1.1-1.6-3.7-.1-2.6 1.5zM864.5 979.9c4.5 2 10.1.6 12.5-3.9 2.3-4.3.5-10.2-3.7-12.6-4.3-2.4-10.2-.7-12.7 3.5-2.5 4.4-.7 10 3.3 12.7 1.6 1.1 3.1-1.5 1.5-2.6-2.7-1.8-3.9-5.7-2.2-8.6 1.6-2.8 5.7-4 8.6-2.4 2.9 1.5 4.1 5.6 2.6 8.5-1.5 3-5.5 4.1-8.4 2.8-1.7-.8-3.3 1.8-1.5 2.6zM558.2 544.6c1 46.3 20.3 91.2 53.3 123.6 1.4 1.4 3.5-.8 2.1-2.1-32.5-31.9-51.5-76-52.4-121.5-.1-1.9-3.1-1.9-3 0z"/><path class="st3" d="M561.4 543.3c-2.6-2.6-6.3-2.5-9.1-.2-3.7 3.1-3.3 8.7-2.9 13.1 1 13.1 3.6 26 7.5 38.5 7.8 24.8 20.9 47.8 38.2 67.1 1.3 1.4 3.4-.7 2.1-2.1-14.1-15.7-25.3-33.7-33-53.3-3.7-9.2-6.5-18.8-8.6-28.5-1.1-5.3-2-10.6-2.6-15.9-.3-2.5-.6-4.9-.7-7.4-.1-1.1-.2-2.2-.1-3.2.1-2.4 2.7-10.4 7.1-5.9 1.4 1.3 3.5-.9 2.1-2.2z"/><path d="M865.2 530.9c.1 3.2-86.1 8.4-258.5 15.8-3 13.6-5 32.2 0 52.8 16 66.5 88.2 92.1 95.4 94.5.9 25.6 1.9 51.3 2.8 76.9-7.7 2.9-17.8 7.3-28.9 14-7.1 4.3-24 15.3-39.7 33.2-8.9 10.2-37.5 43-39.8 92.7-1.4 29.5 7.1 53.3 13.9 67.6 81.2 4.6 162.5 9.3 243.7 13.9-110.6.9-221.1 1.9-331.7 2.8-3.5-22.3-6.8-65 11.1-113 3.3-8.7 30.7-78.9 103.8-118.6 11.6-6.3 21.7-10.4 28.7-13l-.9-37.1c-10.1-2.6-25.1-7.4-41.7-16.7-9.7-5.4-74.1-42.8-86.2-115.8-1.9-11.6-3.5-29.9.9-52.8 218-1.7 327-.8 327.1 2.8z" opacity=".25" fill="#474747"/><path d="M719.8 528.4c-51.9 7.3-103.8 14.6-155.7 21.8 1.4 17.3 6.8 53 31.3 89.2 30.3 44.7 71.4 63.1 87.3 69.3.9 19 1.9 38 2.8 57-33.9 6.6-56.2 20.4-68.4 29.4-8.1 6-81.3 59.6-73.1 136.7 1.4 13.3 6.2 36.1 24.6 61.3-15.8.2-31.5.4-47.3.5-3.2-24.5-6.1-75 20.1-127.1 20-39.6 48.6-63.9 65.2-77.7 22.3-18.5 43.6-30.5 59.2-38 .5-12.3 1.1-24.6 1.6-36.9-19.9-4.2-59.6-15.7-90.2-51.1-2.2-2.5-9.8-11.5-17.4-25-22.2-39.4-23.7-80.6-21.6-107.5 60.7-.7 121.2-1.3 181.6-1.9z" opacity=".3" fill="#474747"/></g><g id="hand_r"><path class="st23" d="M663.5 485.5c-31.3 22.8-55.4 50.9-53.1 53.7 1.1 1.4 7.2-.4 29.8-14.9-3.9 2.3-13.1 8.2-17.9 19.7-1.4 3.4-6 12.9-1.8 19.1 4.5 6.5 16.4 5.9 24.1 3.3 14.9-5 22-20.5 22.8-19.9 1.2.8-15.4 24.5-13 26.4 2.5 2.1 28.5-20 48.4-51 6.1-9.5 10.3-17.8 13.1-23.9 17.7.4 39.6 1.9 64.4 6 44.8 7.3 61.9 16.9 92.4 11.9 18.7-3 49-12.6 50.1-26.8 1.4-17.6-42.4-33.8-51.9-37.3-72.2-26.7-139.9-2-150.9 2.2-27.4 10.5-46.3 24.1-56.5 31.5z"/><path class="st3" d="M618 561.5c.5 1 .8 1.2 1.7 1.8.5.4 1.4.2 1.8-.2 9.9-11.8 18.5-25.5 32.6-32.8 1.7-.9.2-3.5-1.5-2.6-14.4 7.4-23.1 21.2-33.2 33.3.6-.1 1.2-.2 1.8-.2-.2-.3-.4-.5-.6-.8-.9-1.7-3.5-.2-2.6 1.5zM627.4 569.2c6.1 1.4 11.7-6.9 15.3-10.8 5.9-6.4 11.5-12.8 19.2-17.2 1.7-1 .2-3.5-1.5-2.6-5.8 3.3-10.5 7.7-15 12.5-2.3 2.5-4.5 5-6.9 7.5-2.2 2.4-6.8 8.5-10.3 7.7-1.9-.4-2.7 2.5-.8 2.9z"/><path d="M618.4 550.4c24-16.9 29.8-20.8 29.9-20.6.2.2-9.4 6-17.7 17.1-4.2 5.7-6.9 11.1-8.6 15.1.3.6 1.2 2.2 3 3.2 2.3 1.3 4.4 1 5.1.9.6-.3 1.5-.8 2.5-1.5 3.5-2.3 5.6-5 6.4-5.9.4-.5 6.7-8.4 9.6-11.5 2.6-2.8 7-6.4 14.2-9-5.9 9-11.9 18.1-17.8 27.1 6.1-3 10.1-6.4 12.6-9 2.5-2.5 3.3-4 7.8-9.6 4.2-5.2 7.3-8.5 8.5-9.9 10.5-12 26.2-40.6 36.2-50.2 21.4-20.7 55.9-3.8 124-3.3 34.4.3 62.9-4 82.5-7.9 1.7 1.2 4.9 3.9 6.1 8.3 0 0 1.5 5.5-2.3 12.4-4.2 7.8-25.2 21.8-69.9 20.6-36.5-1-47.6-11-96.5-16.5-16.4-1.8-29.9-2.3-38.5-2.5-8.1 19.2-17.4 33.3-24.7 42.8-16.1 21.1-34.3 35.8-37 33.8-.2-.1-.7-.6-1-1.5-.7-2 .8-4.3 1.6-5.5 1.5-2.4 3.4-5.6 5.8-10.2-1.6 2-4.2 4.7-8 7-10.3 6.3-27.1 8.3-32.8.1-.8-1-3.4-5.2-1-13.8z" opacity=".33" fill="#828181"/><path d="M729.5 497.6c.1-.9 23-.3 48.3 1 65.7 3.4 82.9 8.2 108.3-1 16-5.8 27.4-14.3 33.6-19.5 1.9 3.7 3.9 9.2 2.4 14.7-3.7 13.4-25.2 17.8-39.1 20.6-7.7 1.6-20.8 3.5-41.5 1.7-18.4-1.5-25.7-4.5-45.2-8.6-39-8.1-66.9-8-66.8-8.9z" opacity=".51" fill="#828181"/></g></svg>