<svg width="3338" height="1000" viewBox="0 0 3338 1000" fill="none" xmlns="http://www.w3.org/2000/svg"><g clip-path="url(#clip0)"><path fill-rule="evenodd" clip-rule="evenodd" d="M897.121 308.942c-20.466-41.408-47.935-80.232-82.407-114.704-169.683-169.683-444.793-169.683-614.476 0s-169.683 444.793 0 614.476c169.683 169.682 444.793 169.682 614.476 0 119.151-119.152 154.634-290.288 106.449-440.402L627.195 661.851c-11.517 11.5-30.172 11.5-41.688 0L391.131 467.76c-11.528-11.512-11.542-30.191-.03-41.72s30.19-11.542 41.719-.03l173.531 173.277 290.77-290.345z" fill="url(#paint0_linear)"/><path d="M1040.85 500.6c0-31.2 6.75-58.95 20.25-83.25 13.5-24.6 32.25-43.65 56.25-57.15 24.3-13.8 51.75-20.7 82.35-20.7 37.5 0 69.6 9.9 96.3 29.7 26.7 19.8 44.55 46.8 53.55 81h-84.6c-6.3-13.2-15.3-23.25-27-30.15-11.4-6.9-24.45-10.35-39.15-10.35-23.7 0-42.9 8.25-57.6 24.75-14.7 16.5-22.05 38.55-22.05 66.15 0 27.6 7.35 49.65 22.05 66.15 14.7 16.5 33.9 24.75 57.6 24.75 14.7 0 27.75-3.45 39.15-10.35 11.7-6.9 20.7-16.95 27-30.15h84.6c-9 34.2-26.85 61.2-53.55 81-26.7 19.5-58.8 29.25-96.3 29.25-30.6 0-58.05-6.75-82.35-20.25-24-13.8-42.75-32.85-56.25-57.15-13.5-24.3-20.25-52.05-20.25-83.25zm505.22 161.55c-29.7 0-57-6.9-81.9-20.7-24.6-13.8-44.25-33-58.95-57.6-14.4-24.9-21.6-52.8-21.6-83.7 0-30.9 7.2-58.65 21.6-83.25 14.7-24.6 34.35-43.8 58.95-57.6 24.9-13.8 52.2-20.7 81.9-20.7 29.7 0 56.85 6.9 81.45 20.7 24.9 13.8 44.4 33 58.5 57.6 14.4 24.6 21.6 52.35 21.6 83.25s-7.2 58.8-21.6 83.7c-14.4 24.6-33.9 43.8-58.5 57.6-24.6 13.8-51.75 20.7-81.45 20.7zm0-70.2c25.2 0 45.3-8.4 60.3-25.2 15.3-16.8 22.95-39 22.95-66.6 0-27.9-7.65-50.1-22.95-66.6-15-16.8-35.1-25.2-60.3-25.2-25.5 0-45.9 8.25-61.2 24.75-15 16.5-22.5 38.85-22.5 67.05 0 27.9 7.5 50.25 22.5 67.05 15.3 16.5 35.7 24.75 61.2 24.75zm562.11-248.85V659h-76.95V469.55L1960.58 659h-62.1l-71.1-189.9V659h-76.95V343.1h90.9l88.65 218.7 87.75-218.7h90.45zm296.09 101.7c0 18.3-4.2 35.1-12.6 50.4-8.4 15-21.3 27.15-38.7 36.45-17.4 9.3-39 13.95-64.8 13.95h-47.7V659h-76.95V343.1h124.65c25.2 0 46.5 4.35 63.9 13.05 17.4 8.7 30.45 20.7 39.15 36s13.05 32.85 13.05 52.65zm-121.95 39.6c14.7 0 25.65-3.45 32.85-10.35 7.2-6.9 10.8-16.65 10.8-29.25 0-12.6-3.6-22.35-10.8-29.25-7.2-6.9-18.15-10.35-32.85-10.35h-41.85v79.2h41.85zm238.96-141.3V659h-76.95V343.1h76.95zm283.01 0v61.65h-83.7V659h-76.95V404.75h-83.7V343.1h244.35zm188.02 319.05c-29.7 0-57-6.9-81.9-20.7-24.6-13.8-44.25-33-58.95-57.6-14.4-24.9-21.6-52.8-21.6-83.7 0-30.9 7.2-58.65 21.6-83.25 14.7-24.6 34.35-43.8 58.95-57.6 24.9-13.8 52.2-20.7 81.9-20.7 29.7 0 56.85 6.9 81.45 20.7 24.9 13.8 44.4 33 58.5 57.6 14.4 24.6 21.6 52.35 21.6 83.25s-7.2 58.8-21.6 83.7c-14.4 24.6-33.9 43.8-58.5 57.6-24.6 13.8-51.75 20.7-81.45 20.7zm0-70.2c25.2 0 45.3-8.4 60.3-25.2 15.3-16.8 22.95-39 22.95-66.6 0-27.9-7.65-50.1-22.95-66.6-15-16.8-35.1-25.2-60.3-25.2-25.5 0-45.9 8.25-61.2 24.75-15 16.5-22.5 38.85-22.5 67.05 0 27.9 7.5 50.25 22.5 67.05 15.3 16.5 35.7 24.75 61.2 24.75z" fill="#1C2425"/></g><defs><linearGradient id="paint0_linear" x1="-107" y1="501.476" x2="1121.95" y2="501.476" gradientUnits="userSpaceOnUse"><stop stop-color="#7A65FD"/><stop offset="1" stop-color="#1D6FA3"/></linearGradient><clipPath id="clip0"><path fill="#fff" d="M0 0h3338v1000H0z"/></clipPath></defs></svg>