<svg width="1243" height="1000" viewBox="0 0 1243 1000" fill="none" xmlns="http://www.w3.org/2000/svg"><path fill-rule="evenodd" clip-rule="evenodd" d="M897.121 308.942c-20.466-41.408-47.935-80.232-82.407-114.704-169.683-169.683-444.793-169.683-614.476 0s-169.683 444.793 0 614.476c169.683 169.682 444.793 169.682 614.476 0 119.151-119.152 154.634-290.288 106.449-440.402L627.195 661.851c-11.517 11.5-30.172 11.5-41.688 0L391.131 467.76c-11.528-11.512-11.542-30.191-.03-41.72s30.19-11.542 41.719-.03l173.531 173.277 290.77-290.345z" fill="url(#paint0_linear)"/><defs><linearGradient id="paint0_linear" x1="-107" y1="501.476" x2="1121.95" y2="501.476" gradientUnits="userSpaceOnUse"><stop stop-color="#7A65FD"/><stop offset="1" stop-color="#1D6FA3"/></linearGradient></defs></svg>