<svg width="1600" height="1200" viewBox="0 0 1600 1200" fill="none" xmlns="http://www.w3.org/2000/svg"><path d="M78.7 940.3c69.5-31 148.4-27 221.3-11.6 77.1 16.3 151.3 44.7 229.1 57.9 43.1 7.3 87.1 9.9 130.5 3.1 1.9-.3 1.1-3.2-.8-2.9-80.6 12.5-161.2-7.5-238.3-29.3-73.8-20.9-148.5-44.1-226.1-43.5-40.2.3-80.3 7.3-117.2 23.7-1.8.8-.3 3.4 1.5 2.6z" fill="#E8E8E8"/><path d="M467.9 966.1c94.2 1.9 185.4-24.2 277.5-39.7 26.9-4.5 54-8.1 81.3-9.9 1.9-.1 1.9-3.1 0-3-94.3 6.2-185.2 34.4-278.8 45.4-26.5 3.1-53.2 4.8-79.9 4.3-2.1-.1-2.1 2.9-.1 2.9zM908.2 932.5c33.5-7.2 68.2-8.4 102.1-3.2 31.2 4.8 61.1 15.1 90.6 26.1 29.1 10.8 58 22.3 88.2 30 31.2 7.9 62.9 9.9 95.1 9.9 38 0 76.3-1.5 113.6 6.9 1.9.4 2.7-2.5.8-2.9-65.9-14.8-134.2.2-200.1-14.8-61.5-14-117.7-45.5-179.9-56.8-36.8-6.7-74.6-5.9-111.1 1.9-2 .4-1.2 3.3.7 2.9zM362 548c-8.6-2.6-25.5-9.7-19.2-21.7 4.5-8.6 17.9-9.3 26.2-9 28 .8 56 3.2 84 .9 26.3-2.2 51.4-9.7 77-15.7 26-6.2 53.5-10.7 79.7-3.1 11.5 3.3 22.2 8.8 33.5 12.6 5.4 1.8 11 3.2 16.7 3.8 6.8.7 13.6-.3 20.3-.6 6.9-.3 14-.1 19.9 4 5.4 3.7 9.9 10.7 6.4 17.2-5 9.4-19.6 6.8-28 5-24.9-5.2-50-6.8-75.3-3.4-13.4 1.8-26.5 5.1-39.3 9.2-13.8 4.4-27.2 8.3-41.9 6.3-13.7-1.9-26.8-6.3-40.7-6.8-13.9-.6-27.7 1.2-41.4 3-26.6 3.6-55 8.2-79.9-4.7-1.7-.9-3.2 1.7-1.5 2.6 23.3 12.1 49.6 9.3 74.8 6 13.2-1.8 26.5-3.7 39.9-4 14.7-.3 28.4 3.1 42.7 5.9 14.6 2.8 27.8 1.3 42-3.1 14.1-4.4 28-8.7 42.6-10.9 15.1-2.3 30.4-2.9 45.6-1.8 13.5.9 26.4 4.5 39.7 6 7.9.9 18 .6 22.9-6.8 5.6-8.5-.4-18.4-8.1-23.1-11.7-7.1-26.2-2.1-38.9-2.9-14-.9-26.9-7.4-39.8-12.4-26.8-10.4-54.2-9.1-81.9-3.2-29.3 6.2-57.8 15.7-87.8 18.1-17.3 1.4-34.8 1.1-52.1.4-9-.4-18.1-.8-27.1-1.2-5.6-.2-11.1-.3-16.6.8-8.5 1.7-18.2 6.7-17.6 16.8.7 11.1 13.5 16.2 22.5 18.9 1.7.4 2.5-2.5.7-3.1zM1100 179.1c-8.6-1.2-22.7-4.3-25.2-14.1-3.6-13.6 15.8-17.9 25.2-19.6 27.5-4.7 55.7-.4 83.4-.4 54.9-.1 109-10.5 163.6-14.4 27.3-2 54.8-2.3 82 1.2 6.2.8 12.7 1.4 18.7 3.2 2.5.7 5.3 1.9 7.2 3.7 4.6 4.5.1 8.6-4.1 10.8-10.8 5.7-23.1 8-35.2 8.5-24.2 1.1-48.3-3.9-72.5-3-11.3.4-22.4 2.3-33.1 6.2-12.5 4.6-24.1 11.1-36.7 15.4-14.6 5-30 7.5-45.5 7.5-15.7 0-31.2-2.4-46.7-4.2-31.4-3.6-62.9-3.5-94.2.7-1.9.3-1.9 3.3 0 3 30.6-4.1 61.6-4.4 92.3-.9 15.2 1.7 30.4 4.1 45.8 4.4 14.2.3 28.5-1.5 42.2-5.4 14-4 26.8-10.9 40.3-16.3 13.1-5.2 26.6-7.5 40.6-7.5 25.8-.2 51.7 5.6 77.5 2.2 6.3-.8 12.4-2.2 18.4-4.4 4.6-1.7 10.8-3.8 14.1-7.7 6.2-7.5-2.8-14.1-9.5-16-13.2-3.9-28.1-4.6-41.8-5.4-14.9-.9-29.8-.8-44.7-.1-60.3 2.9-119.9 15.5-180.4 15.3-17.2 0-34.4-1.6-51.6-1.7-14.6-.1-31.3.2-45 5.9-8.6 3.6-17 12-12.2 21.9 4.5 9.3 17.2 12.5 26.4 13.8 1.8.6 2.6-2.3.7-2.6zM132.9 315.6c83.4-36.2 174.8-2.4 251.7 33.9 39.2 18.5 77.8 38.3 118.7 52.9 40.1 14.3 81.8 24.2 124.1 29.9 84.9 11.5 171.8 6.4 255.3-12.3 87.5-19.6 170.4-55.2 257.2-77.5 90.3-23.2 184.7-28.2 276.8-13.3 11.2 1.8 22.3 3.9 33.4 6.3 1.9.4 2.7-2.5.8-2.9-89.4-19-182.3-19.9-271.9-2.1-89.6 17.8-173.9 54.2-261.8 77.9-85.3 23-174.4 32.3-262.5 24-43.8-4.1-87.2-12.6-129.2-25.8-43.4-13.6-84.1-33.4-125-53-73.9-35.5-157.3-71.5-240.9-50.4-9.7 2.4-19 5.7-28.2 9.7-1.7.9-.2 3.5 1.5 2.7z" fill="#E8E8E8"/><path d="M475.1 279.8c97.7 54.5 214 58.6 322.4 43.4 122.7-17.2 240.9-57.7 363.8-73.5 68.4-8.8 138.2-9.9 205.9 5.1 1.9.4 2.7-2.5.8-2.9-119.7-26.4-242.5-3.1-359.7 24.2-115.5 26.9-232.3 58.3-352 50.6-62.5-4-124.7-18.9-179.7-49.5-1.6-1-3.1 1.6-1.5 2.6zM183.4 93.1c84-20 173.6-12.1 252.8 22.4 38.9 16.9 75.4 38.9 113.6 57.2 38.5 18.4 78.7 31.1 121.1 36.8 48.5 6.5 97.6 5.4 146.2 2.2 1.9-.1 1.9-3.1 0-3-43.9 2.9-88.2 4.1-132-.5-44.4-4.7-86.8-16.3-127.3-35-38.5-17.9-74.9-39.9-113.6-57.3-38-17.4-78.3-28.9-119.8-33.8-47.3-5.7-95.5-2.9-141.8 8.1-1.9.4-1.1 3.3.8 2.9zM1035.4 699.2c-8.8-1.8-23.2-6.3-23.9-17.2-.4-6.7 5.2-11.6 11.1-13.4 7.1-2.3 14.6-.2 21.5 1.8 12.6 3.7 25.3 6.7 38.5 7.2 12.3.5 24.5-1.3 36.4-4.5 12.8-3.4 25.3-8 38-11.6 13.4-3.8 27.1-5.8 41.1-6 26.7-.4 53.1 4.4 79.7 5.5 13.3.5 26.4-.2 39.5-2.2 14.2-2.2 28.7-5.5 43.2-3.8 10.4 1.2 27.1 8.2 23.7 21.6-3 11.7-19.6 18.3-29.8 21.6-51.2 16.6-104-11-155.9-3.7-29.9 4.2-58.1 16.8-88.3 19.2-13.8 1.1-28 .2-41.1-4.7-12-4.6-22.8-14.6-36.5-12.2-1.9.3-1.1 3.2.8 2.9 8.2-1.4 15.4 2.5 22.3 6.3 5.6 3 11.2 5.8 17.3 7.6 12.5 3.8 25.9 4.3 38.9 3.1 28.6-2.7 55.5-14 83.8-18.6 31.2-5 61.9 2.2 92.7 6.3 25.1 3.3 52 4.1 75.6-6.4 9-4 21-10.4 23.3-21 2.1-9.5-5.2-17.1-13.1-21-11.7-5.7-25.8-4.6-38.2-2.9-15.1 2-29.8 5.2-45.1 5.4-29.8.5-59.2-5.6-88.9-5.7-14.2 0-28.3 1.6-42.1 5.2-13.7 3.6-27 8.6-40.6 12.3-16.8 4.5-33.7 5.9-50.9 3.2-8.6-1.4-16.7-3.8-25-6.2-6.2-1.8-12.9-3.3-19.4-1.9-9.7 2.1-18.5 11.3-14.2 21.6 3.9 9.4 15.8 13.5 25 15.4 1.6.1 2.4-2.8.6-3.2z" fill="#E8E8E8"/><path d="M586.7 1094.1c37.4-9 74-21.3 109.3-36.6 18.3-8 36.2-17.1 55.7-21.9 18.7-4.7 38.1-6.1 57.4-5.6 22.3.5 44.4 3.5 66.4 7 1.9.3 2.7-2.6.8-2.9-37.5-5.9-76.1-10.7-113.8-3.9-19.4 3.5-37.2 10.9-55 19-18.7 8.5-37.6 16.2-57 23-21.2 7.4-42.7 13.8-64.6 19-1.9.4-1.1 3.3.8 2.9z" fill="#161616"/><path d="M823.001 1031.1c16.8-.4 33.4-2.8 49.6-7.5 16.5-4.7 32.8-11.3 50.3-9.6 8.9.8 17.6 3.3 26.2 5.5 9 2.3 17.9 4.6 26.9 6.9 17.3 4.4 34.499 8.8 51.799 13.2 1.9.5 2.7-2.4.8-2.9-17.9-4.6-35.799-9.1-53.699-13.7-16.4-4.2-33.2-9.8-50-11.8-16.5-1.9-32.1 3.2-47.7 8-17.7 5.4-35.7 8.5-54.1 9-2-.1-2 2.9-.1 2.9z" fill="#161616"/><path d="M998.1 1046.6c39.3-8.7 80.6-16.2 120.5-7 19.8 4.6 38.4 13.4 56.9 21.5 19.4 8.6 38.9 17.1 58.3 25.7 1.8.8 3.3-1.8 1.5-2.6-30.4-13.4-60.5-27.9-91.5-39.8-30-11.5-61.2-13.8-93-10.2-18 2.1-35.9 5.6-53.6 9.6-1.8.3-1 3.2.9 2.8zM642.8 1128.8c10.3-1.8 20.7-3.6 31-5.4 10.3-1.8 20.7-4.1 31.1-5.2 9.6-1 19.4.7 28.9 1.6 10.5 1.1 21.1 2.1 31.6 3.2 1.9.2 1.9-2.8 0-3-10.5-1.1-21.1-2.1-31.6-3.2-10.2-1-20.5-2.7-30.8-1.4-20.4 2.5-40.7 7-61 10.5-1.9.4-1.1 3.3.8 2.9z" fill="#161616"/><path d="M366.6 677.8c6.849 0 12.4-5.552 12.4-12.4 0-6.848-5.551-12.4-12.4-12.4-6.848 0-12.4 5.552-12.4 12.4 0 6.848 5.552 12.4 12.4 12.4zM400.101 705a6.5 6.5 0 100-13 6.5 6.5 0 000 13zM1097.5 70.1c8.45 0 15.3-6.85 15.3-15.3 0-8.45-6.85-15.3-15.3-15.3-8.45 0-15.3 6.85-15.3 15.3 0 8.45 6.85 15.3 15.3 15.3zM1133.1 87.4c4.81 0 8.7-3.895 8.7-8.7s-3.89-8.7-8.7-8.7c-4.8 0-8.7 3.895-8.7 8.7s3.9 8.7 8.7 8.7z" fill="#EC615B"/><path d="M1127.3 83.8c8.01 0 14.5-6.492 14.5-14.5s-6.49-14.5-14.5-14.5-14.5 6.492-14.5 14.5 6.49 14.5 14.5 14.5zM1092.6 830c10.82 0 19.6-8.775 19.6-19.6 0-10.825-8.78-19.6-19.6-19.6-10.82 0-19.6 8.775-19.6 19.6 0 10.825 8.78 19.6 19.6 19.6zM381 79.8c6.904 0 12.5-5.596 12.5-12.5s-5.596-12.5-12.5-12.5-12.5 5.596-12.5 12.5 5.596 12.5 12.5 12.5zM578.8 934.6c8.45 0 15.3-6.85 15.3-15.3 0-8.45-6.85-15.3-15.3-15.3-8.45 0-15.3 6.85-15.3 15.3 0 8.45 6.85 15.3 15.3 15.3zM689.2 646.8c-2.1-.9.3-4.6 1.4-5.1 1.3-.6 3.9.2 5.3.6 2.2.7 4.1 1.9 6.3 2.5 2.4.7 5.3.9 7.6-.2 8-4.1-1.5-17.9 10.2-17.9 6.4 0 11.8 9.5 17.1 2.4 1.9-2.5 2.7-5.7 3.7-8.7.8-2.6 1.5-5.3 3.3-7.4 2.1-2.4 8.5-4.8 9.2.4.2 1.9 3.3 1.9 3 0-.5-3.6-3.1-6-6.8-6.2-4.4-.3-7.6 3-9.4 6.6-1.3 2.5-1.9 5.3-2.8 8-.6 1.9-1.4 5.2-3.1 6.4-1.8 1.2-3.2-.1-4.7-1-3.9-2.6-8.6-4.6-13.3-2.9-4.3 1.6-6 5.3-5.8 9.7 0 1.3.4 2.9.3 4.2-.7 4.6-3.8 4.8-7 4.1-3.2-.7-5.9-2.7-9.2-3.3-3.5-.7-7 .2-8.6 3.7-1.3 3-.5 6 2.5 7.2 1.8.5 2.6-2.4.8-3.1zM740.8 651.6c-1.5-2.3-1.5-5.2.1-7.5 2.3-3.3 5.5-2.8 9-2.3 2.6.4 5.8.9 7.7-1.4 1.3-1.5 1.1-3.3 1.6-5 .7-2.5 2.3-4.7 4.4-6.2 4.4-3.2 10.6-3.7 15-.3 1.1.8 2.4.3 2.6-1.1 1.2-9.7 10.8-16.9 20.4-15.2 1.9.3 2.7-2.6.8-2.9-11.7-2-22.8 6.4-24.2 18.1.9-.4 1.7-.7 2.6-1.1-4.1-3.2-9.3-4-14.2-2.3-5.6 1.9-8.2 5.6-10.3 10.8-1 2.6-2.2 4.2-5.1 3.8-1.6-.2-3.1-.6-4.7-.7-2.3-.1-4.3.5-6.1 2-3.8 3.2-4.8 8.7-2.1 12.9 1 1.6 3.6.1 2.5-1.6z" fill="#5222D0"/><path d="M791.4 104.3c-1.7-1.6-1.2-2.6 1.4-3.1 1.1-1.5 2.3-1.8 3.6-.8 1.8.4 3 2 4.3 3.2 1.6 1.4 3 3 4.8 4.1 2.5 1.4 5.6 2 8.2.7 3.2-1.6 3.3-4.8 4.4-7.8 3-8 13.2-8.8 18-2 .6.8 2.1 1.1 2.6 0 1.9-4.5 4.3-9.6 8.6-12.3 4.3-2.7 11.5-2.4 13.4 3.2.6 1.8 3.5 1 2.9-.8-1.9-5.4-7.4-7.8-12.9-6.9-7.6 1.3-11.8 8.9-14.6 15.3h2.6c-3.5-5-9.5-7.7-15.5-5.5-2.5.9-4.8 2.7-6.3 5-.8 1.2-1.3 2.5-1.8 3.9-.3.9-.3 2-.8 2.8-1.3 2.2-4.9 3.1-7.2 1.8-4.9-2.7-9.7-11.3-16.5-7.8-3.8 1.9-4.3 7.3-.7 9.6 1.7 1 3.2-1.6 1.5-2.6zM855.601 103.5c-.7-10 12.1-6.7 17.2-4.2 2.6 1.3 5.8 3.7 8.6 1.5.9-.7 1.3-1.7 1.7-2.7 1.5-3.3 2.5-5.7 6.5-6.9 6.2-1.8 12.2 2.1 17.2 5.3 1.6 1 3.1-1.6 1.5-2.6-5.3-3.3-11.3-7-17.8-5.9-2.1.3-4.2 1.1-5.9 2.4-2.6 1.9-3.1 5.2-5.7 6.8-2.5 1.5-3.5 0-6-1.2-1.3-.6-2.6-1.2-4-1.7-2.6-.9-5.4-1.3-8.1-.7-4.7 1.1-8.5 4.9-8.2 9.9.1 1.9 3.1 1.9 3 0zM1145 517.7c-6.6-14.5 18.4-20.9 20.1-5.7.6 5.1-2.2 10.5-7.4 11.9-5.8 1.5-12-2.4-13.6-8-.5-1.9-3.4-1.1-2.9.8 2 7.2 9.9 12 17.3 10.1 7.3-1.9 10.9-10 9.2-17-1.8-7.4-9.5-11-16.6-9.1-8.3 2.2-12.2 10.9-8.7 18.7.8 1.6 3.4 0 2.6-1.7z" fill="#EC615B"/><path d="M1163.6 529.2c-5.4-.5-7.4-7.7-3.7-11.3 3.1-3.1 8.4-2.9 11.7-.3 3.4 2.7 6.7 10.6 2.9 14.4-5 5-11.1-3.1-13.5-6.7-1.1-1.6-3.7-.1-2.6 1.5 3.5 5.4 11.5 13.9 18.2 7.3 5.3-5.2 1.5-15.7-3.7-19.4-5.3-3.8-14-2.5-17 3.7-3 6 1.4 13.2 7.8 13.8 1.8.2 1.8-2.8-.1-3zM255.2 403.5c4-.2 6.1-2.9 8.9-5.4 6.6-5.9 14.2-.3 18.4 5.5 4 5.5 9.8 9.4 14.9 2.8 2.4-3.1 3.6-7.7 6.9-9.9 6.7-4.5 12.4 4.4 16.6 8.3 4.8 4.4 14.7 6.4 16.9-1.8.5-1.9-2.4-2.7-2.9-.8-1.1 4.3-6.3 4.2-9.4 2.4-2.4-1.4-4.1-3.6-6-5.5-2.8-3-5.9-5.9-10.1-6.7-6.9-1.2-10 5-13.1 10-.8 1.4-1.8 3.3-3.3 4.1-3.6 1.9-6.2-1.9-8.1-4.4-2.4-3.4-5.1-6.3-9-8.1-3.2-1.5-7-2-10.3-.6-3.8 1.6-6.2 7-10.5 7.2-1.8 0-1.8 3 .1 2.9zM325.1 382.9c4.2 5 11.7 11.7 18.3 6.2 1.6-1.4 2.5-3.4 4.2-4.8 2.5-1.9 5.8-2.3 8.7-1.4 6.3 1.7 10 7.7 13.3 12.8.6.9 2.1 1.1 2.6 0 4.3-9.4 15.8-11.7 24.8-8.1 1.8.7 2.6-2.2.8-2.9-10.1-4.1-23.4-1.1-28.2 9.4h2.6c-4.5-7-10.2-15-19.6-14.7-3.3.1-6.3 1.5-8.5 3.9-2.6 3-4.8 5.4-9.1 4.1-3.3-1-5.7-4.1-7.9-6.7-1.1-1.4-3.2.7-2 2.2z" fill="#EC615B"/><path d="M505.201 487.5c-1.3-2.6-2.8-5.3-4-8-1.3-2.8-.7-3.9 1-6.3 2.2-3.1 5.6-5.9 9.5-3.8 2.8 1.5 4.6 4.9 5.4 7.8 1.4 4.9.2 11.9-5.5 13.5-4.7 1.3-10.8-1.6-10.6-7 0-1.9-3-1.9-3 0-.2 6.7 6.5 10.9 12.7 10.2 7.6-.9 10.8-8.9 9.7-15.7-1.1-6.6-7.2-15-14.8-11.9-3.7 1.5-6.5 5.4-8.2 8.9-1 2.1-.8 2.2.2 4.3 1.6 3.2 3.2 6.4 4.8 9.5 1.1 1.7 3.7.2 2.8-1.5z" fill="#5222D0"/><path d="M516.3 507.1c-3.8-4.5-10.3-13.3-4.7-18.9 4-4 11.2-2.5 14.5 1.5 3.4 4.1 4.1 12.1-1.2 15.1-4.5 2.6-11 .1-11.8-5.1-.3-1.9-3.2-1.1-2.9.8 1.2 6.8 9.5 10 15.5 7.3 7.3-3.4 7.6-13.5 3.3-19.4-4.1-5.7-13.1-7.7-18.7-3-8.1 6.7-1.1 17.7 4 23.7 1.1 1.6 3.2-.5 2-2z" fill="#EC615B"/><path d="M1107.6 304.7c.1-8.8 12.2-6.2 17.4-5.6 4.5.5 8.6-.1 12.6-2.3 4.4-2.3 8-5.9 12.3-8.4 2.8-1.7 6.2-3.2 9.5-3.2 3.5.1 5.7 2.2 8.8 3.5 7.2 2.9 11.8-3.8 16.3-8.2 8.9-8.7 21.6-5.1 32-1.5 1.8.6 2.6-2.3.8-2.9-9.3-3.2-21.1-6.7-30.3-1.4-4.4 2.5-7 7.1-11 10-5.7 4.1-10.5-2.4-16.5-2.5-12.9-.2-19.7 14.7-32.7 14-5.6-.3-11-2.4-16.4.1-3.5 1.6-5.7 4.4-5.8 8.3-.1 2 2.9 2 3 .1zM1182.4 301.3c6.4-9.1 18.4-13.5 29.2-10.4 4.7 1.4 9.1 5.2 14.3 4.9 4.3-.3 6.6-3.8 9.5-6.5 4.7-4.3 10.8-7.8 17.4-7.6 4 .1 7.1 1.6 10.2 4.2 1 .9 1.8 1.7 3.2 2.1 2 .5 3.8-.4 5.6-1.2 3.1-1.4 6.3-2.6 9.6-3.5 6.8-1.7 13.7-2 20.6-1.1 1.9.2 1.9-2.8 0-3-6.6-.9-13.2-.7-19.7.8-2.9.7-5.8 1.6-8.6 2.7-2.2.9-3.3 1.5-5.8 1.5-2.7 0-2.5-.4-4.3-1.8-8.5-6.5-19.9-3.5-27.6 2.6-2.1 1.6-3.8 3.8-5.8 5.4-4.8 3.8-8.6 1.4-13.5-.8-4.2-1.9-8.6-2.8-13.2-2.6-9.5.4-18.1 5.1-23.5 12.8-1.3 1.6 1.3 3.1 2.4 1.5z" fill="#5222D0"/><path d="M964.899 972c1.9 12 3.8 24.1 5.6 36.1-39.5 12.8-58.9 20.9-58.1 24.3 1 4.2 32.6 1.1 94.801-9-3.6-19-7.1-38-10.701-57-10.6 1.8-21.1 3.7-31.6 5.6z" fill="#000"/><path d="M879.899 570.2c-.7 13.6-1.7 33-2.6 56.5-.9 24.9-1.4 37.9-1.3 53.9 0 6.9.3 35 3.9 71.2 3 30.5 7.7 76.1 24.4 132.2 6.6 22.2 16.8 52 32.7 86 7.3 1.1 15.9 1.7 25.7 1.3 18.4-.9 33.3-5.4 43.601-9.6-3-9.8-7.201-23.7-11.601-40.4-5.9-22.6-22.9-90.7-29.5-182.2-3.3-46-4.5-103.4 1.3-169.4-28.8.1-57.7.3-86.6.5z" fill="#fff"/><path opacity=".09" d="M963.999 577.9c-1.9 7.2-4.4 17.6-7.1 30.2-7 33.3-14.2 80.8-13.5 161.1.4 49.4 3.9 117.7 16.7 200.2 5-.5 10.1-1.1 15.4-1.9 11.1-1.7 21.4-3.9 30.801-6.4-4.2-13.6-10.001-33.8-16.001-58.4-21.3-87.7-27.3-162.1-28.9-211.2-.9-29.2-.9-67.9 2.6-113.6z" fill="#606060"/><path d="M964.3 572.8c-10 101.2-3.8 203.9 18.3 303.2 6.3 28.2 13.8 56 22.6 83.5.6 1.8 3.5 1 2.9-.8-30.8-96.7-46.2-198.1-45.4-299.6.2-28.8 1.8-57.7 4.6-86.4.2-1.8-2.8-1.8-3 .1zM875.799 662.5c-3.7 82 7.8 164.5 33.6 242.4 7.2 21.8 15.6 43.2 25.1 64.1.8 1.8 3.4.2 2.6-1.5-33.5-74.5-53.2-155-57.9-236.5-1.3-22.8-1.4-45.6-.4-68.5.1-2-2.9-1.9-3 0z" fill="#161616"/><path d="M935.699 969.9c3.4 3.8 11.2 2.9 15.8 3 7 .1 14.1-.6 21-1.6 7.5-1.1 15-2.7 22.4-4.5 3.7-.9 11.401-1.1 13.301-5.2.8-1.7-1.8-3.3-2.6-1.5-.9 2.1-5.901 2.5-7.801 2.9-2.8.7-5.5 1.3-8.3 2-5.3 1.2-10.5 2.3-15.8 3.1-5.5.9-11 1.5-16.5 1.7-4.2.2-16.2 1.5-19.3-2-1.4-1.5-3.5.7-2.2 2.1z" fill="#161616"/><path d="M850.4 569.6c-2.9 6.3-6.8 18.3-9.6 28.9-3.5 13.5-4.4 21.6-6.4 33.4-3.7 21.8-6.2 25.5-11.6 49.4-5.7 25.6-8.3 45.3-10.3 61-1.6 12.2-4.5 37.1-5.8 69.3-.6 13.9-.9 22.1-.6 33.4.8 35.5 6.5 63 9 73.8 6.7 29.7 16.5 55.1 26.3 75.7 4.5 2.3 11.3 5.2 19.9 7.1 10.6 2.3 24.2 5.3 37.2-1.3 3.6-1.8 11.8-6.8 18-18.6-4.8-13.1-10.7-31.7-15.4-54.5-11.6-56.6-7.4-101.4-4.5-129.6 5.4-53.3 17.8-93.3 39.1-162.3 7.2-23.2 13.6-42 18-54.5 1.5-9.9 5-39.6-10.9-52-23.3-18.4-77.6 8.9-92.4 40.8z" fill="#fff"/><path opacity=".08" d="M939.599 622.8c-6.5 10.3-15.5 25.6-24.4 44.9-11 23.8-27.2 65.6-35.9 148.9-4.8 45.5-8 109.2-.6 186.1 3.1.3 16.3 1.4 27.6-7.7 5.8-4.7 8.8-10.1 10.3-13.5-4.9-13.5-11.2-33.3-16-57.8-14.2-71.4-5.3-128.8 1.3-168.8 5.4-33.4 15.9-79.5 37.7-132.1z" fill="#606060"/><path d="M866.1 1001.4c3.4 12.2 6.8 24.5 10.2 36.7-53.6 16.3-79.9 26.5-79 30.5 1 4.6 37.5 1.2 109.5-10.2-1.9-19.6-3.8-39.1-5.6-58.7-11.8.5-23.5 1.1-35.1 1.7z" fill="#000"/><path d="M849.299 570.8c-10.6 26.8-16 55.2-21.7 83.4-6 29.5-11.8 59-16 88.8-7.8 55.2-10.2 111.7.5 166.7 5.7 29.6 15.3 58.4 29.4 85 .9 1.7 3.5.2 2.6-1.5-53.5-101.7-37.3-220.7-15.5-328.6 6.3-31.3 11.9-63.2 23.7-93 .6-1.8-2.3-2.6-3-.8zM938.3 622.6c-33.5 89.3-55.9 185.3-42.9 281 3.6 26.4 9.9 52.3 19.1 77.3.7 1.8 3.6 1 2.9-.8-33.3-89.9-26.5-188.5-1.5-279.6 7.2-26.1 15.8-51.8 25.3-77.2.7-1.8-2.2-2.5-2.9-.7z" fill="#161616"/><path d="M841.8 994.6c14.1 7.8 30.3 11.1 46.3 9 13.1-1.8 28.3-7.8 29.6-22.9.2-1.9-2.8-1.9-3 0-1.4 15.7-20.4 19.9-33.3 20.5-13.3.6-26.4-2.7-38-9.2-1.8-.9-3.3 1.7-1.6 2.6z" fill="#161616"/><path d="M871 309c-2.7 3.2-6.5 8.1-10.1 14.6-12.3 21.6-13.1 42.8-13.3 61.4-.2 27.1-.4 40.7 2.5 70.2 2.7 27.6 3.4 67.2-6.3 117.7 8.7 6.4 21.4 13.8 38 17.7 47.8 11.2 87.4-16.7 94.9-22.1-9.5-55.7-14.7-100.3-17.7-131.6-1.9-19.8-8.9-48.6-22.8-106.3-4.2-17.6-8.5-34.4-21.5-39.2-18-6.8-40.1 14.1-43.7 17.6z" fill="#EC615B"/><path opacity=".1" d="M914.2 292.8c1.6 6.5 3.9 16.3 6.2 28.4 3 15.6 7 39.2 9.8 74.3 2.9 36.2 6.2 104.1 7.2 191.9 6.8-2 15-5 23.7-9.8 5.8-3.2 10.8-6.6 15-9.8-.7-7.7-2-19.4-4.1-33.5-2.7-17.7-5.4-30-6.7-36.1-3.2-15.8-6.8-39.4-7.2-72.2-4.1-17.4-7.2-31.4-9.3-40.7-5.8-26.4-7.5-36.1-11.9-52.1-4.4-16.1-9-28.9-11.9-36.6-3.6-1.4-7.2-2.6-10.8-3.8z" fill="#606060"/><path d="M870.9 318.6c.9 1.8 2.4 2.4 5.7 4 2.8 1.4 5.5 3.1 8.3 4.3 8.6 3.7 18.7 20.1 20.3 22.7 6.1 9.9 13.2 21.5 17.3 38.3 1.1 4.4 3.6 15.8.7 54.3-3.1 39.5-7.1 45-4 64.7 2.3 14.3 5.2 31.4 19.3 40.7 13.1 8.6 28.2 5.6 31.3 5 19-3.7 29.8-18.4 40.3-32.7 16-21.7 22.1-43.4 24.7-56 1.2-5.9 1-23.2.7-57.7-.4-35.6-1-47.9-10.3-58.3-6.3-7-14-10.3-19.3-12 .4-2.2.5-5.5-1.3-8.3-3.4-5.2-11.5-5.1-16.7-5-22.3.6-38.9 15.6-39.7 16.3-13.9 12.9-18 28.7-19.3 35.3-2.8-12.4-7.4-21.9-11-28-3.1-5.3-7.7-10.7-17-21.7-7.3-8.6-10.8-11.9-16.3-13.7-1.2-.4-10.3-3.1-13.3 1-1.4 1.9-1.4 4.8-.4 6.8z" fill="#fff"/><path opacity=".11" d="M870.2 314.9c.6-1.1 7.3 1.4 8 1.7 9.9 3.8 18.7 11.7 30 30 5.8 9.4 13.1 22.7 19.3 40 4.4-4.5 8.1-8.2 11-11 0 0 10.7-10.3 28-20.3 1.7-1 3.8-2.2 5.3-1.3 3.1 1.7-.2 10 .7 17.7.7 5.8 4.1 13.8 17 22.7.3 1.7.4 4.1-1 5.7-2.8 3.1-10 .6-13.7-.7-6-2.1-17.6-7.6-31.3-23.7-1.3 5.2-3 12.6-4.3 21.7-1.2 7.9-4.5 34.2 1 68 2.2 13.4 6.3 31.3 14.7 51.7 3.7 1.6 8.4 3.1 14 4 11.7 1.8 21.4-.5 27-2.3-3.3 1.6-7.8 4.3-11.7 9-4.7 5.7-4.8 10-8.7 15.3-2.6 3.6-7.3 8.1-16 11.3-2.7-.3-6.8-1-11.3-3-13.7-6.1-19.9-19-22.7-25-3.7-8.1-9.4-24.5-4-80 3.1-31.7 6.5-41.6 1.3-59.7-4-13.9-10.9-25.4-13.3-29.3-4.3-7-12-19.5-26-31-6.6-5.6-13.9-10.2-13.3-11.5z" fill="#606060"/><path d="M981.7 337.3c-1.8 2.4-4.1 5.9-5.9 10.5-1 2.7-3.4 9-2.8 17 1.1 15.9 12.5 25.6 14.6 27.3 1.4 1.1 2.6 2 3.4 2.5-1.2 4.1-2.6 10.2-3.1 17.7-.8 10.6-1.6 22.5 4.6 26 4 2.2 10 .7 13.3-2.5.8-.8 3.1-3.3 3.7-14.6.7-13.4-2.1-19 1.9-22.9 1.7-1.8 4.6-2.9 7.1-4 2.8-1.2 5.3-1.8 7.1-2.2-1.1 8.2-1.9 15.5-2.5 21.4-.7 7.3-1 11 1.5 13.3 2.3 2.1 6.1 2.5 9 1.2 3.8-1.7 5-6.4 7.1-15.8 1.7-7.4 3.1-13.6 2.2-22-.5-4.3-1.4-7.8-2.2-10.2-.2-1.7-.7-4.2-1.5-7.1-1.7-5.8-3.3-7.5-4.3-11.2-1.5-5.3.2-7.9.6-13.9.4-4.7 0-11.4-3.4-19.8-1.3.1-4 .3-6.8 2.2-3.4 2.2-4.8 5.4-5.3 6.5-2.6-.6-7.3-1.2-12.7.3-9.3 2.5-14.2 9.4-15.5 11.5 2.6-5.7.4-11.3-3.1-12.7-3-1.3-6.6 1.3-7 1.5z" fill="#000"/><path d="M992.999 368.3c1-1.9 6-6.1 7.701-2.6.8 1.7 3.4.2 2.6-1.5-1.1-2.3-3.801-3-6.201-2.5-2.9.5-5.3 2.5-6.7 5.1-.9 1.7 1.7 3.2 2.6 1.5zM1022.3 360.6c.6-1.3 1.2-2.8 2.2-3.8 1-1 4-2.1 4.1.2.1 1.9 3.1 1.9 3 0-.2-2.9-2.7-4.8-5.6-4.4-3.3.6-5 3.6-6.3 6.4-.8 1.8 1.8 3.4 2.6 1.6zM1023.1 370.1v.3l-.5.5c-.5.3-1.3 0-1.2-.6 0 0 0-.3.1-.2l-.3.3h2.1l-.2-.2.1.1c-.1-.1 0-.1 0 .1.1.6-.2 1-1 1.3-.3-.1-.5-.1-.8-.2-.4-.2-.3-.8-.2-1.1.1-.1 0-.1-.1.1.1-.1.1-.1 0 0-.7.5-1 1.3-.5 2.1.4.6 1.4 1 2.1.5.7-.5 1.4-1.2 1.5-2.2 0-1.1-.8-2.1-1.9-2.1-1.1 0-1.9.7-2 1.8-.1.8.4 1.5.9 2 .6.6 1.5.5 2.1 0 1.3-1 1.6-3.1.1-4.1-.7-.4-1.6-.5-2.3-.1-.9.5-1 1.7-.8 2.6.1.8 1.1 1.2 1.8 1 .8-.3 1.1-1.1 1-1.9zM1007.1 373.2c-2.9 1.7-6.8.9-8.7-1.9-1.1-1.6-3.7-.1-2.6 1.5 2.9 4.1 8.4 5.5 12.9 3 1.6-1 .1-3.6-1.6-2.6zM1004.9 379.7c-2.2 1.7-4.1 3.9-5.4 6.4-.9 1.7 1.7 3.2 2.6 1.5 1.2-2.3 2.9-4.2 5-5.8.6-.5.5-1.6 0-2.1-.7-.6-1.6-.5-2.2 0zM1029.2 368.7c2-2.3 3.5-4.9 4.5-7.8.6-1.8-2.3-2.6-2.9-.8-.8 2.4-2.1 4.6-3.7 6.5-1.2 1.5.9 3.6 2.1 2.1zM1029.4 372.5c2.4-.5 5.2-1.1 7.1.9 1.3 1.4 3.4-.7 2.1-2.1-2.7-2.9-6.6-2.4-10.1-1.6-1.8.3-1 3.2.9 2.8z" fill="#fff"/><path d="M869.7 316.3c4.6-7.2 15.5-2.9 21 .7 6.6 4.2 11.6 10.5 16.1 16.8 9.1 12.7 17.2 26.5 20.2 42 .4 1.9 3.3 1.1 2.9-.8-3.5-18.5-14.3-36.3-26.5-50.5-7.1-8.2-27.2-23.7-36.3-9.6-1 1.5 1.6 3.1 2.6 1.4z" fill="#161616"/><path d="M875.9 323.1c24 13.5 37.5 38.8 44.3 64.6.5 1.9 3.4 1.1 2.9-.8-7-26.5-21.1-52.6-45.7-66.4-1.7-1-3.2 1.6-1.5 2.6zM929.9 374.5c2.5-17.7 13.8-32.5 29.3-41 8-4.4 16.9-7.1 26-8.4 4.3-.6 9.3-1.2 13.5.4 4.6 1.7 9 9 3.2 12.3-1.7.9-.2 3.5 1.5 2.6 6.4-3.6 4.8-12.8-.8-16.3-8.7-5.5-23.1-1.6-32 1.4-22 7.1-40.2 24.9-43.5 48.4-.4 1.7 2.5 2.5 2.8.6z" fill="#161616"/><path d="M936.6 379c4.9-5.7 11.1-10.5 17.1-15 5.8-4.4 12-8 19.2-9.6 1.9-.4 1.1-3.3-.8-2.9-7.4 1.7-13.9 5.4-19.9 9.9-6.2 4.7-12.6 9.6-17.7 15.5-1.3 1.4.8 3.6 2.1 2.1z" fill="#161616"/><path d="M973.3 354.7c2.1-4.8 4.8-9.4 8.1-13.5.6-.7 1.3-1.9 2.1-2.4.7-1.3 1.6-1.4 2.9-.2 1.6 0 2.3.6 2.3 2 1.1 2.1 1.2 5.7 1.6 8.1.4 1.9 3.3 1.1 2.9-.8-.8-3.8-1.8-17.4-9-13.7-2.8 1.4-4.9 4.9-6.7 7.3-2.7 3.7-4.9 7.6-6.8 11.7-.8 1.7 1.8 3.3 2.6 1.5z" fill="#161616"/><path d="M992.6 349.6c5.1-6.6 15.5-15.7 24.4-10.8 1.7.9 3.2-1.7 1.5-2.6-10.3-5.5-21.9 3.5-28.1 11.3-1.1 1.5 1 3.6 2.2 2.1z" fill="#161616"/><path d="M1019.9 338.3c1.4-2.2 7.9-10.1 10.7-8 1.5 1.1 1.8 5 2.2 6.8.6 2.8.8 5.6.9 8.5.1 1.9 3.1 1.9 3 0-.1-4-.6-7.9-1.6-11.8-.6-2.2-1.1-6.4-3.7-7.1-2.4-.6-5.7 1.7-7.5 3-2.7 1.9-4.8 4.3-6.5 7.1-1.1 1.6 1.5 3.1 2.5 1.5zM940.5 374.1c6.9 6.7 14.2 12.9 22 18.5 7.7 5.5 15.2 9.4 24.9 8.9 1.9-.1 1.9-3.1 0-3-9.9.5-17.2-3.9-24.9-9.5-7.1-5.2-13.7-10.9-20-17-1.3-1.3-3.4.8-2 2.1zM920.3 384.4c10.9 48.4-17.5 101.3 6 147.6 4.4 8.7 11.1 16.6 20.3 20.5 9 3.8 19.4 3.5 28.7.5 20.6-6.6 33.9-25.7 44.1-43.7 6.5-11.3 11.9-23.4 15.1-36.1 1.6-6.3 2.6-12.9 2.9-19.4.3-7.5-.7-15-.4-22.5.1-1.9-2.9-1.9-3 0-.4 12.2 1.2 23.8-1.2 35.9-2.1 10.8-6 21.3-10.9 31.1-9.1 18.4-21.4 39.1-40.3 48.8-9.8 5-21.9 6.9-32.4 3-10.3-3.8-17.1-12.9-21.5-22.6-9.4-21.1-8.3-45.1-5.8-67.5 2.8-25.4 7.2-51.1 1.5-76.5-.7-1.7-3.6-1-3.1.9z" fill="#161616"/><path d="M964.8 484.5c-5.6 9.8-9.3 20.4-10.9 31.6-.3 1.9 2.6 2.7 2.9.8 1.6-11 5.1-21.3 10.6-30.9 1-1.6-1.6-3.1-2.6-1.5z" fill="#161616"/><path d="M966.7 485.6c14.8-1.3 30.4-4.1 45.2-2.5 1.9.2 1.9-2.8 0-3-14.8-1.7-30.4 1.2-45.2 2.5-1.9.2-1.9 3.2 0 3zM955.4 518.8c7.3 4.3 15.8 3.9 24 3.7 8.6-.3 17.2-1.3 24.7-5.8 1.7-1 .1-3.6-1.5-2.6-7.1 4.3-15.1 5.1-23.2 5.4-7.6.3-15.6.8-22.5-3.2-1.6-1-3.1 1.6-1.5 2.5z" fill="#161616"/><path d="M1010.5 482.4c-1.9 11-4.8 21.6-8.7 32-.7 1.8 2.2 2.6 2.9.8 4-10.4 6.9-21.1 8.7-32 .3-1.9-2.6-2.7-2.9-.8zM964 489.7c4.9 10.8 18.8 13.5 29.5 13.6 1.9 0 1.9-3 0-3-9.6-.2-22.5-2.4-26.9-12.2-.8-1.7-3.4-.1-2.6 1.6z" fill="#161616"/><path d="M985.6 499.4c-.3 2.5-.6 5-.9 7.4-.2 1.9 2.8 1.9 3 0 .3-2.5.6-5 .9-7.4.2-1.9-2.8-1.9-3 0zM991.3 499.4c-.3 2.5-.6 5-.8 7.5-.2 1.9 2.8 1.9 3 0 .3-2.5.6-5 .8-7.5.2-1.9-2.8-1.9-3 0z" fill="#161616"/><path d="M993.9 503.6c7.1-1.6 13-6 16.7-12.2 1-1.7-1.6-3.2-2.6-1.5-3.4 5.6-8.6 9.3-14.9 10.8-1.9.5-1.1 3.4.8 2.9zM972 349.3c-3 17.7.3 38.8 18.4 46.9 1.7.8 3.3-1.8 1.5-2.6-16.9-7.6-19.8-27.1-17-43.5.3-1.9-2.6-2.7-2.9-.8zM1033.5 344.5c.2 5.7.1 11.5.9 17.1.8 6.1 6.3 12.9 3.4 19-.8 1.7 1.8 3.3 2.6 1.5 2.6-5.5.3-10.1-1.6-15.5-2.5-6.9-1.9-14.9-2.2-22.2-.2-1.9-3.2-1.9-3.1.1z" fill="#161616"/><path d="M998.6 394.1c4.4-2.3 9.4.1 10.4 4.9.1.5.8.3.7-.2-1.2-5.3-6.7-7.9-11.5-5.4-.4.3 0 1 .4.7zM1006.2 399.2c.7.8 1.2 1.7 1.5 2.7.2.5.9.3.7-.2-.4-1.1-1-2.1-1.7-3-.3-.4-.9.2-.5.5zM1026.3 392.2c.9-4.1 3.5-7.5 7.3-9.4.4-.2.1-.9-.4-.6-4 1.9-6.7 5.5-7.6 9.8-.1.5.6.7.7.2zM850.2 180.2c-6.9 3.5-12.7 10.1-15.3 13-6.4 7.3-9.7 14.1-13.3 21.7-3 6.2-6.5 15-9.3 26 3.9.7 7.8 1.3 11.7 2-.2 3.8-.2 9.4 1.3 16 1.4 6 3.7 15.6 11.7 22.3 11 9.4 25.6 7.1 28.3 6.7.2 4.7 1.2 11.4 5 18.3 1 1.7 2 3.3 3 4.7 5.5-1.6 14-4.9 22.3-11.7 21.2-17.1 24.1-42.6 25-50 1.3-11.4 3.8-32.9-10.3-50.7-14.7-18.4-42.6-27.1-60.1-18.3z" fill="#fff"/><path d="M829.7 201c2.8-4.2 8.2-10.4 14.3-14.7 9.8-6.9 14.2-4 19.2-10.1 3.6-4.4 5.9-11.6 3.2-15-4.3-5.4-19.6 1.1-21.6 2-4.4 1.9-18.9 8-24.7 23.4-4.8 12.9-1.6 27 .6 27.3.6.1 1-.9 4.2-5.8 1.5-2.5 3.2-4.8 4.8-7.1z" fill="#5222D0"/><path d="M851.499 170.9c-.8 2.6-2 7.8 2 18 7.1 18.3 23.7 34.7 32 31.7 1.8-.7 3.7-2.5 7.3-2.7.9 0 4.5-.2 7.3 2 4.4 3.5 4.6 11.1 1.7 16-.5.9-3.2 5-7.3 5.3-3.6.3-4.8-2.5-7.7-2.7-7.1-.4-13.2 15.2-14 17.3-1.6 4-5.5 14.4-2.7 27.7.6 2.9 2 9 6.3 15.3 9.3 13.5 24.9 16.8 30.7 18 5.7 1.2 27.4 5.7 44.3-8.3 2.7-2.2 11.6-9.8 14-22.7 4.1-21.8-14.2-38.1-15.3-39-.8-11.3-3.5-29.3-13-49-6-12.5-11.6-24-24.3-32.7-16.7-11.3-41-14.5-53.7-4.7-1.3 1.2-5.6 4.6-7.6 10.5zM832.5 278.2c-1.5 1.5-5.9 6.1-6.7 13.3-1.1 10 5.6 16.9 7 18.3 7.3 7.5 19.5 10.5 28.3 6 .7-.3 8.4-4.4 8.7-10.3.1-2.6-1.3-3.9-3.3-9.7-1.3-3.8-2.1-6.9-2.7-9-2.7.9-7.3 2.1-13 1.3-10.2-1.3-16.5-7.9-18.3-9.9z" fill="#5222D0"/><path opacity=".12" d="M852.5 179.7c.1 3.1.5 7.7 2.6 12.6 1.4 3.3 2.8 5.3 3.9 6.9 4.2 6.4 5.6 12.4 7.8 19.1 3.5 10.4 2.9 19.1 2.2 29.9-.6 9-2.6 22.7-9.1 38.6 2.7.8 6.6 2.4 10.8 5.2 7.7 5.2 11.2 11.4 13.4 14.3 4.5 5.9 14.5 12.1 38.6 11.7-2.4-2.4-5.8-6-9.5-10.4-8.7-10.2-16.3-19.1-20.8-29.9-2.6-6.2-6.6-18.9-3.5-37.3 2.8 1.4 6.1 1.3 8.7-.4 2.7-1.8 4.4-5.4 3.5-8.7-1.1-3.8-5.7-6.4-10.4-5.2-1-2.5-2.6-6.1-5.2-10-4.1-6.1-8.4-9.9-10-11.3-5.1-4.4-12.5-11.9-23-25.1z" fill="#606060"/><path opacity=".14" d="M813.399 239.1c.1-1.6 5.2-2.9 9.5-2.6 3.8.3 8.3 2 8.2 3.5-.1 1.4-4.3 2.5-7.4 2.6-4.8.2-10.3-1.9-10.3-3.5z" fill="#606060"/><path d="M825.8 201.9c-5.7 12.5-10.8 25.2-15.2 38.2-.3.8.3 1.6 1 1.8 3.9 1.5 7.8 2.2 11.9 2.1 1.9 0 1.9-3 0-3-3.9 0-7.5-.7-11.1-2 .3.6.7 1.2 1 1.8 4.3-12.8 9.2-25.3 14.9-37.5.9-1.6-1.7-3.2-2.5-1.4z" fill="#161616"/><path d="M823.1 244.6c.8 12.9 2 27.2 11.6 36.9 9.2 9.4 22.5 8.6 34.6 7.2 1.9-.2 1.9-3.2 0-3-11.2 1.3-23.9 2.4-32.5-6.3-9-9.1-9.9-22.7-10.7-34.8-.1-1.9-3.1-1.9-3 0z" fill="#161616"/><path d="M863.4 289c1.3 7 3.7 13.7 7.1 19.9.9 1.7 3.5.2 2.6-1.5-3.3-6.1-5.5-12.4-6.8-19.2-.3-1.9-3.2-1.1-2.9.8zM825.1 259.9c4.9 4.3 12.2 2.3 14.1-4 .6-1.9-2.3-2.6-2.9-.8-1.2 4-5.9 5.5-9 2.6-1.5-1.2-3.6.9-2.2 2.2z" fill="#161616"/><path d="M834.3 255.8c1.6.4 2.8 1.3 3.8 2.5.5.6 1.6.5 2.1 0 .6-.6.5-1.5 0-2.1-1.3-1.6-3.1-2.8-5.1-3.3-1.8-.5-2.6 2.4-.8 2.9zM838.8 218.4c.8-4.2 6-3.4 8.8-1.9 2.4 1.3 4.1 3.4 5.1 5.9.7 1.8 3.6 1 2.9-.8-1.6-4.3-4.9-7.7-9.5-8.9-4.2-1.1-9.2.2-10.1 4.9-.4 1.9 2.5 2.7 2.8.8zM838.7 200.7c4.5-7.5 13.3-1.7 15.1 4.6.5 1.9 3.4 1.1 2.9-.8-1.3-4.6-4.5-8.9-9.4-10.1-4.4-1-8.9.9-11.2 4.7-1 1.8 1.6 3.3 2.6 1.6zM841.7 235.4c1.9 0 1.9-3 0-3s-2 3 0 3zM847.399 230.9h.4c.8 0 1.5-.7 1.5-1.5s-.7-1.5-1.5-1.5h-.4c-.8 0-1.5.7-1.5 1.5 0 .9.7 1.5 1.5 1.5zM847.5 236v.3c0 1.9 3 1.9 3 0v-.3c0-1.9-3-1.9-3 0v.3c0 1.9 3 1.9 3 0v-.3c0-1.9-3-1.9-3 0zM891.099 220.7c2.7-3.9 7.3-1.4 8.9 1.8 1.3 2.5 1.3 5.5 1.2 8.2-.4 6.8-6.1 11.6-12.7 7.4-1.6-1.1-3.1 1.5-1.5 2.6 3.9 2.6 8.9 2.9 12.8-.1 4-3.1 4.7-8.2 4.4-13-.3-4.6-2.1-9.7-6.9-11.4-3.4-1.2-6.8.1-8.8 3-1 1.5 1.6 3 2.6 1.5z" fill="#161616"/><path d="M622.099 163.6c-2.1 0-4.2.1-6.2.1-3.4 6.6-5.3 12.6-6.4 17-3.2 12.9-2.4 23.6-1.8 28.8.4 3.5 1 6.4 1.5 8.4h5.4l2.1 7.2c16.9-.1 30.8-.1 40.5 0 58.8.5 99.8 2.8 109.3 3.3 11.9.7 21.6 1.4 27.6 1.8.2-3.7 1.2-5 2.1-5.4 1.6-.7 3 1 5.1.6 2.2-.4 3.6-2.7 4.5-4.8 1.8.9 5.1 2.1 9 1.5.9-.1 1.7-.4 2.4-.6l5.1-10.2c-2.4-.8-5.8-1.5-9.9-1.5-2.3 0-4.3.3-6 .6-.2-.5-1.8-5-6-6-1.3-.3-2.4-.2-3.3 0l-1.8-3.3c-2.4-.4-6.1-1-10.5-1.8-35.7-6.5-60.6-14.4-79.6-20.1-18.2-5.5-44.7-13-78.7-21.3-1.4 1.9-2.9 3.8-4.4 5.7z" fill="#fff"/><path opacity=".07" d="M607.999 202.4c.9-.2 1.9 2.1 3 1.8 1.8-.4 1.4-6.7 1.8-11.4.3-4.5 1.6-11 6-18.9 2.9 1.2 7.3 3.1 12.6 5.4 19.1 8.3 32.3 14.7 36.3 16.5 26.4 12.3 55.4 17.8 62.7 19.2 16.6 3.2 39.6 6 67.2 4.8l-3.6 9.9c-4.6-.1-11.3-.1-19.5-.3-35.2-.7-59.8-1.8-73.9-2.4-19.9-.8-48.4-1.6-84.4-1.5l-1.2-8.1-6.9 1.2c-1.5-12.5-1.1-16-.1-16.2z" fill="#606060"/><path d="M624.2 158c-12.5 19.3-16 43.3-9.6 65.4.5 1.9 3.4 1.1 2.9-.8-6.2-21.4-2.8-44.4 9.3-63.1 1.1-1.7-1.5-3.2-2.6-1.5z" fill="#161616"/><path d="M626.8 160.9c56.3 14.2 112.5 28.4 168.8 42.5 1.9.5 2.7-2.4.8-2.9-56.3-14.2-112.5-28.4-168.8-42.5-1.8-.5-2.6 2.4-.8 2.9zM616.699 226.7c58.7-.5 117.4.9 176 4.1 1.9.1 1.9-2.9 0-3-58.6-3.2-117.3-4.6-176-4.1-1.9 0-1.9 3 0 3z" fill="#161616"/><path d="M794.7 202.3c4 8.9 3.1 19-2.4 27.1-1.1 1.6 1.5 3.1 2.6 1.5 6.1-9 6.9-20.2 2.4-30.1-.8-1.7-3.4-.2-2.6 1.5z" fill="#161616"/><path d="M797.7 206.2c1.1.8 1.9.5 3.2.8 2.5.7 3.5 3 4 5.4.8 4.4-.3 13.7-6.8 11.1-1.8-.7-2.6 2.2-.8 2.9 6.6 2.6 10.9-4.3 10.9-10.1 0-3.2-.4-6.8-2.2-9.5-.6-.9-1.4-1.8-2.4-2.3-1.3-.6-3.1-.2-4.2-1-1.8-1-3.3 1.6-1.7 2.7z" fill="#161616"/><path d="M806.499 211.7c5.1-.3 10.2-.2 15.2.5 1.9.2 1.9-2.8 0-3-5.1-.6-10.1-.8-15.2-.5-1.9.2-1.9 3.2 0 3zM806.1 222.7c4.1.7 8.2 1 12.3.6 1.9-.2 1.9-3.2 0-3-3.9.3-7.7.2-11.5-.5-1.9-.3-2.7 2.5-.8 2.9zM622.5 162.8c-9.7-5.6-12.4 11.9-13.7 17.4-3 12.7-4.4 25.8-.7 38.5.2.6.8 1.1 1.4 1.1h4c1.9 0 1.9-3 0-3h-4c.5.4 1 .7 1.4 1.1-2.6-9.2-2.6-18.5-1.1-27.9.7-4.2 1.6-8.4 2.7-12.5.7-2.7 2.9-15.4 8.4-12.1 1.8 1 3.3-1.6 1.6-2.6z" fill="#161616"/><path d="M730.6 184.3c-1.8-2.2-4.8-1.9-5.2-1.9-3.3.2-6.5 3.2-10 10.5-6.8 13.9-7.1 27.8-7.1 30-.1 9.6.8 25.2 7.6 43.8.6 7.8 1.9 18.7 4.8 31.4 5.1 22.8 10.5 46.8 29.1 68.1 7 8.1 20.8 23.8 44.8 29.5 25.1 6 45.5-2.9 50.5-5.2 4.4-2.1 16.7-8.3 27.1-21.4 6.3-7.9 13.6-16.5 12.4-27.1-.5-4.6-2.5-8.5-5.5-14.7-3-6.2-4.6-9.3-7.8-10.5-4.4-1.7-9.1 1.3-14.3 4.3-8.8 5-9.6 9.8-19.1 14.8-2.5 1.3-5 2.2-10 3.8-7.9 2.6-15.7 5.2-22.9 5.7-15.7 1.1-28.3-7.9-31.9-10.5-13.3-9.5-18.5-22.2-21.9-30.5-7.6-18.6-7-35.7-5.7-45.7 4.7-.8 7.6-2.7 9-3.8 5.3-4.1 6.6-9.8 8.6-18.6 1.3-5.5 1.9-8.4.5-9.5-2.9-2.2-11.8 5-13.8 6.7.4-6.8 1.4-12.3 2.4-16.2 1.3-5.2 2-7.9 3.8-10 3.5-4.1 7.6-3.7 9-7.6.8-2.1.7-5-1-6.7-2-2-6.3-1.9-10 1-1.2-2.6-3.6-4.2-6.2-4.3-2.6-.1-4.3 1.5-4.8 1.9.3-2.7-.9-5.2-2.9-6.2-2.7-1.4-7 .2-8.6 4.3.1-.5.8-3.3-.9-5.4z" fill="#fff"/><path opacity=".12" d="M725.4 182.4c-2.4 4.2-5.4 10.4-7.4 18.5-4.4 17.6-.8 32.3.8 39.4 17.2 73.3 9.7 75.1 21.7 92.3 4.4 6.2 34.6 47.8 79.6 42.3 37.7-4.6 57.7-38.9 60.3-43.5 1.5 4 3.3 10.8 2.1 18.9-1.8 11.9-9.2 19.4-11.9 22.2-2.6 2.6-5.8 4.9-12.3 9.4-5.8 4.1-11.5 7.7-14 9-11.9 6.7-30.3 8.3-43.1 6.6-34.8-4.6-55.7-37.6-64.4-51.3-19.9-31.3-21.9-63-21.7-78.8-1.9-6.4-3.8-12.9-5.7-19.3-1.3-9.9-1.4-18.1-1.2-23.8.5-14.3.9-25 8.2-34.1 3.2-4 6.7-6.4 9-7.8z" fill="#606060"/><path d="M860.8 380.4c15.8-7.5 26.4-23.2 23.8-41-1.5-10.8-10.2-29.4-24.1-22.8-6.2 3-11.3 8.5-17 12.4-7.9 5.4-17 9.6-26.1 12.5-11.6 3.7-24.5 4.5-35.7-1.1-8.2-4.1-14.6-10.8-19.5-18.4-10.8-16.7-16.4-36.4-15.1-56.3.1-1.9-2.9-1.9-3 0-1.1 16.8 2.6 32.8 10 47.8 6.5 13.4 16 26 30.4 31.4 17.5 6.5 36.6-.1 52.4-8.4 7.1-3.8 13.2-8.7 19.6-13.6 5.8-4.5 11.6-6.7 17.5-.7 7.3 7.4 9.5 20.3 7.3 30.1-2.7 11.7-11.4 20.5-22 25.5-1.7.8-.2 3.4 1.5 2.6z" fill="#161616"/><path d="M746.9 267c-1.3-5.5 2.6-6.9 6.2-9.5 2.1-1.5 3.7-3.6 5.2-5.7 3.8-5.5 6.8-11.9 7.6-18.6.4-3.3 1.1-8.5-3.4-8.7-5.3-.2-7.5 6.5-12.5 7-1.9.2-1.9 3.2 0 3 3.8-.4 5.7-2.8 8.6-5 1.7-1.3 3.6-2.8 4.5.1.5 1.6-.3 4.6-.7 6.2-.7 3.4-2.2 6.7-3.8 9.8-1.5 2.8-3.2 5.7-5.5 8-2.1 2.2-5 2.7-7.3 4.5-3.1 2.4-2.6 6.5-1.8 9.8.5 1.8 3.4 1 2.9-.9zM712 251.2c-2-12.9-2.2-26.1-.2-39 .8-5.2 1.8-10.5 3.6-15.5 1.1-3.1 2.6-6.7 4.8-9.2 3-3.3 8.9-5 10.5.6.5 1.9 3.4 1.1 2.9-.8-1.4-4.8-6-7.4-10.8-5.5-6.1 2.5-9 10-10.9 15.7-5.6 17.3-5.6 36.7-2.9 54.5.4 1.9 3.3 1.1 3-.8z" fill="#161616"/><path d="M726.499 199.6c2.4-5.9 9.2-17.8 16.6-9.7 1.3 1.4 3.4-.7 2.1-2.1-3.4-3.7-8.3-4.3-12.6-1.8-4.8 2.7-7 8-9 12.9-.7 1.7 2.2 2.5 2.9.7z" fill="#161616"/><path d="M739.1 202.1c.1-3.8 1.6-8 5.3-9.8 3.1-1.5 6.8-.8 8.9 1.9 1.2 1.5 3.3-.6 2.1-2.1-2.9-3.6-8.1-4.5-12.2-2.6-4.8 2.3-7 7.5-7.1 12.6-.1 1.9 2.9 1.9 3 0z" fill="#161616"/><path d="M747.799 203.1c1.8-6.7 9.3-12.8 15.8-7.4 1.5 1.2 3.6-.9 2.1-2.1-8.3-6.8-18.3-.4-20.8 8.7-.5 1.9 2.4 2.7 2.9.8z" fill="#161616"/><path d="M763 195.2c3.2 4.5-3.9 7.3-6.4 9.4-2.1 1.7-3.3 3.9-4.2 6.4-2.4 6.9-3.5 14.4-4.1 21.6-.2 1.9 2.8 1.9 3 0 .5-5.3 1.3-10.6 2.6-15.8.4-1.7.8-3.4 1.4-5.1 1.3-3.5 3.2-4.8 6.1-6.9 3.6-2.6 7.4-6.8 4.2-11.3-1.1-1.4-3.7.1-2.6 1.7zM708.299 248.2c1.6 6.8 3.601 13.5 6.101 20.1.7 1.8 3.599 1 2.899-.8-2.5-6.6-4.499-13.3-6.099-20.1-.4-1.9-3.301-1.1-2.901.8z" fill="#161616"/><path d="M713.9 270.2c3.8 34.4 12.3 69.7 35.4 96.5 18.4 21.3 47.6 37.5 76.4 32.2 13.6-2.5 26-9.3 35.9-18.8 1.4-1.3-.7-3.5-2.1-2.1-19.8 19-48 24-73.1 12.7-27-12.3-45.9-35.4-56.6-62.7-7.2-18.5-10.8-38.1-13-57.7-.1-2-3.1-2-2.9-.1z" fill="#161616"/></svg>