<?xml version="1.0" encoding="utf-8"?>
<!-- Generator: Adobe Illustrator 19.0.0, SVG Export Plug-In . SVG Version: 6.00 Build 0)  -->
<svg version="1.1" xmlns="http://www.w3.org/2000/svg" xmlns:xlink="http://www.w3.org/1999/xlink" x="0px" y="0px"
	 viewBox="0 0 1600 1200" style="enable-background:new 0 0 1600 1200;" xml:space="preserve">
<style type="text/css">
	.st0{fill:#EC615B;}
	.st1{fill:#5222D0;}
	.st2{fill:#E8E8E8;}
	.st3{fill:#FFFFFF;}
	.st4{fill:#161616;}
	.st5{opacity:0.12;fill:#3F3F3F;}
	.st6{opacity:0.13;fill:#3F3F3F;}
	.st7{fill:#C64F4F;}
	.st8{opacity:0.19;fill:#3F3F3F;}
	.st9{opacity:0.11;fill:#3F3F3F;}
	.st10{opacity:0.1;fill:#3F3F3F;}
	.st11{opacity:0.14;fill:#3F3F3F;}
	.st12{opacity:0.2;fill:#3F3F3F;}
	.st13{opacity:0.16;fill:#3F3F3F;}
</style>
<g id="background">
	<g id="details">
		<circle class="st0" cx="1033" cy="281.3" r="16.3"/>
		<circle class="st0" cx="1050.3" cy="244.8" r="7.6"/>
		<circle class="st0" cx="552" cy="145.7" r="7.8"/>
		<circle class="st0" cx="1062.4" cy="1053.2" r="13.2"/>
		<circle class="st0" cx="461.7" cy="1105.5" r="6.1"/>
		<circle class="st0" cx="537.9" cy="654.7" r="6.3"/>
		<circle class="st1" cx="550.3" cy="687" r="6.1"/>
		<circle class="st1" cx="543" cy="851.7" r="11.4"/>
		<circle class="st1" cx="1023.9" cy="208" r="7.2"/>
		<circle class="st1" cx="750" cy="221.5" r="6.3"/>
		<circle class="st1" cx="188.3" cy="715.8" r="4.8"/>
		<circle class="st1" cx="1045.7" cy="1087.4" r="12"/>
		<circle class="st1" cx="1174.2" cy="65.7" r="6.3"/>
		<g>
			<g>
				<path class="st1" d="M562.1,348.9c-1-6.2-1.9-18.6,8-17.6c3.6,0.4,5.6,3.6,9.6,2.2c7.5-2.6,5.8-12.3,8.9-17.9
					c5.1-9,15,4.1,22.6-0.2c2.5-1.4,3.1-4,3-6.7c-0.2-10.1,8.7-9.4,16-7.4c1.9,0.5,2.7-2.4,0.8-2.9c-7.4-2-19.7-2.7-20,8
					c-0.1,2.6,1.3,5.2-2.5,6.8c-1.2,0.5-3.2-0.1-4.3-0.4c-2.6-0.8-4.9-2.6-7.6-3.3c-3.5-1-6.9-0.3-9.3,2.5c-3,3.6-2.9,8.5-4.3,12.7
					c-1.5,4.5-4.4,7.1-9.3,4.9c-2-0.9-3.8-1.7-6.1-1.4c-10.3,1.4-9.8,13.9-8.5,21.5C559.5,351.6,562.4,350.8,562.1,348.9
					L562.1,348.9z"/>
			</g>
		</g>
		<g>
			<g>
				<path class="st1" d="M573.9,354.7c0.8-6.2,5.8-8.9,11.6-8.9c3.1,0,6.2,0.5,9.2-0.6c6.8-2.6,5.5-10,7.1-15.8
					c3-11,16.9-4.2,24.6-6c5.2-1.3,9.6-6.5,7.4-12c-0.7-1.8-3.6-1-2.9,0.8c3.4,8.3-8.2,8.8-13.1,8.2c-3.6-0.4-7.1-1-10.7-0.1
					c-5.7,1.5-7.9,5.7-8.7,11.1c-0.7,5-0.6,10.5-7.1,11.3c-3.5,0.4-7-0.6-10.5,0.2c-5.6,1.3-9.2,6-9.9,11.6
					C570.6,356.6,573.6,356.6,573.9,354.7L573.9,354.7z"/>
			</g>
		</g>
		<g>
			<g>
				<path class="st1" d="M780.5,109.1c-3.5,4.4-7.2,9.8-5.5,15.7c1.4,4.8,5.2,6.6,9.8,6.3c2.7-0.2,5.5-0.9,7.7,1.5
					c1.7,1.8,0.6,5.6,0.1,7.6c-0.8,3.1-2.3,6.1-2,9.4c0.5,4.5,4.1,8,8.7,7c1.9-0.4,1.1-3.3-0.8-2.9c-8.7,2-2.7-12.5-2.3-16
					c0.3-2.9-0.2-6.1-2.4-8.2c-2.2-2.1-4.9-1.9-7.7-1.6c-4.4,0.5-8.5-0.9-8.7-6.2c-0.1-4,2.7-7.6,5.1-10.6
					C783.9,109.8,781.7,107.6,780.5,109.1L780.5,109.1z"/>
			</g>
		</g>
		<g>
			<g>
				<path class="st1" d="M804.1,107.6c-4.7,2-7.7,6.9-6.5,12c0.6,2.3,2,4.5,4,5.9c2.4,1.8,5.2,1.4,7.6,2.9c4.5,2.7,0.9,8,1.1,12.2
					c0.1,2.1,0.6,4,2.4,5.3c2.7,2.1,6.7,1.4,7.8-2c0.6-1.8-2.3-2.6-2.9-0.8c-3.8-0.5-5.1-2.2-4-5.1c0.2-1,0.4-2,0.6-3
					c0.2-1,0.3-2,0.3-3c0-2.1-0.6-4.3-2.2-5.8c-2.4-2.2-6.1-1.3-8.7-3.1c-5.3-3.7-3.4-10.7,2-13
					C807.4,109.4,805.8,106.9,804.1,107.6L804.1,107.6z"/>
			</g>
		</g>
		<g>
			<g>
				<path class="st0" d="M150.2,698.7c-2.3-3.6-2.3-8,0-11.7c2.3-3.6,5.5-3.7,9.2-5.1c5.1-2.1,5.2-7.4,4.9-12.2
					c-0.1-1.7-0.2-3.5,0.3-5.2c1.3-4,4.7-2.9,7.8-2.4c1.8,0.3,3.5,0,5-1c1.9-1.3,3.1-3.6,3.7-5.8c0.5-1.8,0.6-3.7,1-5.5
					c0.2-1.3,0.6-2.5,1.2-3.6c1.6-2.5,3.5-2.7,5.8-0.5c0.5,1.9,3.4,1.1,2.9-0.8c-1.8-6.5-9.8-3.6-11.8,1c-0.9,2.1-1,4.4-1.5,6.6
					c-0.3,1.3-0.5,2.7-1.2,3.9c-1.5,2.7-4.3,2.2-6.9,1.9c-3.1-0.3-5.5-0.6-7.5,2.3c-2.3,3.3-1.7,7.2-1.7,11c0.1,4.6-0.9,6.4-5.4,7.9
					c-1.8,0.6-3.3,0.9-4.9,2.1c-5.8,4.1-7.3,12.6-3.5,18.5C148.6,701.8,151.2,700.3,150.2,698.7L150.2,698.7z"/>
			</g>
		</g>
		<g>
			<g>
				<path class="st0" d="M162.7,705.6c-4.2-0.6-2.6-5.2-0.7-7c1.4-1.3,3.3-2.1,5.1-3c2.2-1.1,4.4-2.4,6-4.3
					c4.3-5.4-1.9-12.6,4.1-16.9c6-4.2,22.1-6.1,17.4-17.3c-0.7-1.8-3.3-0.2-2.6,1.5c3.4,8.1-13.1,10.5-17.3,13.9
					c-1.5,1.2-2.8,2.8-3.4,4.7c-1.2,4.2,2.3,8.5-0.8,12.5c-3.6,4.4-11.3,4.4-13.1,10.6c-1.1,3.5,0.8,7.7,4.6,8.3
					C163.8,708.8,164.6,705.9,162.7,705.6L162.7,705.6z"/>
			</g>
		</g>
		<g>
			<g>
				<path class="st0" d="M1258.9,473.2c-1.3-2.3-1.1-4.8,0.3-7c2.2-3.2,4.8-2.5,8.2-2.2c2.3,0.2,4.4,0.7,6.6-0.6
					c3.9-2.4,3.3-7.4,4-11.2c1.6-8.9,9.3-0.8,14.5-3.6c1.9-1,2.6-2.9,3-4.9c0.7-3.9,0.9-15.5,8.4-10.8c1.6,1,3.2-1.6,1.5-2.6
					c-6.7-4.1-12.1,2.7-12.7,9c-0.4,3.6,0,7.1-4.8,6.6c-1.7-0.2-3.4-1.1-5.1-1.3c-2.7-0.3-5.1,0.5-6.6,2.9c-1.7,2.8-1.1,6.3-1.8,9.3
					c-1.5,6.8-7.3,3-12,3.8c-6.3,1.1-9.2,8.7-6.2,14C1257.2,476.4,1259.8,474.9,1258.9,473.2L1258.9,473.2z"/>
			</g>
		</g>
		<g>
			<g>
				<path class="st0" d="M1273.8,479.5c-1.7-4.6,3.6-9.7,8.2-7.3c0.6,0.3,1.4,0.3,1.8-0.2c2.3-2.5,2.9-5.4,3.9-8.6
					c1.8-5.8,6.1-6.6,11.3-8.2c5.1-1.6,10.8-5.8,8.7-11.8c-0.7-1.8-3.6-1-2.9,0.8c2.9,7.9-11.3,8.5-15.5,11.4
					c-5.1,3.6-3.6,10.1-7.5,14.3c0.6-0.1,1.2-0.2,1.8-0.2c-6.7-3.5-15.2,3.4-12.6,10.7C1271.6,482.1,1274.5,481.4,1273.8,479.5
					L1273.8,479.5z"/>
			</g>
		</g>
		<g>
			<g>
				<path class="st0" d="M869.9,505.7c0.2,0,2.4,5.4,3.3,6.1c1.4,1.1,3.1,1.2,4.8,0.9c3-0.5,4.9-2.7,7.5-4.1
					c5.6-3.2,5.6,2.3,7.8,5.4c2.5,3.7,5.2,1.9,8.1,0.1c1.9-1.2,3.7-2,5.4-0.3c0.9,0.9,1.5,2.4,2.2,3.5c1.1,1.6,2.3,2.9,4.1,3.7
					c1.7,0.8,3.3-1.8,1.5-2.6c-4.1-1.8-4.6-8.6-9.5-9.3c-2.3-0.3-3.3,1-5.1,2c-2.2,1.3-3.5,2.2-4.9-0.3c-0.6-1-0.7-2.4-1.4-3.4
					c-3.2-5.3-8.2-2.4-12.2,0.2c-0.7,0.5-1.4,1-2.2,1.4c-1.7-0.5-3.5-1-5.2-1.5c-0.7-0.7-0.7-2.4-1.3-3.3c-1-1.4-2-1.8-3.6-1.5
					C867.2,503.1,868,506,869.9,505.7L869.9,505.7z"/>
			</g>
		</g>
		<g>
			<g>
				<path class="st0" d="M893.4,496.1c3-4.7,9.9,5.1,12.7,6.3c1.7,0.7,3.3,0.7,5.1,0.2c0.8-0.2,1.5-0.6,2.2-0.9
					c2.7-1.1,5-0.4,7.2,1.5c3.2,2.7,4.1,6.3,8.7,7.3c2.7,0.6,5.2-0.2,6.4-2.8c0.8-1.7-1.8-3.3-2.6-1.5c-2.8,6-10.5-5.8-12.5-7.1
					c-3.7-2.4-6-0.4-9.7,0.4c-5.9,1.2-7.8-5.4-12.7-7c-2.9-1-5.7-0.5-7.3,2.2C889.7,496.3,892.3,497.8,893.4,496.1L893.4,496.1z"/>
			</g>
		</g>
	</g>
	<g id="background_grey">
		<g>
			<g>
				<path class="st2" d="M1267.1,670.9c53.1,0,106.2,0,159.4,0c1.9,0,1.9-3,0-3c-53.1,0-106.2,0-159.4,0
					C1265.2,667.9,1265.2,670.9,1267.1,670.9L1267.1,670.9z"/>
			</g>
		</g>
		<g>
			<g>
				<path class="st2" d="M1310.6,670.2c0,15.5,0,30.9,0,46.4c0,1.9,3,1.9,3,0c0-15.5,0-30.9,0-46.4
					C1313.6,668.3,1310.6,668.3,1310.6,670.2L1310.6,670.2z"/>
			</g>
		</g>
		<g>
			<g>
				<path class="st2" d="M1384.8,668.7c0-21.6,0-43.2,0-64.8c0-1.9-3-1.9-3,0c0,21.6,0,43.2,0,64.8
					C1381.8,670.7,1384.8,670.7,1384.8,668.7L1384.8,668.7z"/>
			</g>
		</g>
		<g>
			<g>
				<path class="st2" d="M1349.5,605.1c20.1,0,40.2,0,60.3,0c1.9,0,1.9-3,0-3c-20.1,0-40.2,0-60.3,0
					C1347.6,602.1,1347.6,605.1,1349.5,605.1L1349.5,605.1z"/>
			</g>
		</g>
		<g>
			<g>
				<path class="st2" d="M1310,245c0,18.7,0,37.4,0,56c0,1.9,3,1.9,3,0c0-18.7,0-37.4,0-56C1313,243.1,1310,243.1,1310,245L1310,245
					z"/>
			</g>
		</g>
		<g>
			<g>
				<path class="st2" d="M1263.3,305.3c36.1,0,72.1,0,108.2,0c1.9,0,1.9-3,0-3c-36.1,0-72.1,0-108.2,0
					C1261.3,302.3,1261.3,305.3,1263.3,305.3L1263.3,305.3z"/>
			</g>
		</g>
		<g>
			<g>
				<path class="st2" d="M1370.5,304.9c0,12.4,0,24.8,0,37.2c0,1.9,3,1.9,3,0c0-12.4,0-24.8,0-37.2
					C1373.5,303,1370.5,303,1370.5,304.9L1370.5,304.9z"/>
			</g>
		</g>
		<g>
			<g>
				<path class="st2" d="M366.2,186.7c35.3,0,70.7,0,106,0c1.9,0,1.9-3,0-3c-35.3,0-70.7,0-106,0
					C364.3,183.7,364.2,186.7,366.2,186.7L366.2,186.7z"/>
			</g>
		</g>
		<g>
			<g>
				<path class="st2" d="M467.8,186.4c0,9.6,0,19.2,0,28.8c0,1.9,3,1.9,3,0c0-9.6,0-19.2,0-28.8
					C470.8,184.4,467.8,184.4,467.8,186.4L467.8,186.4z"/>
			</g>
		</g>
		<g>
			<g>
				<path class="st2" d="M435.7,184c0-15.4,0-30.7,0-46.1c0-1.9-3-1.9-3,0c0,15.4,0,30.7,0,46.1C432.7,186,435.7,186,435.7,184
					L435.7,184z"/>
			</g>
		</g>
		<g>
			<g>
				<path class="st2" d="M156.5,494.9c24.4,0,48.8,0,73.2,0c1.9,0,1.9-3,0-3c-24.4,0-48.8,0-73.2,0
					C154.6,491.9,154.6,494.9,156.5,494.9L156.5,494.9z"/>
			</g>
		</g>
		<g>
			<g>
				<path class="st2" d="M201.2,464.8c0,9,0,18,0,27c0,1.9,3,1.9,3,0c0-9,0-18,0-27C204.2,462.9,201.2,462.9,201.2,464.8
					L201.2,464.8z"/>
			</g>
		</g>
		<g>
			<g>
				<path class="st2" d="M183.6,466.3c13,0,26,0,39,0c1.9,0,1.9-3,0-3c-13,0-26,0-39,0C181.6,463.3,181.6,466.3,183.6,466.3
					L183.6,466.3z"/>
			</g>
		</g>
		<g>
			<g>
				<path class="st2" d="M624,1096.8c32.6,0,65.2,0,97.8,0c1.9,0,1.9-3,0-3c-32.6,0-65.2,0-97.8,0C622,1093.8,622,1096.8,624,1096.8
					L624,1096.8z"/>
			</g>
		</g>
		<g>
			<g>
				<path class="st2" d="M684.2,1093.8c0-7,0-14,0-21.1c0-1.9-3-1.9-3,0c0,7,0,14,0,21.1C681.2,1095.8,684.2,1095.8,684.2,1093.8
					L684.2,1093.8z"/>
			</g>
		</g>
		<g>
			<g>
				<path class="st2" d="M675.1,1072.8c13.5,0,27.1,0,40.6,0c1.9,0,1.9-3,0-3c-13.5,0-27.1,0-40.6,0
					C673.2,1069.8,673.2,1072.8,675.1,1072.8L675.1,1072.8z"/>
			</g>
		</g>
		<g>
			<g>
				<path class="st2" d="M158.8,1044.2c32.6,0,65.2,0,97.8,0c1.9,0,1.9-3,0-3c-32.6,0-65.2,0-97.8,0
					C156.9,1041.2,156.9,1044.2,158.8,1044.2L158.8,1044.2z"/>
			</g>
		</g>
		<g>
			<g>
				<path class="st2" d="M204,1005c0,11.5,0,23.1,0,34.6c0,1.9,3,1.9,3,0c0-11.5,0-23.1,0-34.6C207,1003.1,204,1003.1,204,1005
					L204,1005z"/>
			</g>
		</g>
		<g>
			<g>
				<path class="st2" d="M204,1000.5c-13,0-26.1,0-39.1,0c-1.9,0-1.9,3,0,3c13,0,26.1,0,39.1,0
					C205.9,1003.5,205.9,1000.5,204,1000.5L204,1000.5z"/>
			</g>
		</g>
		<g>
			<g>
				<path class="st2" d="M1245.9,956.2c-3.3-3.3-2.5-9.7,2.6-10.8c2.7-0.6,5.3,1.1,7.9,1.4c2,0.3,4.1,0.1,5.4-1.7
					c2-2.6,0.4-5.6,0.3-8.5c-0.2-9.1,10.6-8.5,16-5.3c1.2,0.7,2.5-0.5,2.2-1.7c-2.6-12.5,11.7-21.1,21.5-12.8
					c1.5,1.2,3.6-0.9,2.1-2.1c-12.1-10.2-29.8,0.2-26.5,15.8c0.7-0.6,1.5-1.1,2.2-1.7c-4.6-2.8-10.5-4.2-15.4-1.1
					c-1.8,1.1-3.4,2.8-4.2,4.8c-0.6,1.4-0.9,2.7-0.8,4.2c0.1,2.7,1,2.5-1,5.1c-2.2,2.9-2.4,1.6-5.5,0.9c-1.1-0.3-2.1-0.5-3.3-0.4
					c-2.5,0.1-4.8,1.3-6.4,3.1c-3.5,3.9-2.6,9.4,0.9,12.9C1245.2,959.7,1247.3,957.6,1245.9,956.2L1245.9,956.2z"/>
			</g>
		</g>
		<g>
			<g>
				<path class="st2" d="M1265.4,959.2c-1.1-9.1,13.8-9.2,18-15.5c1.1-1.6,1.5-3.4,2.2-5.1c1.3-3.1,3.6-5.1,7-6
					c5.5-1.4,11.2,1.1,16.2,3.2c1.8,0.7,2.6-2.2,0.8-2.9c-9.2-3.8-21.6-6.7-26.7,4.5c-1.8,4-2.4,6.2-6.6,8.3
					c-2.5,1.2-5.1,1.9-7.5,3.3c-3.8,2.2-6.8,5.6-6.3,10.2C1262.7,961.1,1265.7,961.1,1265.4,959.2L1265.4,959.2z"/>
			</g>
		</g>
		<g>
			<g>
				<path class="st2" d="M835.3,668.4c2,5,4,10.1,6,15.1c0.2-0.6,0.5-1.1,0.7-1.7c-1.1,0.7-2.2,1.4-3.3,2.2c-1.7-4-1-5,2.2-3.2
					c1.9,1.2,2.8,3.8,3.2,5.9c0.9,4.8-0.1,9.8-1.7,14.4c-0.4,1.2,0.8,2,1.8,1.8c6-1.2,8.4,6,7.2,10.5c-0.9,3.3-2.7,6.2-4.5,9.1
					c-1,1.6,1.6,3.1,2.6,1.5c3.2-5,6.9-11.2,4.7-17.4c-1.7-4.6-5.9-7.5-10.8-6.6c0.6,0.6,1.2,1.2,1.8,1.8c2-5.8,3.3-13.1,0.8-19
					c-1.7-3.9-5.6-6.9-10-5.6c-3.4,1-5.1,4.4-3.5,7.7c2.7,5.5,7.4,1.8,10.9-0.5c0.5-0.3,0.9-1.1,0.7-1.7c-2-5-4-10.1-6-15.1
					C837.5,665.9,834.6,666.6,835.3,668.4L835.3,668.4z"/>
			</g>
		</g>
		<g>
			<g>
				<path class="st2" d="M243.9,195.3c-1.9-4.8,4.5-6.1,7.5-4.4c2.3,1.3,3.8,3.6,5.2,5.7c1.3,1.9,2.7,4,3.4,6.2
					c0.8,1.9,0.7,3.7-0.3,5.5c-3.5,1.6-5.3,1.2-5.4-1.1c-0.9-3.3,2.6-5.5,5.6-5.4c3.1,0.1,6,1.9,8.1,4.1c3.6,3.8,4.9,8.8,4.4,13.9
					c0.9-0.3,1.9-0.5,2.8-0.8c-2-2.9-0.1-6,2.6-7.5c2.3-1.2,4.9-0.9,7.1,0.3c3.6,1.9,6.1,5.4,8.4,8.6c1.1,1.6,3.7,0.1,2.6-1.5
					c-3.8-5.3-9.5-12.7-17-11c-5.5,1.2-9.9,7.6-6.3,12.6c0.9,1.3,2.6,0.7,2.8-0.8c0.9-9.5-6.1-22.5-17.3-20.9
					c-4,0.6-6.9,3.4-6.9,7.5c0,3.2,2,6.5,5.4,6.7c4,0.3,6.7-3.6,6.9-7.2c0.3-5-3.6-10.4-6.6-14.1c-2.8-3.3-6.9-6.1-11.3-4.4
					c-3.6,1.3-6,4.9-4.5,8.6C241.7,197.9,244.6,197.1,243.9,195.3L243.9,195.3z"/>
			</g>
		</g>
		<g>
			<g>
				<path class="st2" d="M770.7,342c-4.2-2.5-1.2-9.9,3.5-6.8c4.5,3-1.5,8.1-4.4,4.6c-1.2-1.5-3.3,0.6-2.1,2.1
					c2.3,2.8,6.7,2.6,9.3,0.3c3-2.7,2.2-7.1-0.9-9.3c-3.1-2.2-7.6-1.8-9.5,1.8c-1.9,3.4-0.6,8,2.7,9.9
					C770.8,345.5,772.3,343,770.7,342L770.7,342z"/>
			</g>
		</g>
		<g>
			<g>
				<path class="st2" d="M1089.3,123.3c-2.2-3.1,1.6-7.8,5.1-6.4c-0.3-0.2-0.6-0.5-0.9-0.7c1.9,3.3-0.9,7.8-4.6,7.6
					c0.5,0.4,1,0.7,1.4,1.1c-0.6-1.7-1.3-3.5-1.9-5.2c-0.7-1.8-3.6-1-2.9,0.8c0.6,1.7,1.3,3.5,1.9,5.2c0.2,0.7,0.7,1.1,1.4,1.1
					c3.2,0.2,6-1.8,7.4-4.6c1.1-2.2,1.7-6.8-1-8.2c-5.9-2.9-12,5.9-8.5,10.8C1087.8,126.4,1090.4,124.9,1089.3,123.3L1089.3,123.3z"
					/>
			</g>
		</g>
		<g>
			<g>
				<path class="st2" d="M1170.7,272c-0.5-2.3,1.2-4.8,3.5-5.3c2.1-0.4,4,1.3,4.5,3.2c1.3,4.5-4.6,6.6-7.4,3.5
					c-1.3-1.4-3.4,0.7-2.1,2.1c5.2,5.8,15.2,0.1,12-7.3c-1.4-3.3-4.9-5.4-8.4-4.3c-3.7,1.2-5.9,5.1-5.1,8.9
					C1168.3,274.7,1171.2,273.9,1170.7,272L1170.7,272z"/>
			</g>
		</g>
		<g>
			<g>
				<path class="st2" d="M846.1,1099.7c-3.8-1.8-3.5-7,0-9c3.4-1.9,6.6-0.2,9.7,1.2c2.6,1.2,5.6,2.3,7.9,0c2.1-2,1.7-5.1,1.8-7.7
					c0.4-10.1,10.2-8.1,16.9-5.6c1.8,0.7,2.6-2.2,0.8-2.9c-5.9-2.3-14.1-4.5-18.8,1.3c-1.4,1.7-1.8,3.7-1.9,5.8
					c-0.1,1.4,0.5,4.5-0.3,5.8c-2.2,3.3-5.2,0.3-7.5-0.7c-4.4-1.9-10.7-1.4-13.4,3.2c-2.3,3.9-0.9,9.2,3.2,11.1
					C846.3,1103.1,847.8,1100.5,846.1,1099.7L846.1,1099.7z"/>
			</g>
		</g>
	</g>
	<g id="flower">
		<g>
			<g>
				<path class="st2" d="M894.5,864c-3,36.7-1.4,73.5,4.8,109.8c0.3,1.9,3.2,1.1,2.9-0.8c-6.1-36-7.7-72.6-4.7-109
					C897.7,862.1,894.7,862.1,894.5,864L894.5,864z"/>
			</g>
		</g>
		<g>
			<g>
				<path class="st2" d="M896.5,866.3c15.6,5.4,31.7,9,48.1,10.8c15.4,1.6,33.1,3.3,47.9-2.5c1.8-0.7,1-3.6-0.8-2.9
					c-14.4,5.7-31.9,4-47.1,2.4c-16.1-1.7-32-5.4-47.3-10.7C895.4,862.7,894.7,865.6,896.5,866.3L896.5,866.3z"/>
			</g>
		</g>
		<g>
			<g>
				<path class="st2" d="M920.3,870.4c-5.2-8.1-9.5-16.7-12.5-25.9c-1.4-4.4-2.6-8.8-3.5-13.3c-0.5-2.7-1-5.4-1.3-8.1
					c0-0.3-1.1-7.4,1-6.4c1,0.5,2.7-0.4,2.2-1.7c-5.5-13.9-8.5-28.5-8.8-43.5c-0.5,0.5-1,1-1.5,1.5c0.8,0.3,1.5,0.6,2.3,0.9
					c1,1.2,2.9-0.1,2.5-1.5c-2-6.4-3.3-13-3.7-19.8c-0.1-1.6,0.2-19.6,1.3-19.3c1.2,0.3,2-0.8,1.8-1.8c-1.9-11.3-2.8-22.8-2.3-34.2
					c0.2-5.7,0.7-11.3,1.6-16.9c0.8-5.1,1.2-11.3,5.2-15c-0.8-0.1-1.6-0.2-2.4-0.3c8.4,15.8,13.1,33.1,17.4,50.3
					c4.2,16.9,7.9,34,11.1,51.2c6.5,35.5,10.6,71.4,12.4,107.5c0.1,1.9,3.1,1.9,3,0c-1.8-36.3-5.9-72.5-12.5-108.3
					c-3.3-17.8-7.1-35.5-11.5-53.1c-4.3-16.9-9-33.7-17.3-49.2c-0.5-0.9-1.7-0.9-2.4-0.3c-3.4,3.1-4.4,7.2-5.2,11.5
					c-1.1,6.1-1.9,12.4-2.3,18.6c-0.8,13,0,26,2.2,38.9c0.6-0.6,1.2-1.2,1.8-1.8c-5.8-1.6-5.1,10.9-5.2,13.7c-0.4,9.8,1.1,19.6,4,29
					c0.8-0.5,1.7-1,2.5-1.5c-1.3-1.5-2.4-2-4.4-1.8c-0.8,0.1-1.5,0.6-1.5,1.5c0.3,15.2,3.3,30.1,8.9,44.3c0.7-0.6,1.5-1.1,2.2-1.7
					c-10-4.8-4.2,17.8-3.4,21.2c3,13,8.4,25.4,15.6,36.6C918.8,873.5,921.4,872,920.3,870.4L920.3,870.4z"/>
			</g>
		</g>
		<g>
			<g>
				<path class="st2" d="M936.2,770.5c-0.9-6.4-1.1-12.9-0.3-19.3c0.2-1.6,4-20.4,5.9-19.6c1,0.5,2.2-0.1,2.3-1.3
					c0.6-12.8,4.6-24.2,9.3-36c4.7-11.7,9.3-23,17.1-33.1c-0.7,0-1.4,0-2.1,0c5.7,6.5,5,16.4,5.3,24.5c0.4,9.1,0.7,18.2,0.8,27.3
					c0.2,17.9-0.1,35.8-0.9,53.7c-1.7,36.6-5.8,73.1-12,109.2c-0.3,1.9,2.6,2.7,2.9,0.8c6.5-37.6,10.6-75.7,12.3-113.9
					c0.8-19.2,1-38.4,0.6-57.6c-0.2-9.6-0.4-19.2-1.1-28.8c-0.4-6.3-1.4-12.5-5.8-17.4c-0.5-0.6-1.6-0.6-2.1,0
					c-7.7,10-12.5,21-17.1,32.7c-5.1,12.6-9.4,24.8-10.1,38.6c0.8-0.4,1.5-0.9,2.3-1.3c-6.1-2.7-8.1,10.3-8.9,13.8
					c-2.2,9.4-2.4,18.9-1,28.4C933.5,773.2,936.4,772.4,936.2,770.5L936.2,770.5z"/>
			</g>
		</g>
		<g>
			<g>
				<path class="st2" d="M900.7,976.3c31.3,10.1,65.2,9.6,96.2-1.4c1.8-0.6,1-3.5-0.8-2.9c-30.5,10.8-63.8,11.3-94.6,1.4
					C899.6,972.8,898.8,975.7,900.7,976.3L900.7,976.3z"/>
			</g>
		</g>
		<g>
			<g>
				<path class="st2" d="M992.1,873.6c1.2,16.2,2.5,32.4,3.6,48.6c1.1,16.5,1.5,33.2-1.2,49.6c-0.3,1.9,2.6,2.7,2.9,0.8
					c2.7-16.1,2.5-32.3,1.4-48.5c-1.1-16.8-2.4-33.7-3.7-50.5C995,871.7,992,871.7,992.1,873.6L992.1,873.6z"/>
			</g>
		</g>
	</g>
</g>
<g id="window">
	<path class="st3" d="M458.4,1002c20.4-10.9,40.9-21.8,61.3-32.7c9.6,1.6,22.8,3.7,38.6,5.9c31.6,4.4,82.5,11.5,146.9,13.4
		c64.4,1.9,112.7-2.2,131.1-4c44.3-4.2,71.1-9.9,93-15.8c19.9-5.4,36.3-11.3,48-15.8c9.6,3.2,20.3,7.5,31.7,13.4
		c6.5,3.4,12.5,6.9,17.8,10.4c-18.8,5.4-44.1,12.3-74.2,19.3c-63.4,14.8-112,21.8-122.2,23.3c-58.3,8.3-141.4,20-245.9,7.9
		C552,1023.4,508.7,1016.3,458.4,1002z"/>
	<path class="st4" d="M457.3,1002.1c0.5,4.2,1.1,8.3,1.6,12.5c7.5,2.1,18.5,5.1,32.1,8.1c26,5.8,52.4,9.8,86.9,12.5
		c127.4,10,229.2,1.1,229.2,1.1c50.9-4.5,100.3-9.1,164.1-27.7c24-7,43.6-14.1,57.6-19.6c-1.1-4.7-2.2-9.4-3.3-14.1
		c-3.9,1.6-9.7,3.9-16.8,6.5c-48.2,17.6-87.9,23.4-123.3,27.7c-77.8,9.6-116.7,14.3-173.8,15.2
		C646.6,1025.4,559.4,1021.5,457.3,1002.1z"/>
	<g>
		<g>
			<path class="st4" d="M456.6,1004c0,3.2,0,6.4,0,9.6c0,1.9,3,1.9,3,0c0-3.2,0-6.4,0-9.6C459.6,1002,456.6,1002,456.6,1004
				L456.6,1004z"/>
		</g>
	</g>
	<g>
		<g>
			<path class="st4" d="M457.7,1016.4c74.7,20.2,152.7,22.8,229.6,23.9c73.9,1,148.3-2.2,221.1-15.7c41-7.6,81.4-18.7,120.4-33.8
				c1.8-0.7,1-3.6-0.8-2.9c-68.8,26.7-141.9,40.3-215.4,46c-74.1,5.7-148.9,4.4-223-0.1c-44.3-2.8-88.2-8.6-131.1-20.2
				C456.6,1013,455.8,1015.9,457.7,1016.4L457.7,1016.4z"/>
		</g>
	</g>
	<g>
		<g>
			<path class="st4" d="M1028.8,988.7c0.6-4.2,0.8-8.5,0.4-12.7c-0.2-1.9-3.2-1.9-3,0c0.3,4,0.3,8-0.3,11.9
				C1025.6,989.7,1028.5,990.6,1028.8,988.7L1028.8,988.7z"/>
		</g>
	</g>
	<g>
		<g>
			<path class="st4" d="M459,1003.7c21-10,41.6-20.7,61.8-32.3c1.7-1,0.2-3.5-1.5-2.6c-20.2,11.5-40.8,22.3-61.8,32.3
				C455.7,1001.9,457.2,1004.5,459,1003.7L459,1003.7z"/>
		</g>
	</g>
	<g>
		<g>
			<path class="st4" d="M520,970c119.3,22.7,243.3,26.9,363.6,9.7c32-4.6,63.8-11.7,93.4-24.9c1.8-0.8,0.2-3.4-1.5-2.6
				c-26.6,11.8-55,18.7-83.7,23.2c-29.2,4.6-58.7,7.4-88.2,9.3c-59.9,3.8-120.1,2.8-179.8-2.9c-34.6-3.3-68.9-8.3-103-14.7
				C518.9,966.8,518.1,969.7,520,970L520,970z"/>
		</g>
	</g>
	<g>
		<g>
			<path class="st4" d="M976.4,954.3c17.8,5.8,34.5,13.9,50.1,24.2c1.6,1.1,3.1-1.5,1.5-2.6c-15.8-10.4-32.8-18.6-50.8-24.5
				C975.3,950.8,974.5,953.7,976.4,954.3L976.4,954.3z"/>
		</g>
	</g>
	<g>
		<g>
			<path class="st4" d="M459.2,1002.1c35.3,11.9,72.1,17.5,109.1,20.5c37.5,3,75.3,3.9,112.9,3.9c74.7,0,149.6-5.1,223.2-18.5
				c41.8-7.6,83.2-17.9,123.5-31.4c1.8-0.6,1-3.5-0.8-2.9c-70.9,23.6-144.6,37.4-219,44.2c-74,6.8-148.8,7.2-223,2.8
				c-42.4-2.6-84.9-7.9-125.3-21.5C458.2,998.6,457.4,1001.5,459.2,1002.1L459.2,1002.1z"/>
		</g>
	</g>
	<g>
		<g>
			<path class="st4" d="M516.8,431c122.2-28.3,248-34.5,373-35.7c35.4-0.4,70.8-0.3,106.2-0.3c1.9,0,1.9-3,0-3
				c-125.4-0.2-251.4-0.3-375.9,17c-35,4.9-69.7,11.1-104.1,19.1C514.1,428.6,514.9,431.5,516.8,431L516.8,431z"/>
		</g>
	</g>
	<path class="st3" d="M1002.2,392.3c1.3,46.5,2.1,100.4,1.8,160.3c-0.2,34.8-0.5,18.2-3.6,163c-1.8,83.4-2.3,114.8-8.2,163
		c-3.8,31.4-8.4,57.2-11.8,74.7c25.8,7.2,50.4,14,72,20c33.4,9.3,42.3,11.8,55.6,13.7c20.6,2.8,45.7,3.2,74.7-2.7
		c10.7-87.6,16.6-162.3,20-219.5c12.2-201,0.8-293.6-3.6-326.1c-6-43.8-13.4-79.8-19.1-104.7c-21.4,4.1-38.8,8.5-51,11.8
		c-41.9,11.5-75.1,25-102.9,36.4C1015.8,386.5,1007.5,390,1002.2,392.3z"/>
	<path class="st3" d="M312.8,335.8c-0.8,8.6-1.7,19.2-2.5,28.4c-16.6,189.3-24.9,284-27.6,344.9c-2.8,65.4-3,160.2,10.9,278.1
		c1.1,2.4,3.1,5.7,6.7,8.4c4.7,3.5,9,3.4,17.5,5.8c6.7,1.9,10.2,3.8,13.4,5c9.2,3.6,29.8,7.7,56,6.7c37.6-1.5,66.5-13,87.7-21.7
		c19.9-8.1,35.8-16.8,46.8-23.4c-6.2-55.7-10.8-114.5-13.4-176.2c-5.3-131.2,0-251.7,10.9-359.1c-4.6-1.8-11.3-4.3-19.2-7.5
		c-13.6-5.5-46.2-18.8-103.6-46.8C373.7,367.4,345.3,353.1,312.8,335.8z"/>
	<path class="st4" d="M1179.4,333.6c1.2,6.6,2.8,15.7,4.6,26.6c2.5,15.5,8.1,52.2,12.2,100.4c4.2,50.2,5.2,93.4,5.3,127.8
		c0.3,69.8-2.3,121-9.1,240.4c-2.1,37.2-5.2,91.7-9.1,158.2c4.1-0.3,8.1-0.5,12.2-0.8c2-16.6,4.7-41.3,6.8-71.5
		c1.6-21.8,2.3-37.7,3-54.8c3.5-78.4,4.1-77.5,5.3-109.5c2.4-63.1,1.9-111.6,1.5-155.2c-0.3-30.1-1.2-58.6-3-115.6
		c-1.3-38.8-2.6-73.2-11.4-117.9c-2.3-11.4-4.5-20.9-6.1-27.4C1187.5,334.1,1183.5,333.9,1179.4,333.6z"/>
	<path class="st4" d="M297.5,337.6c-0.7,3.5-1.8,8.9-2.9,15.5c-3.2,19.1-4,33.5-4.3,38.2c-2.2,34-6.6,50.6-13,126.1
		c-1.2,13.8-2.1,25.9-3.9,50.2c-3.7,49.6-5.5,74.4-6.8,102.4c-1.4,31.3-1.6,53.4-1.9,97.6c-0.3,38.2-0.5,65.8,0.5,101.9
		c0.8,28.8,2.4,67.9,6.3,114.5c8.1,2.4,16.1,4.8,24.2,7.2c-0.1-4.5-0.4-12.6-1-22.7c-2.4-44.9-6.3-63.1-7.2-100.5
		c-0.3-11.5-0.1-19.1,0-30c1.1-78.2-0.2-113.9,0.5-164.7c1.2-82.9,6.8-147.7,11.6-202.9c4.5-52.2,9.6-96.9,14-131.9
		C308.1,338.2,302.8,337.9,297.5,337.6z"/>
	<g>
		<g>
			<path class="st4" d="M999.8,394c3.7,73.4,3.2,147,2.2,220.4c-1.1,71.8-1.6,143.8-7.1,215.5c-3.1,40.8-8,81.5-15.6,121.8
				c-0.4,1.9,2.5,2.7,2.9,0.8c13.3-70.5,18.2-142.2,20.4-213.8c2.3-73.1,3.3-146.4,3.2-219.6c-0.1-41.7-0.8-83.4-2.9-125.1
				C1002.7,392.1,999.7,392.1,999.8,394L999.8,394z"/>
		</g>
	</g>
	<g>
		<g>
			<path class="st4" d="M1003.5,394c55.5-27.5,114.4-47.3,175.2-59c1.9-0.4,1.1-3.3-0.8-2.9c-61,11.8-120.2,31.8-175.9,59.3
				C1000.3,392.3,1001.8,394.9,1003.5,394L1003.5,394z"/>
		</g>
	</g>
	<g>
		<g>
			<path class="st4" d="M1177.7,334.1c16.5,83.1,21.5,168,21.4,252.6c-0.2,84.6-5.2,169-9.3,253.5c-2.4,48.7-4.8,97.3-7.2,146
				c-0.1,1.9,2.9,1.9,3,0c4.3-86.2,8.8-172.4,12.7-258.7c3.8-84.6,6.2-169.4,0.5-253.9c-3.2-47.1-8.9-94-18.1-140.2
				C1180.2,331.4,1177.3,332.2,1177.7,334.1L1177.7,334.1z"/>
		</g>
	</g>
	<g>
		<g>
			<path class="st4" d="M979.8,952.3c4.5,5.2,12.5,6.2,18.8,8.1c8.6,2.6,17.3,5.2,25.9,7.8c17.4,5.2,34.7,10.7,52.3,15.1
				c34.4,8.4,69.7,10.1,104.6,4.1c1.9-0.3,1.1-3.2-0.8-2.9c-34.4,5.9-69.2,4.2-103-4.1c-16.1-3.9-31.9-8.9-47.7-13.7
				c-8-2.4-16-4.8-24-7.2c-4-1.2-8-2.4-12-3.6c-4.2-1.3-8.9-2.2-11.9-5.7C980.6,948.8,978.5,950.9,979.8,952.3L979.8,952.3z"/>
		</g>
	</g>
	<g>
		<g>
			<path class="st4" d="M1179.7,334.2c3.7,0.9,7.4,1.8,11.2,2.7c1.9,0.5,2.7-2.4,0.8-2.9c-3.7-0.9-7.4-1.8-11.2-2.7
				C1178.6,330.9,1177.8,333.8,1179.7,334.2L1179.7,334.2z"/>
		</g>
	</g>
	<g>
		<g>
			<path class="st4" d="M1190.7,335.9c10,40.4,12.7,82.6,15.6,124.1c3,42.4,4.6,84.9,5.3,127.5c1.2,84.5-1.7,169-6.5,253.4
				c-2.7,47.8-6.1,95.6-9.6,143.4c-0.1,1.9,2.9,1.9,3,0c6.3-85,12-170,14.7-255.2c2.7-85,2.5-170.2-2.9-255.2
				c-2.9-46.2-5.5-93.6-16.6-138.7C1193.1,333.2,1190.2,334,1190.7,335.9L1190.7,335.9z"/>
		</g>
	</g>
	<g>
		<g>
			<path class="st4" d="M1184.2,987.9c4.4-0.4,8.7-0.8,13.1-1.2c1.9-0.2,1.9-3.2,0-3c-4.4,0.4-8.7,0.8-13.1,1.2
				C1182.3,985.1,1182.3,988.1,1184.2,987.9L1184.2,987.9z"/>
		</g>
	</g>
	<g>
		<g>
			<path class="st4" d="M516.7,431.9c-6.7,69.3-10.7,138.8-12,208.4c-1.3,69.9,0.1,139.9,4.3,209.7c2.3,39.2,5.6,78.3,9.6,117.3
				c0.2,1.9,3.2,1.9,3,0c-7.2-69.2-11.7-138.7-13.5-208.3c-1.8-69.9-0.9-139.9,2.8-209.7c2.1-39.2,5-78.3,8.7-117.4
				C519.9,430,516.9,430,516.7,431.9L516.7,431.9z"/>
		</g>
	</g>
	<g>
		<g>
			<path class="st4" d="M314.7,338.2c64.9,36.1,132.3,67.7,201.5,94.6c1.8,0.7,2.6-2.2,0.8-2.9c-69-26.8-136.1-58.3-200.8-94.3
				C314.5,334.6,313,337.2,314.7,338.2L314.7,338.2z"/>
		</g>
	</g>
	<g>
		<g>
			<path class="st4" d="M311.6,337.5c-11.1,84.6-18.8,169.7-23,255c-4.2,85.3-4.8,170.7-2,256c1.6,47.9,4.3,95.8,8.1,143.6
				c0.2,1.9,3.2,1.9,3,0c-6.8-85.1-10-170.5-9.8-255.8c0.2-85.4,4-170.7,11.2-255.8c4.1-47.8,9.3-95.4,15.5-143
				C314.8,335.6,311.8,335.6,311.6,337.5L311.6,337.5z"/>
		</g>
	</g>
	<g>
		<g>
			<path class="st4" d="M294.6,994c55.7,30.3,122.4,23.8,179-0.2c17-7.2,33.4-15.9,49.2-25.4c1.6-1,0.1-3.6-1.5-2.6
				c-52.7,31.9-114.5,54.2-176.8,42.6c-16.9-3.1-33.3-8.8-48.4-17C294.5,990.5,292.9,993.1,294.6,994L294.6,994z"/>
		</g>
	</g>
	<g>
		<g>
			<path class="st4" d="M272.5,985.7c7,3.3,14.2,6.1,21.5,8.6c1.8,0.6,2.6-2.3,0.8-2.9c-7.1-2.4-14-5.1-20.8-8.3
				C272.2,982.3,270.7,984.9,272.5,985.7L272.5,985.7z"/>
		</g>
	</g>
	<g>
		<g>
			<path class="st4" d="M295.5,338.2C284.7,422,275.7,506,269.8,590.3c-5.8,83.9-8.6,168-6.8,252.1c1,47.6,3.4,95.2,7.5,142.6
				c0.2,1.9,3.2,1.9,3,0c-7.2-84.1-9.3-168.5-7.3-252.9c1.9-84.1,7.7-168.1,16-251.9c4.7-47.4,10.2-94.8,16.3-142.1
				C298.8,336.3,295.8,336.3,295.5,338.2L295.5,338.2z"/>
		</g>
	</g>
	<g>
		<g>
			<path class="st4" d="M297.2,340.3c5.8-1.2,11.6-1.6,17.6-1.3c1.9,0.1,1.9-2.9,0-3c-6.2-0.3-12.3,0.2-18.4,1.4
				C294.5,337.8,295.3,340.7,297.2,340.3L297.2,340.3z"/>
		</g>
	</g>
	<g>
		<g>
			<path class="st4" d="M1038.1,400.8c4.2,116,4,232.1-0.8,348.1c-1.3,32.5-3,64.9-5.1,97.4c-0.1,1.9,2.9,1.9,3,0
				c7.3-115.8,10.1-231.9,8.4-348c-0.5-32.5-1.3-65-2.5-97.5C1041,398.9,1038,398.9,1038.1,400.8L1038.1,400.8z"/>
		</g>
	</g>
	<g>
		<g>
			<path class="st4" d="M1086.6,359.2c4,80.7,6,161.6,5.9,242.4c0,80.8-2,161.7-6,242.4c-2.2,45.7-5.1,91.3-8.6,136.9
				c-0.1,1.9,2.9,1.9,3,0c6.2-80.6,10.4-161.3,12.7-242.1c2.2-80.8,2.5-161.7,0.8-242.5c-1-45.7-2.6-91.4-4.8-137.1
				C1089.5,357.3,1086.5,357.3,1086.6,359.2L1086.6,359.2z"/>
		</g>
	</g>
	<g>
		<g>
			<path class="st4" d="M1144.8,341.4c5.6,83.9,9,168,9.9,252.2c0.9,84.5-0.5,168.9-4.3,253.3c-2.1,47.3-5,94.6-8.7,141.8
				c-0.1,1.9,2.9,1.9,3,0c6.4-83.9,10.6-168,12.3-252.1c1.7-84.4,1.1-168.9-1.9-253.4c-1.7-47.3-4.1-94.6-7.3-141.9
				C1147.7,339.4,1144.7,339.4,1144.8,341.4L1144.8,341.4z"/>
		</g>
	</g>
	<g>
		<g>
			<path class="st4" d="M1027.8,883.8c-2.3,26.2-6.5,52.2-12.6,77.8c-0.4,1.9,2.4,2.7,2.9,0.8c6.2-25.9,10.4-52.1,12.7-78.6
				C1031,881.9,1028,881.9,1027.8,883.8L1027.8,883.8z"/>
		</g>
	</g>
	<g>
		<g>
			<path class="st4" d="M347.5,357.7c-12,83.9-17.1,168.7-17.9,253.4c-0.7,85.2,2.8,170.3,8,255.3c2.9,48.1,6.3,96.1,9.7,144.2
				c0.1,1.9,3.1,1.9,3,0c-6-84.7-12-169.4-15.3-254.2c-3.3-84.6-3.8-169.4,1.1-254c2.8-48.1,7.4-96.2,14.2-143.9
				C350.7,356.7,347.8,355.8,347.5,357.7L347.5,357.7z"/>
		</g>
	</g>
	<g>
		<g>
			<path class="st4" d="M405,385.7c-7.6,81.1-12.7,162.5-14.4,244c-1.6,81.4,0.3,162.8,7,244c3.7,45.1,8.9,90,15.7,134.7
				c0.3,1.9,3.2,1.1,2.9-0.8c-12.2-80.6-19.2-162-21.8-243.5c-2.6-80.4-1.1-161,3.3-241.3c2.5-45.7,6-91.4,10.3-137
				C408.2,383.8,405.2,383.8,405,385.7L405,385.7z"/>
		</g>
	</g>
	<g>
		<g>
			<path class="st4" d="M462.6,409.6c-9.8,75.7-15.5,151.9-17,228.2c-1.5,76.3,1.1,152.7,7.8,228.7c3.8,42.4,8.8,84.6,15.1,126.7
				c0.3,1.9,3.2,1.1,2.9-0.8c-11.3-75.4-18.5-151.3-21.6-227.4c-3.1-75.9-2-152,3.1-227.9c2.9-42.6,7.1-85.2,12.6-127.6
				C465.9,407.7,462.9,407.7,462.6,409.6L462.6,409.6z"/>
		</g>
	</g>
	<path class="st5" d="M1122.4,348.2c11.1,45.3,20.1,98.4,23.1,157.9c7.5,151.4-28.1,275.1-59.1,354.5
		c-21.9,35.1-43.7,70.2-65.6,105.3c21.3,9.2,52.9,19.9,92.3,23.1c27.2,2.2,50.8,0.2,69.2-2.8c0.2-4.4,3.5-71.3,3.7-75.7
		c10.9-224.1,11.6-239.4,12-254.8c1.8-62.7,1.5-152.7-9.2-265c-3.7-19.1-7.4-38.2-11.1-57.2C1159.4,338.3,1140.9,343.2,1122.4,348.2
		z"/>
	<path class="st6" d="M424.5,397.1c-2.6,10.9-6.5,27.2-11.1,47.1C393,533,378,598.3,370,658.4c-14.2,105.9-27.9,208.5,30.5,292.7
		c17,24.5,35.6,41,48,50.8c-12,4.7-26.9,9-44.3,11.1c-48.4,5.7-87.2-10-106.2-19.4c-7.2-66.3-12.2-137.3-13.8-212.4
		c-3.6-166.2,9.9-315.6,30.5-444.1C351.2,357.1,387.8,377.1,424.5,397.1z"/>
</g>
<g id="cat">
	<path d="M319.6,289.5c-1.3,1-0.3,4.9,1.5,11.6c0.7,2.6,1.4,4.6,1.8,5.9c-0.8,5.4-1.5,10.8-2.3,16.2c-1.6,0.2-5.7,1.1-9.5,4.4
		c-3.5,3.1-4.9,6.7-5.4,8.3c3.2,0.3,7.1,1,11.3,2.3c6.1,1.9,10.9,4.5,14.4,6.7c0,1.2,0.2,3.5,1.8,5.2c1.4,1.4,3.1,1.6,4.1,1.8
		c3.6,0.6,7.9,1.4,13.4,2.6c2.4,1.4,6.4,3.7,11.3,6.4c16.6,9,22.6,10.5,39.2,19.3c10.7,5.7,9.8,5.9,17.3,9.5
		c11.5,5.6,21.4,8.9,28.1,10.8c2.8-3.1,7.3-9.1,9.8-17.8c2-6.9,1.9-12.9,1.5-16.8c1.7,0.9,4.4,1.9,7.5,1.5c8-0.9,13.1-10,14.7-16.5
		c1.4-5.7,0.1-9.3-1-16c-2.5-15-4.7-28.4,1.5-36.9c5.2-7.1,15.9-10.4,24.5-19.9c0.8-0.9,2.3-2.6,1.8-3.4c-0.9-1.5-7.9,1.1-11.3,2.6
		c-2.2,1-18.7,8.6-23.7,25.8c-0.8,2.7-0.9,10.5-1,26c-0.1,11.3,0.1,17.7-4.4,21.4c-2.3,1.9-5.7,3-8.8,2.3c-4.6-1-6.8-5.5-8.8-8.5
		c-5.2-7.9-12.6-11.2-21.7-15.7c-7.1-3.5-13.2-4.8-25.5-7.5c-11.6-2.5-15.1-2.2-20.1-5.9c-5.6-4.2-8.7-10.1-10.3-13.4
		c-1.6-3.1-4.1-8-5.2-15c-0.6-4.1-0.5-7-1.5-7.2c-1.8-0.4-2.7,7.9-8.8,10.8c-3.7,1.8-6.1,0.1-12.6,0.3c-4.2,0.1-9,1-14.4,3.4
		C327,292.8,321.4,288.2,319.6,289.5z"/>
	<g>
		<g>
			<path d="M322.6,322.4c-2.1-16.5,12.9-31.5,29.5-29.8c15.7,1.6,26.1,20.7,25.6,35c-0.1,1.9,2.9,1.9,3,0
				c0.5-15.8-11.3-36.6-28.6-38c-18.2-1.5-34.8,14.6-32.5,32.8C319.9,324.2,322.9,324.3,322.6,322.4L322.6,322.4z"/>
		</g>
	</g>
	<g>
		<g>
			<path d="M322.3,332.8c6.1,11.9,19.2,20.3,32.9,18.5c12.5-1.7,23.1-11.8,25-24.3c0.3-1.9-2.6-2.7-2.9-0.8
				c-1.7,11.4-11.1,20.6-22.5,22.1c-12.5,1.7-24.3-6.1-29.9-17C324,329.6,321.4,331.1,322.3,332.8L322.3,332.8z"/>
		</g>
	</g>
	<g>
		<g>
			<path d="M333.1,347.3c-0.3-3.8,10.5-5.4,13.2-6c4.9-1.1,9.9-1.7,14.9-1.7c9.3,0,18.2,2.4,26.1,7.3c1.6,1,3.2-1.6,1.5-2.6
				c-10.2-6.3-22.1-8.5-33.9-7.4c-6.2,0.6-12.3,1.9-18.2,3.9c-3.2,1.1-7,2.5-6.7,6.5C330.2,349.2,333.3,349.2,333.1,347.3
				L333.1,347.3z"/>
		</g>
	</g>
	<g>
		<g>
			<path d="M376.1,312.7c6.3,7.6,16.5,9.4,25.6,11.4c12.1,2.8,24.6,5.3,35.2,12c21.9,13.8,26,43.9,8.7,63.2
				c-1.3,1.4,0.8,3.6,2.1,2.1c15.4-17.1,15.8-43.3-0.1-60.3c-8.4-9-20.4-13.7-32.1-16.8c-11.9-3.1-29-3.6-37.4-13.8
				C377,309.1,374.9,311.2,376.1,312.7L376.1,312.7z"/>
		</g>
	</g>
	<g>
		<g>
			<path d="M446.1,365c-5-6.6-13.8-8.9-21.5-5.7c-9.5,3.9-10,15.6-8.9,24.5c0.2,1.9,3.2,1.9,3,0c-0.9-7-1-17.8,6.2-21.3
				c6.2-3.1,14.3-1.5,18.5,4.1C444.6,368.1,447.2,366.6,446.1,365L446.1,365z"/>
		</g>
	</g>
	<g>
		<g>
			<path d="M418.3,382.4c-5.5-4.2-11.2-7.8-18.3-5.9c-0.8,0.2-1.2,1.1-1,1.8c1.8,7,12.8,9.9,18.6,12.4c8.9,3.9,18,7.2,27.2,10.1
				c1.8,0.6,2.6-2.3,0.8-2.9c-7.4-2.3-14.6-4.8-21.8-7.8c-3.9-1.6-7.7-3.3-11.5-5.1c-3.4-1.6-9.5-3.5-10.5-7.5
				c-0.3,0.6-0.7,1.2-1,1.8c6.2-1.7,11.3,2,15.9,5.6C418.3,386.2,419.8,383.6,418.3,382.4L418.3,382.4z"/>
		</g>
	</g>
	<g>
		<g>
			<path d="M330.4,347c3.9,6.4,11.8,7.5,18.7,8.5c10.2,1.5,20.4,1.5,30.6,0.4c1.9-0.2,1.9-3.2,0-3c-8.2,0.9-16.4,1.1-24.6,0.3
				c-6.9-0.7-18-1.1-22.2-7.7C332,343.8,329.4,345.3,330.4,347L330.4,347z"/>
		</g>
	</g>
	<g>
		<g>
			<path d="M307.1,336.8c1.3-7,7.4-10.6,14.2-10.9c-0.5-0.4-1-0.7-1.4-1.1c0.5,2.4,1.2,4.7,2.2,6.9c0.7,1.8,3.6,1,2.9-0.8
				c-0.9-2.3-1.6-4.5-2.2-6.9c-0.1-0.6-0.8-1.1-1.4-1.1c-8,0.4-15.6,4.8-17.1,13.1C303.9,337.9,306.8,338.7,307.1,336.8L307.1,336.8
				z"/>
		</g>
	</g>
	<g>
		<g>
			<path d="M324.5,305.8c-1.5-4.3-2.6-8.8-3-13.4c0-0.4-0.1-0.8-0.1-1.2c-0.1-0.9,0-0.8,0.4,0.3c0.9,0.6,1.8,1.3,2.7,2
				c1.5,1.3,2.9,2.7,4.1,4.2c1.3,1.5,3.4-0.7,2.1-2.1c-1.7-2-8.8-10.2-11.8-7c-1.5,1.6-0.4,5.3-0.1,7.1c0.5,3.7,1.5,7.4,2.7,10.9
				C322.3,308.4,325.2,307.7,324.5,305.8L324.5,305.8z"/>
		</g>
	</g>
	<g>
		<g>
			<path d="M358.3,291.8c0.9-1.6,1.8-3.2,2.8-4.8c0.4-0.7,0.8-1.3,1.1-2c0.6-1,0.6-1.9,1.8-1.6c1.4,0.3,0.9,3.6,0.9,4.8
				c0,1.9,0.1,3.8,0.1,5.7c0,1.9,3,1.9,3,0c0-3.1,0.1-6.2-0.1-9.3c-0.1-2-0.8-4.2-3-4.9c-2-0.6-3.4,0.7-4.4,2.2
				c-1.7,2.7-3.2,5.6-4.8,8.3C354.7,292,357.3,293.5,358.3,291.8L358.3,291.8z"/>
		</g>
	</g>
	<g>
		<g>
			<path d="M454.1,357.2c0.6,7.6,9.1,10.1,15,6.4c8.7-5.4,10.6-17.6,9.5-26.8c-1.5-12.6-4.5-24.3-0.2-36.8
				c4.1-11.9,14.3-21.6,27.2-22.4c1.9-0.1,1.9-3.1,0-3c-17.6,1.1-29.6,16.1-32.1,32.7c-1.5,9.9,0.7,19.1,2,28.8
				c0.8,6.4,0.4,12.5-2.5,18.4c-1.3,2.5-3.1,5-5.5,6.6c-3.7,2.3-10.1,1.6-10.5-3.8C457,355.3,454,355.2,454.1,357.2L454.1,357.2z"/>
		</g>
	</g>
	<g>
		<g>
			<path d="M455.7,362.6c3.1,8.3,13.9,4.6,18.6-0.2c7.7-7.8,6-20.8,5.4-30.7c-0.1-1.9-3.1-1.9-3,0c0.4,6.3,1,13.1-0.1,19.4
				c-0.5,3-1.6,5.8-3.6,8.2c-2.2,2.7-11.8,9.5-14.4,2.5C457.9,360,455,360.8,455.7,362.6L455.7,362.6z"/>
		</g>
	</g>
	<g>
		<g>
			<path d="M505.7,274.5c-11.4,4.4-22.9,10.6-27.5,22.6c-5.3,13.8-1.5,28.8-1.8,43.1c0,1.9,3,1.9,3,0c0.3-12.5-2.7-25.3,0.3-37.7
				c3.3-13.6,14.6-20.4,26.8-25.1C508.3,276.7,507.5,273.8,505.7,274.5L505.7,274.5z"/>
		</g>
	</g>
	<g>
		<g>
			<path d="M503.4,276.2c-10.5,4.8-20.1,13.2-25,23.9c-2.6,5.6-2.2,11.8-2.2,17.9c0,7.8,0.3,15.7,0.9,23.5c0.1,1.9,3.1,1.9,3,0
				c-0.4-6.3-0.7-12.5-0.8-18.8c-0.1-6.6-1-14.4,1.5-20.6c4.3-10.5,14-18.6,24.1-23.3C506.7,278,505.2,275.4,503.4,276.2
				L503.4,276.2z"/>
		</g>
	</g>
	<g>
		<g>
			<path class="st3" d="M328.5,312.4c2.8,4.9,9.9,3.2,10.6-2.2c0.1-1-1.4-0.9-1.5,0c-0.5,4.1-5.7,4.9-7.8,1.5
				C329.3,310.8,328,311.6,328.5,312.4L328.5,312.4z"/>
		</g>
	</g>
	<g>
		<g>
			<path class="st3" d="M349.7,308.5c3.1,5.3,11,3.2,11.1-2.9c0-1-1.5-1-1.5,0c-0.1,4.7-5.9,6.2-8.3,2.2
				C350.5,306.9,349.2,307.6,349.7,308.5L349.7,308.5z"/>
		</g>
	</g>
	<g>
		<g>
			<path class="st3" d="M343.7,315.1c0.7,2.9,0.1,5.8-1.7,8.2c-0.6,0.8,0.7,1.5,1.3,0.8c2-2.7,2.6-6.1,1.9-9.4
				C344.9,313.8,343.4,314.2,343.7,315.1L343.7,315.1z"/>
		</g>
	</g>
	<g>
		<g>
			<path class="st3" d="M344.3,315c-0.3,3.8,1.8,7.4,5.3,9c0.9,0.4,1.6-0.9,0.8-1.3c-3-1.4-4.9-4.4-4.6-7.7
				C345.8,314,344.3,314,344.3,315L344.3,315z"/>
		</g>
	</g>
	<g>
		<g>
			<path class="st3" d="M319.9,323.9c8.8-0.7,14.4,6.5,20.3,11.8c0.7,0.6,1.8-0.4,1.1-1.1c-6.2-5.6-12.2-12.9-21.4-12.3
				C319,322.4,319,323.9,319.9,323.9L319.9,323.9z"/>
		</g>
	</g>
	<g>
		<g>
			<path class="st3" d="M336.3,341.5c11.3-7.2,24.7-9.6,37.8-6.7c0.9,0.2,1.3-1.2,0.4-1.4c-13.5-2.9-27.3-0.5-38.9,6.9
				C334.7,340.7,335.5,342,336.3,341.5L336.3,341.5z"/>
		</g>
	</g>
	<g>
		<g>
			<path class="st3" d="M364.7,355.2c9.3,0.6,18.1-2.3,25.2-8.4c0.7-0.6-0.3-1.7-1.1-1.1c-6.8,5.8-15.2,8.6-24.1,8
				C363.8,353.7,363.8,355.2,364.7,355.2L364.7,355.2z"/>
		</g>
	</g>
	<g>
		<g>
			<path class="st3" d="M362,284.2c-2.2,3.7-2.7,8-1.4,12.1c0.3,0.9,1.7,0.5,1.4-0.4c-1.2-3.7-0.8-7.6,1.2-10.9
				C363.8,284.1,362.5,283.3,362,284.2L362,284.2z"/>
		</g>
	</g>
	<g>
		<g>
			<path class="st3" d="M322.4,293.5c2.4,1.5,3.9,3.8,4.5,6.5c0.2,0.9,1.6,0.5,1.4-0.4c-0.7-3.1-2.5-5.7-5.2-7.4
				C322.3,291.7,321.6,293,322.4,293.5L322.4,293.5z"/>
		</g>
	</g>
	<g>
		<g>
			<path class="st3" d="M375.3,309.5c1.9,2.3,4.1,4.3,6.6,5.8c0.8,0.5,1.6-0.8,0.8-1.3c-2.4-1.5-4.6-3.4-6.3-5.6
				C375.7,307.7,374.7,308.8,375.3,309.5L375.3,309.5z"/>
		</g>
	</g>
	<g>
		<g>
			<path class="st3" d="M437,358.6c-2.1-5.3-12.2-1.7-15.5,0.4c-5.9,3.9-8.5,11.2-6.3,17.9c0.3,0.9,1.7,0.5,1.4-0.4
				c-1.7-5.3-0.3-11,3.9-14.9c1.8-1.7,4.2-2.9,6.6-3.5c1.7-0.5,7.5-1.6,8.4,0.8C435.9,359.9,437.3,359.5,437,358.6L437,358.6z"/>
		</g>
	</g>
	<g>
		<g>
			<path class="st3" d="M416.4,377c-7.8-3.3-16.1-3.6-24.2-1.1c-0.9,0.3-0.5,1.7,0.4,1.4c7.9-2.5,15.8-2.1,23.4,1.1
				C416.9,378.8,417.3,377.3,416.4,377L416.4,377z"/>
		</g>
	</g>
</g>
<g id="girl_waving">
	<g id="legs">
		<path class="st0" d="M691.1,792.9c-4.1,9.8-4.1,17.1-4.7,35.9c-0.7,23.2-2.7,46.3-2.9,69.4c-0.2,19.5-0.5,49-1.3,87.4
			c32,1.8,67.4,2.2,105.8,0.3c36.6-1.8,70.4-5.5,100.9-10.1c-14.4-48.7-23.9-84.2-30.7-111.7c-3.6-14.7-8.9-36.7-23.5-62.4
			c-8-14.1-16.3-24.7-22.4-31.8c-1.6-1.4-36.9-31.1-77.7-17.1C732.6,753.6,702.9,764.4,691.1,792.9z"/>
		<g>
			<g>
				<path class="st7" d="M750,851.2c6.7,11.9,13.4,23.8,20,35.7c0.9,1.7,3.5,0.2,2.6-1.5c-6.7-11.9-13.4-23.8-20-35.7
					C751.7,848,749.1,849.5,750,851.2L750,851.2z"/>
			</g>
		</g>
		<g>
			<g>
				<path class="st7" d="M749.2,850.6c15.4,19.2,24.3,41.1,29.1,65.1c4.5,22.7,7.4,45.7,9.1,68.8c0.1,1.9,3.1,1.9,3,0
					c-1.8-23.7-4.8-47.4-9.4-70.7c-4.8-24.1-14.2-46.1-29.6-65.3C750.2,846.9,748,849.1,749.2,850.6L749.2,850.6z"/>
			</g>
		</g>
		<path class="st8" d="M773.3,750.5c3.5,7,8.5,17.3,14.1,29.7c16.3,36.2,33.2,74.4,42.2,121.4c3.7,19,7.2,46.5,5.7,80.8
			c8.4-0.4,17.3-1.1,26.6-2.1c9.3-1,18.2-2.2,26.6-3.6c-2.6-8.8-6.8-22.8-11.5-40.1c-13.1-48.4-14.9-63.5-26.1-95.4
			c-8.3-23.7-16-39.8-27.1-55.2c-10-13.9-19.4-22.6-31.3-28.7C785.1,753.5,778.2,751.6,773.3,750.5z"/>
		<path class="st9" d="M749.4,851.7c3.9,14.6,7.3,32,8.9,51.6c2.8,33.9-0.8,62.8-5.2,84.4c11.5-0.7,22.9-1.4,34.4-2.1
			c-1.2-22.7-3.8-41.8-6.3-56.3c-6.3-36.9-12.9-50.6-18.2-59.4C758,861.8,753,855.7,749.4,851.7z"/>
	</g>
	<g id="hand_right">
		<path class="st3" d="M621.3,622.5c-3.3,2.2-5.3,6.4-9.2,14.7c-3.2,6.8-4.7,12.1-7.1,20c-6.6,22.4-5.9,18.6-8.2,27.1
			c-3,11.3-8.4,31.1-11.4,57.2c-2.9,25.3-2.3,44.8-2.2,49.5c1.1,29.7,6.3,51.8,9.8,66c6.2,25.5,14.5,46.7,31,89
			c3.6,9.1,6.6,16.6,8.7,21.8c-1.5,0.2-3.9,0.5-6.8,0.9c-15.1,1.8-17.2,1.4-23.3,2.7c-7.8,1.7-14.8,3.4-17.5,9.3
			c-1.2,2.7-1.7,6.5-0.2,7.8c1.9,1.6,5.6-2,12-4.1c5.4-1.7,10.2-1.6,13.5-1.1c-2.6,5.1-4.1,9.7-5,13c-2.2,7.6-3.9,13.8-1.1,18.2
			c1.4,2.2,4.1,4.2,6.3,3.6c1.2-0.3,2.3-1.4,5.3-9.3c2.9-7.9,3.1-10.4,5.5-13.5c2.1-2.6,4.5-4,6.1-4.8c-0.8,2.5-1.7,6.2-2.1,10.7
			c-0.2,2.7-0.5,5.2,0,8.4c0.4,2.9,1.3,9.1,5.9,12.5c0.8,0.6,4.1,3.1,6.1,1.8c1.7-1,1.2-3.8,1.9-12.8c0.6-7.6,1.2-9.7,1.7-10.9
			c1.3-3.5,3.3-6,4.8-7.5c-0.5,7.2-0.4,13.2-0.2,17.6c0.4,7.1,1.1,10.3,3.4,12.3c1.3,1.1,3.5,2.2,5.3,1.4c1.8-0.8,2.4-3.3,2.9-6.4
			c2.2-11.7,0.9-15.1,3.4-21c1-2.3,2.1-5.1,4.8-7.1c5.7-4.2,13.8-1.7,14.9-1.4c4.8,1.5,6.6,4.1,9,3c2-0.9,3.1-3.8,3.2-6.2
			c0.1-5.9-6.4-10.4-12-14.1c-2.8-1.9-7-4.4-12.6-6.4c-4.9-9.7-11.1-23.8-16.2-41.7c-3.4-12-5-21.2-6.5-29.9
			c-5.3-30.5-3.4-42.2-9.3-72.5c-1.4-7.3-2.8-13.1-3.6-16.4c0.4-5,1.1-12.8,2.1-22.3c3.3-31,5.5-50.4,12.2-73.2
			c5.3-17.9,10.7-32.6,10.7-32.6c6.8-18.3,9-20.8,8.2-26.7C662.7,630.5,633.6,614.3,621.3,622.5z"/>
		<g>
			<g>
				<path class="st4" d="M613.6,632c-17.8,41.1-29,85-31.4,129.8c-2.5,45.7,5.4,90.4,20.2,133.6c8.4,24.7,18.6,48.7,29,72.7
					c0.8,1.8,3.3,0.2,2.6-1.5C616,925,598.4,882.8,590,838.2c-8.3-44-6.6-89.5,3-133.2c5.4-24.5,13.2-48.4,23.2-71.4
					C616.9,631.8,614.4,630.2,613.6,632L613.6,632z"/>
			</g>
		</g>
		<g>
			<g>
				<path class="st4" d="M650.9,689.1c-12.6,38.1-19.2,78-19.9,118.1c0,1.9,3,1.9,3,0c0.7-39.9,7.3-79.4,19.8-117.3
					C654.4,688.1,651.5,687.3,650.9,689.1L650.9,689.1z"/>
			</g>
		</g>
		<g>
			<g>
				<path class="st4" d="M620.5,789c8.9,12.4,12.5,27.2,14.6,42c2.2,15.1,3.2,30.4,5.4,45.5c4.4,30.7,11.6,61.3,26.1,88.8
					c0.9,1.7,3.5,0.2,2.6-1.5c-15.1-28.6-22.2-60.5-26.4-92.3c-3.7-27.9-2.6-60.2-19.7-84C622,786,619.4,787.5,620.5,789L620.5,789z
					"/>
			</g>
		</g>
		<g>
			<g>
				<path class="st4" d="M631,966.7c-9.3,0.5-18.6,1.4-27.7,3.1c-6.5,1.3-13.4,3.4-17.9,8.6c-2.6,3.1-5.9,10.5-0.2,12.6
					c2.5,0.9,4.7-0.8,6.8-2c5.2-3,10.6-6.1,16.8-4.4c1.9,0.5,2.7-2.4,0.8-2.9c-5.1-1.4-9.7-0.2-14.3,2.1c-1.4,0.7-2.7,1.4-4,2.2
					c-0.8,0.4-1.5,0.9-2.3,1.4c-0.9-1.6-1.9-3.2-2.8-4.8c0.2-2.5,5.2-5.4,7-6.4c4.9-2.6,10.6-3.5,16-4.3c7.3-1.1,14.6-1.8,21.9-2.2
					C633,969.6,633,966.6,631,966.7L631,966.7z"/>
			</g>
		</g>
		<g>
			<g>
				<path class="st4" d="M622.8,975.6c-7.9,1.3-14.4,6.7-17.4,14c-3.2,7.6-5.9,18.9-2.2,26.7c2.8,5.9,9.7,8,12.3,0.8
					c1.6-4.5,1.3-9.4,2.9-13.9c2-5.6,5.4-10.4,10.4-13.7c1.6-1.1,0.1-3.7-1.5-2.6c-4.7,3.1-8.2,7.3-10.5,12.4
					c-1.2,2.6-2.1,5.3-2.7,8.1c-0.5,2.3-0.8,13.9-6.3,10.5c-3.1-1.9-3.4-8-3.3-11.1c0.2-4.6,1.4-9.9,2.9-14.3
					c2.5-7.4,8.4-12.7,16.1-14C625.5,978.2,624.7,975.3,622.8,975.6L622.8,975.6z"/>
			</g>
		</g>
		<g>
			<g>
				<path class="st4" d="M632.2,983c-6.2,4-8.4,12.7-9,19.7c-0.6,7.5,1.5,15.6,7.1,20.9c3.3,3.1,8.4,4.7,9.3-1.1
					c1.5-9.7-2.4-23.4,8.2-29.2c1.7-0.9,0.2-3.5-1.5-2.6c-3.8,2.1-6.2,5.5-7.7,9.6c-2.1,6-0.9,12.1-1.8,18.3
					c-0.4,2.8-1.2,5.8-4.3,2.9c-1.1-1-2.1-2.3-2.9-3.6c-1.9-3-3-6.4-3.3-9.9c-0.7-7,1.1-18.2,7.5-22.4
					C635.3,984.5,633.8,981.9,632.2,983L632.2,983z"/>
			</g>
		</g>
		<g>
			<g>
				<path class="st4" d="M646.4,991c-1.9,7.2-3.7,14.7-2.5,22.2c0.5,3.6,2.6,12.4,7.2,13.3c5.2,1,7.3-8.2,7.8-11.6
					c1.1-7.4-0.3-16.3,5.5-22c1.4-1.4-0.7-3.5-2.1-2.1c-7,6.9-4.6,16.9-6.7,25.7c-0.7,3.2-2.7,8-6,4.3c-1.8-1.9-2.3-5.6-2.7-8.1
					c-1-7,0.7-14,2.5-20.8C649.8,990,646.9,989.2,646.4,991L646.4,991z"/>
			</g>
		</g>
		<g>
			<g>
				<path class="st4" d="M668,967c5.9,2.4,12,5,16.6,9.6c2.1,2.1,4.7,5.3,5.3,8.3c1.5,8.3-4.7,3-7,2c-6.3-2.8-18.8-0.8-22.4,5.6
					c-0.9,1.7,1.7,3.2,2.6,1.5c1.9-3.5,7.1-4.4,10.7-4.9c2.2-0.3,4.7-0.5,6.8,0.1c2.4,0.7,3.9,2.8,6.2,3.5c3.3,1,5.8-1.3,6.3-4.5
					c0.9-5.2-3.6-11-7.1-14.4c-4.9-4.7-11.2-7.3-17.4-9.8C667,963.4,666.3,966.3,668,967L668,967z"/>
			</g>
		</g>
		<path class="st6" d="M647.8,656.8c-11.5,0.7-18.4,30.1-22.2,46.4c-4.3,18.3-8.2,43.5-7.4,80.2c0.7,32.8,4.9,57.8,6.3,66.5
			c6.3,37.4,16.2,68.8,25.9,93.4c3.2,9,6.3,18,9.5,26.9c-1.8,7.4-3.6,15-5.3,22.9c-2.2,10.4-4.2,20.6-5.8,30.4
			c1.9,0.2,4.5,0.1,6.3-1.7c2.3-2.3,2-6,2.1-9.2c0.1-3,0.4-17.5,6.9-22.9c4-3.3,10.4-3.3,14.8-1.7c4.5,1.7,6.5,5,9.5,4
			c2.3-0.7,3.9-3.5,4.2-5.7c1-7.3-13-14.8-15.3-16c-4.5-2.4-6.6-2.7-9.5-5.7c-3.6-3.8-4.8-8.3-5.3-10.3c-8.3-31.6-12.4-29.6-18-65.9
			c-4.2-27.4-1.5-25.8-5.8-47.6c-3-15.4-5.5-21.7-6.3-35c-0.9-14.6,0.8-26,2.6-36.1c7.5-41.3,21.9-91.3,25.4-103.2
			C657.2,661.5,652.8,656.5,647.8,656.8z"/>
	</g>
	<g id="hand_left">
		<path class="st3" d="M851.9,245.7c-3.1-0.1-5.5,5.5-6.1,7c-0.9,2.2-2.3,6.5-1.3,12.6c0,0,0.6,4.2,2.6,29.6
			c0.5,5.7,0.6,14-0.9,24.4c-4,11-7.8,19.6-10.4,25.2c-8.8,18.8-14.7,26.3-27,50.1c-4.6,8.9-5,10.3-10.4,21.3
			c-13.5,27.3-23.4,44.4-33.5,62.7c-8.9,16-21.4,39.5-36.1,69.7c-0.7,2.6-4.2,16.5,3.9,28.7c8.6,12.9,26.6,18.7,44,13.1
			c2.7-3.8,6.5-9.7,10-17.4c3.4-7.5,5-13.3,6.1-17c1.1-3.7,5.5-16.2,14.4-41.4c2.8-7.8,6.2-17.1,13.1-35.3
			c10.5-27.9,15.7-41.8,19.2-50.5c7.9-19.8,13.9-33.5,25.7-60.1c6.2-14,13.8-30.9,22.6-50.1c5.1-2.9,12.1-7.4,19.6-13.9
			c10.8-9.3,16.2-17.2,26.6-32.2c6.7-9.8,11.8-18.4,10.4-27c-0.2-1.2-0.7-4.7-2.6-5.2c-2.4-0.7-5.4,4.1-8.7,8.3
			c-3.4,4.3-8.5,9.9-16.1,15.7c2.6-7.2,5.2-12.8,7-16.5c4.1-8.4,7.5-13.8,9.6-23.1c2.3-9.9,0.2-11.7-0.4-12.2c-2.7-2-7.3,1.8-10-0.4
			c-2.4-2.1-0.3-6.7-2.2-7.8c-1.9-1.1-6.1,2.2-9.1,5.7c-5.2,6-6.4,11.8-8.3,17.4c-1.8,5.5-5.1,13-11.3,21.3
			c-1.5,0.2-3.5,0.3-4.4-0.9c-1-1.4,0.4-3.7,1.7-7.4c0.3-0.9,0.1-0.4,2.2-9.6c0.8-3.5,2.3-10,3.5-15.2c1.7-7.5,2.5-10.6,0.9-13.9
			c-0.3-0.7-1.6-3.4-3.5-3.5c-2.2-0.1-3.9,3.4-5.2,6.1c-5.3,10.9-8,16.4-8.7,18.3c-3.5,9.5-8.2,24-8.9,29c-0.1,0.6-0.3,2.7-1.3,5.4
			c-0.5,1.3-0.8,1.8-1.1,2.6c-2.5,5.6-0.4,9.3-3,11.3c-0.3,0.2-1.8,1.3-3,0.9c-1.3-0.4-1.9-2.1-2.6-7.8c-1-7.8-0.4-10.1-2.2-13.5
			C855.5,248.7,854,245.8,851.9,245.7z"/>
		<g>
			<g>
				<path class="st4" d="M847.1,292c0.7-7.3-0.4-14.4-0.8-21.7c-0.2-3.5-0.2-7.1,0.3-10.6c0.3-2,0.7-4,1.3-5.9
					c1-2.9,1.1-5.3,4.3-5.4c3-0.1,2.8,1.7,3.3,4.2c0.5,2.2,0.6,4.5,0.7,6.7c0.2,3.1,0.3,6.3,1,9.3c0.7,3.1,2.6,5.7,6.1,4.6
					c1.8-0.6,1.1-3.5-0.8-2.9c-3.5,1-3.2-10.8-3.4-12.8c-0.3-3.2-0.6-6.5-1.8-9.5c-1.7-4.2-5.6-6.3-8.9-2.4c-4.3,5-5.2,14-5.2,20.2
					c0,8.8,1.7,17.4,0.9,26.2C844,293.9,847,293.9,847.1,292L847.1,292z"/>
			</g>
		</g>
		<g>
			<g>
				<path class="st4" d="M864.5,272c5-9.7,6.5-20.7,9.4-31.1c3.1-11.2,7-22.2,12.8-32.2c1.3-2.2,2.6-5.3,4.5-7
					c3.7-3.4,3.7,3.1,3.4,5.9c-0.6,6.2-2.2,12.5-3.6,18.6c-1.3,5.6-3.1,11-4.4,16.6c-0.7,3.1-0.7,5.8,1.5,8.2
					c1.3,1.4,3.4-0.7,2.1-2.1c-2.5-2.7,0.1-8.1,0.9-11c0.9-3.3,1.8-6.6,2.5-9.9c1.4-6.1,2.8-12.3,3.7-18.6c0.5-3.3,1.2-9.1-1.7-11.6
					c-2.5-2.1-5-0.1-6.7,1.9c-7.3,9.1-11.8,21.1-15.4,32.1c-4.1,12.7-5.4,26.9-11.6,38.8C861,272.2,863.6,273.7,864.5,272L864.5,272
					z"/>
			</g>
		</g>
		<g>
			<g>
				<path class="st4" d="M888.8,251.3c3,0.3,4.1-1.9,5.5-4.3c2.2-3.8,4.2-7.8,6.1-11.7c3.7-7.6,6.3-15.9,10.8-23
					c1-1.6,2.2-3.6,3.8-4.8c1.3-1.5,3-2,5.2-1.3c0.3,1.4,0.5,2.8,0.5,4.2c0.1,4.9-1.5,9.8-3.2,14.4c-3.4,9.1-7.2,18.1-10.9,27.2
					c-0.7,1.8,2.2,2.6,2.9,0.8c2.1-5.2,23.7-50.8,9.6-51.1c-2.8-0.1-6,3.4-7.6,5.3c-2.8,3.3-4.8,7.1-6.6,11c-2.1,4.7-4,9.4-6.2,14
					c-1.3,2.8-2.8,5.7-4.2,8.4c-0.9,1.8-3.1,8-5.6,7.8C886.9,248.1,886.9,251.1,888.8,251.3L888.8,251.3z"/>
			</g>
		</g>
		<g>
			<g>
				<path class="st4" d="M924.2,214.5c1.1-5.8,7.4-1.8,8.2,1.9c0.7,3.1-0.5,6.2-1.5,9.1c-1.5,4.4-3.2,8.7-5,12.9
					c-3.5,8.2-7.6,16-12.2,23.7c-1,1.7,1.6,3.2,2.6,1.5c4.3-7.1,8.1-14.5,11.5-22c2.9-6.5,6.4-13.7,7.5-20.8
					c0.7-4.5-0.6-10.3-5.6-11.9c-3.7-1.2-7.7,1.1-8.4,4.9C921,215.6,923.9,216.4,924.2,214.5L924.2,214.5z"/>
			</g>
		</g>
		<g>
			<g>
				<path class="st4" d="M918.4,264.8c3.8-4.3,7.5-8.6,11.3-12.9c2-2.3,3.8-4.8,6-6.8c0.7-0.6,1.4-1.1,2-1.7
					c1.7,0.6,3.4,1.2,5.2,1.8c0.5,0.9-0.7,3.5-1,4.3c-3.1,9.5-7.6,18.5-12.9,26.9c-10.7,16.9-25.4,31.1-42.6,41.4
					c-1.7,1-0.1,3.6,1.5,2.6c21.4-12.8,39-31.6,50.1-53.9c2.7-5.4,5.3-11.1,7-16.9c1-3.4,1.6-8-2.3-9.8c-3.8-1.8-7.8,1.7-10.2,4.2
					c-5.7,5.9-10.9,12.5-16.3,18.7C915,264.1,917.1,266.2,918.4,264.8L918.4,264.8z"/>
			</g>
		</g>
		<g>
			<g>
				<path class="st4" d="M844.5,288.9c0.7,9.2,1.4,18.6-0.1,27.8c-1.5,9.1-5.3,17.5-9.5,25.7c-8.5,16.6-17.4,33-26.1,49.5
					c-17.4,33-34.8,65.9-52.2,98.9c-10,18.9-20,37.9-30,56.8c-0.9,1.7,1.7,3.2,2.6,1.5c35.9-68.1,72.5-135.9,107.8-204.4
					c4.2-8.1,8.1-16.4,9.8-25.3c2-10.1,1.3-20.3,0.5-30.5C847.4,287,844.4,287,844.5,288.9L844.5,288.9z"/>
			</g>
		</g>
		<g>
			<g>
				<path class="st4" d="M886.2,317.1c-32,67.6-59.9,136.8-84.5,207.4c-7.2,20.5-14.4,41-23.1,60.9c-0.8,1.8,1.8,3.3,2.6,1.5
					c14.9-33.9,25.8-69.4,38.6-104c13.1-35.6,27.3-70.9,42.4-105.7c8.6-19.7,17.4-39.2,26.6-58.6C889.6,316.9,887,315.4,886.2,317.1
					L886.2,317.1z"/>
			</g>
		</g>
		<path class="st10" d="M931.4,213.3c-4.1-0.6-9.6,16.2-12.8,24.6c-9.7,25.8-17.9,28.8-38.7,63.8c-7.7,12.9-18.3,32.3-29,57.6
			c-32,67.4-63.9,134.9-95.9,202.3c7.8,9.5,15.5,19.1,23.3,28.6c3.9-11.1,9.6-27.4,16.7-47.1c12.9-35.5,29.6-81.2,53.2-136.8
			c9.4-22,22.4-51.7,39.1-86.6c4.6-2.9,11-7.4,18-13.6c9.4-8.2,21.8-19.3,30.3-37.4c2.7-5.6,6.1-14.2,7.9-25.5
			c-1.3-0.6-3.2-1.3-5.3-0.9c-3.6,0.7-5.5,4.2-7,6.6c-5.8,8.9-14.3,14.8-15.4,14.1c-0.6-0.5,1.1-3.4,5.7-12.8
			c9.4-19.3,5.5-14.2,9.2-20.7c2.1-3.7,4.2-6.9,3.5-11C934.2,216.7,933.1,213.6,931.4,213.3z"/>
		<path class="st6" d="M925.3,281.5c-5,3.2-12.1,7.9-20.2,14.1c-9.3,7-19.3,14.6-27.7,24.2c-11.4,13-16.4,25.9-19.4,33.4
			c-27.5,70.2-60.2,146.4-69.5,167.6c-5.1,11.6-13.1,29.1-23.7,50.1c4.8,6.3,9.7,12.6,14.5,18.9c13.8-42.1,29.7-86.2,47.9-131.9
			c19.6-49.1,39.9-95,60.3-137.7c5.5-3.7,11.7-8.4,18-14.5C914.4,297.2,920.8,288.6,925.3,281.5z"/>
	</g>
	<g id="torso">
		<path class="st3" d="M659.4,571c-3.7,2.5-12,8.3-20.5,17.7c-8.8,9.7-13.9,18.8-18.1,26.5c-3.3,5.9-5.7,11.1-7.4,14.9
			c2.6,5,6.8,12.7,12.6,21.9c10.3,16.3,18.3,25.1,32.1,42.8c5.8,7.4,14.2,18.5,24.2,32.5c1.6,7.5,3,15.4,4.2,23.7
			c2.4,17,3.3,32.8,3.3,47c3.7,4,10.1,9.8,19.5,13.9c15.6,6.9,29.8,4.9,37.2,3.7c16.4-2.5,27.6-9.8,35.3-14.9
			c14-9.2,23.5-20.2,29.8-29.3c-1.3-15.6-3-31.7-5.1-48.4c-1.8-14.2-3.8-28-6-41.4c-0.2-10.5-1.2-24.8-4.6-41.4
			c-2.8-13.9-6.2-30.1-16.3-49.3c-12.6-23.9-28.3-38.4-34.4-43.7c-5.4-4.7-10.3-8.2-13.9-10.7c-14.6,9.3-27.2,15.1-35.8,18.6
			C679.5,561.7,672,562.7,659.4,571z"/>
		<g>
			<g>
				<path class="st4" d="M615,630.5c3.1-11.8,11.7-22.8,19.1-32.4c7.8-10,16.6-19.1,27.1-26.4c1.6-1.1,0.1-3.7-1.5-2.6
					c-10.8,7.5-19.9,16.8-27.9,27.1c-7.7,9.9-16.4,21.1-19.6,33.4C611.7,631.6,614.6,632.3,615,630.5L615,630.5z"/>
			</g>
		</g>
		<g>
			<g>
				<path class="st4" d="M612.8,631.5c20.6,36,45,69.8,72.7,100.7c1.3,1.4,3.4-0.7,2.1-2.1c-27.5-30.7-51.7-64.3-72.2-100.1
					C614.4,628.3,611.8,629.8,612.8,631.5L612.8,631.5z"/>
			</g>
		</g>
		<g>
			<g>
				<path class="st4" d="M697.4,556.5c11.2-7.9,23.5-13.8,36.6-17.6c1.9-0.5,1.1-3.4-0.8-2.9c-13.4,3.9-25.9,9.9-37.3,17.9
					C694.3,555,695.8,557.6,697.4,556.5L697.4,556.5z"/>
			</g>
		</g>
		<g>
			<g>
				<path class="st4" d="M731.5,539.7c47.8,33.3,68.3,91.7,66,148.2c-0.1,1.9,2.9,1.9,3,0c2.4-57.7-18.8-116.9-67.5-150.8
					C731.5,536,730,538.6,731.5,539.7L731.5,539.7z"/>
			</g>
		</g>
		<g>
			<g>
				<path class="st4" d="M679,726.3c5.2,10.7,5.8,24,6.9,35.6c1.2,11.8,1.6,23.7,1.6,35.6c0,1.9,3,1.9,3,0c0.1-13.2-0.5-26.4-2-39.5
					c-1.2-11.1-2-23.1-6.9-33.3C680.7,723,678.2,724.5,679,726.3L679,726.3z"/>
			</g>
		</g>
		<g>
			<g>
				<path class="st4" d="M689.4,798.1c15,18.4,40.6,23.6,62.9,17.9c12.4-3.2,23.9-9.3,34.2-16.9c10.3-7.6,20.1-16.4,25.9-28
					c0.9-1.7-1.7-3.2-2.6-1.5c-5.6,11.1-15,19.6-24.9,26.9c-9.6,7.1-20.3,12.9-31.9,16.2c-21.8,6.1-46.9,1.4-61.6-16.7
					C690.3,794.5,688.2,796.6,689.4,798.1L689.4,798.1z"/>
			</g>
		</g>
		<g>
			<g>
				<path class="st4" d="M798.6,683.4c4.9,29.3,9.7,58.6,11.4,88.2c0.1,1.9,3.1,1.9,3,0c-1.8-29.9-6.6-59.5-11.5-89
					C801.2,680.7,798.3,681.5,798.6,683.4L798.6,683.4z"/>
			</g>
		</g>
		<path class="st6" d="M701.2,552.5c11.1,13.1,26.3,33.5,39,61.1c18.6,40.4,22.3,75.3,25.1,105c2.2,22.6,3.4,54.1-1,91.7
			c8.5-3.7,20.5-10.1,32.1-21.2c6.4-6.2,11.2-12.4,14.8-17.8c-3.3-27.9-6.6-55.9-9.9-83.8c0.6-23-3-41.6-6.4-54.2
			c-10.5-39-30.7-64.1-37.5-72c-9.3-10.9-18.4-18.9-25.1-24.2C721.9,542.3,711.6,547.4,701.2,552.5z"/>
		<path class="st11" d="M775.7,587.5c-1.8,0.5,2.4,16.8,6.4,40.9c0,0,6.1,36.6,7.4,72c0.9,23.4-0.3,57.6-10.8,100.1
			c4.8-2.4,10.7-5.9,16.8-10.8c7.4-6,12.7-12.3,16.3-17.3c-1.3-40.3-4.7-61.2-7.9-73c-0.6-2.3-2.2-7.7-3.5-15.3
			c-2.4-14.2-1.2-20.3-2.5-32.1c-1-9.4-2.9-15.6-6.4-27.1C786.2,607.6,777.7,586.9,775.7,587.5z"/>
	</g>
	<g id="head">
		<path class="st1" d="M658,406.5c-6.6,3.7-15,9.3-23.1,17.8c-16.8,17.9-22.2,37.9-24.1,47.8c-1.5-0.2-5.6-0.5-8.9,2.1
			c-4.9,3.8-5,11.3-3.1,15.7c0.7,1.6,1.7,2.9,3.8,5.5c2.5,3.1,4.1,5,6.7,6.1c1.1,0.5,3.6,1.2,7.2,0.4c1.1,3.3,2.9,7.9,5.6,13.2
			c3.5,6.8,8.8,16.9,19.4,25.7c3.1,2.6,7.9,6,14.4,9.1c2.4,3.1,6.8,9.6,7.3,18.4c1,15.5-10.3,28.4-21,34.1
			c-18.6,9.9-38.8,0-46.2-3.7c-4-2-24.1-12.4-32.5-35.2c-10.2-27.5,3.1-55,11-71.4c8-16.5,11.7-15.4,17.8-31.5
			c8.1-21.3,3.8-28.8,13.1-45.1c3.6-6.4,10.9-19.2,26.2-25.2c13.1-5.1,25.2-2.5,30.4-1c4.3-2.6,11.9-6.3,21.5-6.3
			c22.8,0,37.4,21.6,40.9,26.8c10.4,15.3,4.9,20,14.2,41.5c11.7,27.1,23.1,25.5,33.6,50.9c5.1,12.4,13.6,32.9,4.2,52.5
			c-9.7,20.2-31.8,26.1-34.6,26.8c-5.1,1.3-18.8,4.7-32.5-2.6c-1.3-0.7-18.5-10.1-19.9-26.2c-0.5-5.9,1.2-11.4,1.6-12.6
			c2.1-6.5,5.7-10.7,6.8-12.1c4.3-5.3,9.5-15.1,13.1-34.6c1.7-0.1,4.5-0.5,7.3-2.1c5.9-3.4,8.7-10.3,8.4-16.3
			c-0.1-1.4-0.5-9.4-6.3-12.1c-2.4-1.1-4.9-0.8-6.3-0.5C695.4,443.6,676.7,425.1,658,406.5z"/>
		<path class="st3" d="M658,406.4c-11.1,6.5-18.8,13.7-23.7,19c-16.3,17.7-21.5,36.2-22.6,40.5c-0.7,2.7-1.2,4.9-1.4,6.5
			c-1.1-0.4-3.6-1.1-6.1,0c-3.8,1.7-4.6,6.3-5,8.6c-1,5.3,1,9.5,1.8,11.1c1.1,2.3,2.9,6,7.2,7.9c3.5,1.6,6.8,1,8.2,0.7
			c1.4,3.6,3.4,8.6,6.5,14.3c4.7,9,9.1,17.3,17.6,24.7c3.3,2.9,8.7,6.9,16.5,10c1.6,2.5,3.8,6.4,5,11.5c1,4,1.2,7.4,1.1,10
			c2.6,1.3,7.5,3.3,13.6,3.2c11.7-0.2,19.4-7.5,21.2-9.3c-1.9-5.7-3.6-12.7-4.3-20.8c-0.3-3.7-0.4-7.2-0.4-10.4
			c3.1-3.3,6.9-8,10-14.3c5.5-10.9,6.4-21,6.5-26.9c1.4,0.2,4.2,0.5,7.2-0.7c4.2-1.7,6.1-5.4,7.2-7.5c0.3-0.5,4.5-9.1,0.7-17.6
			c-0.9-1.9-2.4-5.4-5.4-5.7c-2.2-0.2-4,1.5-4.7,2.2c-4.1-4.9-11.8-14-22.6-26.5c-9.3-10.9-15.2-17.7-25.1-24.7
			C663.4,409.6,660.2,407.7,658,406.4z"/>
		<path d="M644.2,512.5c-1,2.3,3.7,6.4,5.9,8.1c4.6,3.4,9.5,3.9,11.3,4c2.1,0.2,9,0.7,15.3-3.8c1.5-1.1,5.7-4,7.3-9.4
			c1.1-3.9,0.8-9.3-1.3-10.2c-1.6-0.6-3.1,1.4-6.5,3.8c-6,4.1-12.2,5.1-17.5,5.9C649.7,512.3,645.2,510.5,644.2,512.5z"/>
		<g>
			<g>
				<path class="st4" d="M612.5,489.4c3.6,15,9.4,29.7,19,41.9c8.5,10.9,21.1,21.4,35.8,20c13.6-1.3,24.7-11.9,31.9-22.7
					c8.5-12.6,12.6-27.7,12.2-42.9c-0.1-1.9-3.1-1.9-3,0c0.4,13.9-3.2,27.5-10.5,39.3c-6.9,11.1-18.3,22.8-32.2,23.4
					c-14.7,0.6-26.8-11.4-34.6-22.6c-7.8-11.2-12.6-24.1-15.8-37.3C614.9,486.7,612,487.5,612.5,489.4L612.5,489.4z"/>
			</g>
		</g>
		<g>
			<g>
				<path class="st4" d="M655,549.9c4.2,6.4,6.3,13.4,6.3,21.1c0,1.9,3,1.9,3,0c0-8.1-2.3-15.8-6.7-22.6
					C656.6,546.7,654,548.2,655,549.9L655,549.9z"/>
			</g>
		</g>
		<g>
			<g>
				<path class="st4" d="M662.7,572.2c12.2,7,28,3.6,36.3-7.6c1.2-1.5-1.4-3-2.6-1.5c-7.4,9.9-21.6,12.7-32.2,6.5
					C662.5,568.7,661,571.3,662.7,572.2L662.7,572.2z"/>
			</g>
		</g>
		<g>
			<g>
				<path class="st4" d="M691.5,536.5c0.1,9.1,1.5,18.1,4.4,26.8c0.6,1.8,3.5,1,2.9-0.8c-2.7-8.5-4.2-17.1-4.3-26
					C694.5,534.5,691.5,534.5,691.5,536.5L691.5,536.5z"/>
			</g>
		</g>
		<g>
			<g>
				<path class="st4" d="M615.5,498.9c-1.3,1.4-4.5,0.9-6,0.1c-1.2-0.6-2.3-1.5-3.2-2.4c-2-1.9-3.6-4.2-4.6-6.7
					c-2-4.7-2.9-18.2,6-15.8c1.9,0.5,2.7-2.4,0.8-2.9c-11-2.9-12.7,11.7-9.9,19c2.2,5.9,12.3,18.1,19.1,10.8
					C618.9,499.6,616.8,497.5,615.5,498.9L615.5,498.9z"/>
			</g>
		</g>
		<g>
			<g>
				<path class="st4" d="M716,463.9c1.2-4,6.4,3.7,7,5.1c1.2,3.2,1.6,6.7,1.1,10.1c-0.8,6.8-6.2,13.3-13.7,11.4
					c-1.9-0.5-2.7,2.4-0.8,2.9c12.1,3.1,18.6-9.5,17.5-19.8c-0.5-4.5-2.3-10.3-6.6-12.7c-2.8-1.5-6.4-1.1-7.4,2.1
					C712.5,465,715.4,465.7,716,463.9L716,463.9z"/>
			</g>
		</g>
		<g>
			<g>
				<path class="st4" d="M626.2,442.7c3.3-6.3,9.1-10.4,16.1-11.4c1.9-0.3,1.1-3.2-0.8-2.9c-7.7,1.1-14.3,5.9-17.9,12.8
					C622.7,442.9,625.3,444.4,626.2,442.7L626.2,442.7z"/>
			</g>
		</g>
		<g>
			<g>
				<path class="st4" d="M672.4,427.3c8.4-2,16.8,2.2,20.6,9.8c0.9,1.7,3.4,0.2,2.6-1.5c-4.4-8.9-14.4-13.5-24-11.2
					C669.7,424.9,670.5,427.8,672.4,427.3L672.4,427.3z"/>
			</g>
		</g>
		<g>
			<g>
				<path class="st4" d="M650.6,439.6c1.9,10.6,2.4,21.5,1.3,32.3c-0.4,3.3-2,8-0.5,11.3c1.6,3.6,5.9,6.7,8.6,9.5
					c1.3,1.4,3.5-0.7,2.1-2.1c-1.8-1.9-3.6-3.7-5.4-5.6c-2.8-2.9-3.1-3.8-2.5-8c0.5-3.8,1-7.7,1.2-11.6c0.4-8.9-0.3-17.8-1.9-26.5
					C653.2,436.9,650.3,437.7,650.6,439.6L650.6,439.6z"/>
			</g>
		</g>
		<g>
			<g>
				<path class="st4" d="M638,465.3c-1.5-2.4-2.2-5-2-7.8c0-0.6,0.4-3.2,0.9-3.3c0.3,0,0.8,3.5,0.9,3.9c0.2,1.3,0.3,2.7,0.3,4
					c0,0.4-0.1,3.7-0.1,1.7c-0.1-2.9,0.1-5.8,0.2-8.7c-1,0.1-2,0.3-2.9,0.4c0.5,3.1,0.8,6.2,0.8,9.4c1,0,2,0,3,0c0-0.4,0-0.8,0-1.2
					c0-1.9-3-1.9-3,0c0,0.4,0,0.8,0,1.2c0,1.9,3,1.9,3,0c0-3.4-0.3-6.8-0.9-10.2c-0.3-1.7-2.9-1.2-2.9,0.4c-0.1,3.2-0.5,6.7-0.1,9.9
					c0.2,1.5,0.9,2.9,2.6,3.2c5,1,3.5-8.8,3.1-11.2c-0.3-1.9-0.6-4.8-2.4-5.9c-1.5-0.9-3.1,0-4,1.4c-2.5,4.2-1.1,10.4,1.2,14.2
					C636.4,468.4,639,466.9,638,465.3L638,465.3z"/>
			</g>
		</g>
		<g>
			<g>
				<path class="st4" d="M684.2,460c-1.5-2.4-2.2-5-2-7.8c0-0.6,0.4-3.2,0.9-3.3c0.3,0,0.8,3.5,0.9,3.9c0.2,1.3,0.3,2.7,0.3,4
					c0,0.4-0.1,3.7-0.1,1.7c-0.1-2.9,0.1-5.8,0.2-8.7c-1,0.1-2,0.3-2.9,0.4c0.5,3.1,0.8,6.2,0.8,9.4c1,0,2,0,3,0c0-0.4,0-0.8,0-1.2
					c0-1.9-3-1.9-3,0c0,0.4,0,0.8,0,1.2c0,1.9,3,1.9,3,0c0-3.4-0.3-6.8-0.9-10.2c-0.3-1.7-2.9-1.2-2.9,0.4c-0.1,3.2-0.5,6.7-0.1,9.9
					c0.2,1.5,0.9,2.9,2.6,3.2c5,1,3.5-8.8,3.1-11.2c-0.3-1.9-0.6-4.8-2.4-5.9c-1.5-0.9-3.1,0-4,1.4c-2.5,4.2-1.1,10.4,1.2,14.2
					C682.6,463.2,685.2,461.7,684.2,460L684.2,460z"/>
			</g>
		</g>
		<g>
			<g>
				<path class="st4" d="M623.2,474.5c1.9,0,1.9-3,0-3C621.3,471.5,621.3,474.5,623.2,474.5L623.2,474.5z"/>
			</g>
		</g>
		<g>
			<g>
				<path class="st4" d="M635,476.7c0.1,0,0.2,0,0.4,0c0.8,0,1.5-0.7,1.5-1.5c0-0.8-0.7-1.5-1.5-1.5c-0.1,0-0.2,0-0.4,0
					c-0.8,0-1.5,0.7-1.5,1.5C633.5,476,634.1,476.7,635,476.7L635,476.7z"/>
			</g>
		</g>
		<g>
			<g>
				<path class="st4" d="M628,485.9c1.9,0,1.9-3,0-3C626.1,482.9,626,485.9,628,485.9L628,485.9z"/>
			</g>
		</g>
		<g>
			<g>
				<path class="st4" d="M684.8,473c0.1,0,0.2,0,0.4,0c0.8,0,1.5-0.7,1.5-1.5c0-0.8-0.7-1.5-1.5-1.5c-0.1,0-0.2,0-0.4,0
					c-0.8,0-1.5,0.7-1.5,1.5C683.3,472.3,683.9,473,684.8,473L684.8,473z"/>
			</g>
		</g>
		<g>
			<g>
				<path class="st4" d="M695.8,465.6c1.9,0,1.9-3,0-3C693.9,462.6,693.9,465.6,695.8,465.6L695.8,465.6z"/>
			</g>
		</g>
		<g>
			<g>
				<path class="st4" d="M694.3,473.7c0.1,0,0.2,0,0.4,0c0.8,0,1.5-0.7,1.5-1.5c0-0.8-0.7-1.5-1.5-1.5c-0.1,0-0.2,0-0.4,0
					c-0.8,0-1.5,0.7-1.5,1.5C692.9,473,693.5,473.7,694.3,473.7L694.3,473.7z"/>
			</g>
		</g>
		<g>
			<g>
				<path class="st4" d="M646.7,514.8c-1.6-2.3-4.2-5.6-3.1-8.6c1.3-3.4,5.4-2.9,8.1-2.5c3.3,0.5,6,1.1,9.2,0.1
					c2.6-0.8,4.9-2.5,7.3-3.8c5.7-3.2,12.4-3.5,14.2,4c5.1,20.5-31.1,26.3-36.7,8.3c-0.6-1.8-3.5-1.1-2.9,0.8
					c6.9,22.1,49.7,13.9,42.2-10.6c-1.3-4.1-4.4-7.6-8.8-8.1c-7.2-0.7-11.9,6.5-18.8,7c-5.1,0.4-11.3-3.5-15.4,1.3
					c-3.7,4.3-0.7,9.8,2,13.6C645.2,517.9,647.8,516.4,646.7,514.8L646.7,514.8z"/>
			</g>
		</g>
		<g>
			<g>
				<path class="st4" d="M640.9,509.1c2.2,6.1,13.2,4.2,18,3.5c9.2-1.4,17.6-5.4,24.7-11.3c1.5-1.2-0.6-3.4-2.1-2.1
					c-5.2,4.4-11.2,7.6-17.8,9.4c-2.9,0.8-18.2,4.2-19.8-0.2C643.1,506.5,640.2,507.3,640.9,509.1L640.9,509.1z"/>
			</g>
		</g>
		<g>
			<g>
				<path class="st4" d="M658.7,553c11.7,3,27.3-4.4,33.9-14.1c1.1-1.6-1.5-3.1-2.6-1.5c-5.8,8.5-20.3,15.3-30.5,12.7
					C657.6,549.6,656.8,552.5,658.7,553L658.7,553z"/>
			</g>
		</g>
		<g>
			<g>
				<path class="st4" d="M659.8,553.9c10.4,6.5,27.5-2.7,32.5-12.6c0.9-1.7-1.7-3.2-2.6-1.5c-4.2,8.4-19.5,17.1-28.4,11.6
					C659.6,550.3,658.1,552.9,659.8,553.9L659.8,553.9z"/>
			</g>
		</g>
		<path class="st12" d="M701.3,447.9c0.7,3.6,1.6,9.3,2.2,16.2c1.4,18.4,3.8,49.2-14.8,69.7c-4,4.4-12.5,12.2-28.2,16.6
			c5-0.2,11.1-0.8,17.7-2.5c3.3-0.8,6.3-1.8,9-2.9c0.4,8.9,0.7,17.8,1.1,26.7c3.4-2.2,6.7-4.3,10.1-6.5c-4.6-10.2-4.6-18.1-4-23.1
			c0.9-7,3.5-12.7,6.1-18.4c2.3-5,4.7-9,6.6-11.8c0.2,2.1,0.7,4.3,2.1,6.4c6.1,9.1,25.2,10,37.2,2.2c11.1-7.2,16.5-21.8,13.7-36.8
			c1.9,1.6,3.9,3.5,5.8,5.8c1.5,1.8,5.4,7,10.8,25.3c1.7,5.7,2.5,8.6,3,11.5c0.6,4,1.7,11.6-0.4,20.2c-3.6,14.8-14.3,23.3-17.5,25.7
			c-2.3,1.7-9.3,6.8-19.8,9.2c-5,1.1-20,4.7-34.1-3.5c-5.3-3.1-8.2-5.4-9.8-8.2c-1.7-3.1-1.9-6-2.1-8.2c-0.9-13.7-1.3-20.6-0.4-25.3
			c2.7-13.6,8.8-15,12.2-30.5c1.2-5.6,1.5-10.3,1.6-13.3c1.3,0.2,3.3,0.4,5.7-0.2c5-1.3,7.5-5.4,8.4-6.9c3.6-5.7,5.2-15.9-0.4-20.6
			c-0.8-0.7-3.6-2.8-9-2.4C710,457.5,705.7,452.7,701.3,447.9z"/>
		<path class="st6" d="M653.9,480.3c5.1,1.5,10.3,3.1,15.4,4.6c-1.3,1.2-2.6,2.3-4,3.5c-1.3,1.1-2.5,2-3.8,3
			c-1.6-1.2-3.9-3.3-5.7-6.5C654.8,483.2,654.2,481.6,653.9,480.3z"/>
		<path class="st13" d="M573.7,492.8c-10.9,38.5-2.8,69.6,13.5,76.4c12.8,5.3,35.9-2.2,40.2-15.3c0.6-1.7,1.2-4.7-1.1-13.9
			c-2-8.1-6.1-20.3-15.3-34.2c-1.6-1-3.7-2.6-5.7-5c-3.5-4.3-4.5-8.9-4.8-11.1c2.9,3,7.1,6.8,9.8,5.6c2.6-1.2,4.2-4.8,3.3-8.4
			c0.9,4.6,2.3,10.9,4.9,18.2c3.4,9.7,6.8,19.1,14.7,28c3.6,4.1,10.7,10.8,22.7,15.6c2,2.5,5.7,7.9,6.9,15.8
			c0.2,1.2,0.9,6.7-0.9,13.6c-0.4,1.6-2.8,10.3-10.7,17.8c-9.2,8.8-20.2,10.4-23.8,10.9c-27.1,3.6-48.1-20.1-51.8-24.2
			c-3.7-4.2-9.8-11.2-13.3-22c-5.6-17.2-1.3-32.7,1.8-44C567,506,570.9,498,573.7,492.8z"/>
	</g>
</g>
</svg>
